<svg xmlns="http://www.w3.org/2000/svg" viewBox="0 0 1163 256.36"><g id="Layer_2" data-name="Layer 2"><g id="Layer_1-2" data-name="Layer 1"><path d="M1163 .13v54.09a.13.13 0 01-.13.13h-3.29a12.75 12.75 0 00-12.71 12.71c0 41.48-39.51 73.73-83 61.15-.64-.18-1.27-.38-1.9-.58-24.21-7.88-40.25-30.91-40.25-56.37v123.46A63.9 63.9 0 01894 192.46v-.53c.2-24.5-19.33-137.58-43.83-137.58H804a12.75 12.75 0 00-12.71 12.71A63.88 63.88 0 01727.41 131a68.24 68.24 0 01-19-2.73A62.12 62.12 0 01665 81a69.43 69.43 0 01-1.42-14.45 12.11 12.11 0 00-12.07-12.15h-78.68c-23.77 0-25.2 100.49-24.52 124.25v1.86a63.9 63.9 0 11-127.8-.21q0-3 .3-6.08C422.81 153.34 388 54.4 367 54.4h-27.4a12.71 12.71 0 00-12.71 12.71A63.88 63.88 0 01263 131a68.62 68.62 0 01-19-2.74A62.11 62.11 0 01200.56 81a60.23 60.23 0 01-1-6.68 22.5 22.5 0 00-22.47-19.91h-3.31a31.82 31.82 0 00-31.11 26l-.12.58c-.35 1.74-.77 3.45-1.28 5.13a62.05 62.05 0 01-42.15 42.15c-43.44 12.58-82.95-19.67-82.95-61.15V67A12.44 12.44 0 003.93 54.35H0V0h1021.72v.13a.13.13 0 01.13-.13h141a.13.13 0 01.15.11z" fill="#fff" id="Layer_1-2-2" data-name="Layer 1-2"/></g></g></svg>