<svg xmlns="http://www.w3.org/2000/svg" width="612.367" height="888.49"><g id="atariSVG" transform="translate(-653.325 -96.12)"><path id="Path_1" data-name="Path 1" d="M1265.63 666.49l-16.34 113.76a6.292 6.292 0 01-6.33 5.37l-568.08-2.8a6.275 6.275 0 01-6.28-5.43l-15.22-113.92a6.258 6.258 0 016.34-7.04l599.64 2.96a6.258 6.258 0 016.27 7.1z" fill="#333"/><path id="Path_2" data-name="Path 2" d="M1243.1 782.71l-.14 2.92-.47 8.53a1.767 1.767 0 01-.05.51l-20.15 156.92a13.44 13.44 0 01-13.39 11.73l-501.58-2.47A13.467 13.467 0 01694 948.99l-18.56-157.11a2.2 2.2 0 01-.04-.51 1.869 1.869 0 01-.04-.47l-.39-8.06-.11-2.92z" fill="#333"/><path id="Path_3" data-name="Path 3" d="M1242.96 785.62l-.47 8.53-567.14-2.8-.39-8.53z" fill="#1a1a1a"/><path id="Path_4" data-name="Path 4" d="M1179.45 968.48l-2.55 12.59a4.46 4.46 0 01-4.39 3.54l-104.66-.52a4.4 4.4 0 01-4.31-3.58l-2.47-12.62a4.07 4.07 0 01.1-2.06 4.421 4.421 0 014.26-3.24l109.72.54a4.423 4.423 0 014.23 3.28 4.243 4.243 0 01.07 2.07z" fill="#2b2a2a"/><path id="Path_5" data-name="Path 5" d="M1179.38 966.43l-118.21-.58a4.421 4.421 0 014.26-3.24l109.72.54a4.423 4.423 0 014.23 3.28z" fill="#1a1a1a"/><path id="Path_6" data-name="Path 6" d="M855.07 966.9l-2.55 12.59a4.46 4.46 0 01-4.39 3.54l-104.66-.52a4.4 4.4 0 01-4.31-3.58l-2.47-12.62a4.184 4.184 0 01.1-2.06 4.421 4.421 0 014.26-3.24l109.72.54a4.423 4.423 0 014.23 3.28 4.236 4.236 0 01.07 2.07z" fill="#2b2a2a"/><path id="Path_7" data-name="Path 7" d="M855 964.84l-118.21-.58a4.421 4.421 0 014.26-3.24l109.72.54a4.423 4.423 0 014.23 3.28z" fill="#1a1a1a"/><path id="Path_8" data-name="Path 8" d="M1247.52 651.39l-.02 5.02a2.86 2.86 0 01-2.97 2.94l-569.97-2.81a2.434 2.434 0 01-.6-.05 3.02 3.02 0 01-2.34-2.93l.02-5.02a2.958 2.958 0 012.97-2.94l569.97 2.81a2.973 2.973 0 012.94 2.98z" fill="#2b2a2a"/><path id="Path_9" data-name="Path 9" d="M1167.44 640.06l-.02 5.02a2.958 2.958 0 01-2.97 2.94L754.87 646a4.043 4.043 0 01-.73-.09 2.944 2.944 0 01-2.22-2.88l.02-5.02a2.944 2.944 0 013.02-2.94l409.52 2.02a2.975 2.975 0 012.96 2.97z" fill="#333"/><path id="Path_10" data-name="Path 10" d="M1146.05 629.02l-.02 5.02a2.958 2.958 0 01-2.97 2.94l-366.82-1.81a2.958 2.958 0 01-2.94-2.97l.02-5.02a2.969 2.969 0 013.02-2.94l366.77 1.81a2.958 2.958 0 012.94 2.97z" fill="#333"/><path id="Path_11" data-name="Path 11" d="M1127.54 618l-.02 5.02a2.958 2.958 0 01-2.97 2.94l-329.56-1.62a2.958 2.958 0 01-2.94-2.97l.02-5.02a2.958 2.958 0 012.97-2.94l329.51 1.62a2.968 2.968 0 012.99 2.97z" fill="#333"/><path id="Path_12" data-name="Path 12" d="M1108.51 606.84v.18l-.02 5.02a2.924 2.924 0 01-2.97 2.9l-291.48-1.44a2.924 2.924 0 01-2.94-2.93l.02-5.02v-.18a2.961 2.961 0 012.97-2.77l291.44 1.44a2.962 2.962 0 012.98 2.8z" fill="#333"/><path id="Path_13" data-name="Path 13" d="M1127.54 618v.09l-335.47-1.65v-.09a2.958 2.958 0 012.97-2.94l329.51 1.62a2.968 2.968 0 012.99 2.97z" fill="#1a1a1a"/><path id="Path_14" data-name="Path 14" d="M1146.05 629.02v.09l-372.73-1.84v-.09a2.969 2.969 0 013.02-2.94l366.77 1.81a2.958 2.958 0 012.94 2.97z" fill="#1a1a1a"/><path id="Path_15" data-name="Path 15" d="M1167.44 640.06v.04l-415.48-2.05v-.04a2.944 2.944 0 013.02-2.94l409.52 2.02a2.97 2.97 0 012.94 2.97z" fill="#1a1a1a"/><path id="Path_16" data-name="Path 16" d="M1108.51 606.84v.09l-297.4-1.47v-.09c.01-2.62 1.35-4.8 2.98-4.79l291.44 1.44c1.68.01 3 2.2 2.98 4.82z" fill="#1a1a1a"/><path id="Path_17" data-name="Path 17" d="M1247.52 651.39v.04l-575.89-2.84v-.04a2.958 2.958 0 012.97-2.94l569.97 2.81a2.96 2.96 0 012.95 2.97z" fill="#1a1a1a"/><g id="Group_2" data-name="Group 2"><g id="Group_1" data-name="Group 1"><path id="Path_18" data-name="Path 18" d="M1238.58 638.01l-.05 10.38-54.58-.27.05-10.38a1.823 1.823 0 011.85-1.83l50.9.25a1.816 1.816 0 011.83 1.85z" fill="#333"/><path id="Path_19" data-name="Path 19" d="M1233.52 630.01l-.03 6.13-44.38-.22.03-6.13a1.808 1.808 0 011.85-1.79l40.69.2a1.829 1.829 0 011.84 1.81z" fill="#ed1c24"/></g><path id="Path_20" data-name="Path 20" d="M1238.58 638.01v.94l-54.58-.27v-.94a1.823 1.823 0 011.85-1.83l50.9.25a1.816 1.816 0 011.83 1.85z" fill="#1a1a1a"/><path id="Path_21" data-name="Path 21" d="M1238.58 638.01l-.05 10.38-27.27-.13.1-20.15 20.32.1a1.814 1.814 0 011.83 1.81l-.03 6.13 3.26.02a1.8 1.8 0 011.84 1.84z" opacity=".15"/></g><g id="Group_3" data-name="Group 3"><path id="Rectangle_1" data-name="Rectangle 1" transform="rotate(.282 -23642.682 191315.315)" fill="#333" d="M0 0h53.43v482.52H0z"/><path id="Path_22" data-name="Path 22" d="M1045.59 601.73l-53.42-.27 2.38-482.54 27.7.14z" fill="#333"/><path id="Path_23" data-name="Path 23" d="M941.12 118.68l-27.71-.14-28.1 482.38 53.43.27z" fill="#333"/><path id="Rectangle_2" data-name="Rectangle 2" transform="rotate(-89.718 798.304 -197.81)" fill="#1a1a1a" d="M0 0h482.55v4.03H0z"/><path id="Rectangle_3" data-name="Rectangle 3" transform="rotate(-89.718 771.453 -171.092)" fill="#1a1a1a" d="M0 0h482.55v4.03H0z"/><path id="Path_24" data-name="Path 24" d="M1009.8 104.98l-.07 14.02-83.44-.41.07-14.02a8.514 8.514 0 018.53-8.45l66.5.33a8.474 8.474 0 018.41 8.53z" fill="#ed1c24"/><path id="Rectangle_4" data-name="Rectangle 4" transform="rotate(-89.718 522.721 -406.139)" fill="#c91724" d="M0 0h4.67v83.44H0z"/></g><path id="Rectangle_5" data-name="Rectangle 5" transform="rotate(.282 -129690.006 148166.027)" fill="#e57123" d="M0 0h33.93v6.05H0z"/><path id="Rectangle_6" data-name="Rectangle 6" transform="rotate(.282 -129715.042 157807.057)" fill="#e57123" d="M0 0h33.93v6.05H0z"/><path id="Rectangle_7" data-name="Rectangle 7" transform="rotate(.282 -129789.783 167891.135)" fill="#e57123" d="M0 0h33.93v6.05H0z"/><path id="Rectangle_8" data-name="Rectangle 8" transform="rotate(.282 -129764.818 178035.719)" fill="#e57123" d="M0 0h33.93v6.05H0z"/><path id="Rectangle_9" data-name="Rectangle 9" transform="rotate(.282 -129787.743 187709.251)" fill="#e57123" d="M0 0h33.93v6.05H0z"/><path id="Rectangle_10" data-name="Rectangle 10" transform="rotate(.282 -129813.657 197819.42)" fill="#e57123" d="M0 0h33.93v6.05H0z"/><path id="Rectangle_11" data-name="Rectangle 11" transform="rotate(.282 -129789.339 207618.806)" fill="#e57123" d="M0 0h33.93v6.05H0z"/><path id="Rectangle_12" data-name="Rectangle 12" transform="rotate(.282 -129812.467 217292.34)" fill="#e57123" d="M0 0h33.93v6.05H0z"/><path id="Rectangle_13" data-name="Rectangle 13" transform="rotate(.282 -129838.183 227400.476)" fill="#e57123" d="M0 0h33.93v6.05H0z"/><path id="Path_25" data-name="Path 25" d="M1265.63 666.49l-16.34 113.76a6.292 6.292 0 01-6.33 5.37l-.47 8.53a1.767 1.767 0 01-.05.51l-20.15 156.92a13.44 13.44 0 01-13.39 11.73l-33.74-.17a4.423 4.423 0 014.23 3.28 4.189 4.189 0 01.08 2.06l-2.55 12.59a4.46 4.46 0 01-4.39 3.54l-104.66-.52a4.4 4.4 0 01-4.31-3.58l-2.47-12.62a4.07 4.07 0 01.1-2.06 4.421 4.421 0 014.26-3.24l-101.53-.5 4.27-865.82 33.23.16a8.466 8.466 0 018.4 8.53l-.07 14.02 12.52.06 23.35 482.67 59.94.3c1.67.01 2.99 2.2 2.98 4.82v.18l-.02 5.02a2.924 2.924 0 01-2.97 2.9l19.04.09a2.981 2.981 0 012.99 2.97l-.02 5.02a2.958 2.958 0 01-2.97 2.94l18.57.09a2.958 2.958 0 012.94 2.97l-.02 5.02a2.958 2.958 0 01-2.97 2.94l21.44.11a2.958 2.958 0 012.94 2.97l-.02 5.02a2.958 2.958 0 01-2.97 2.94l19.51.1.05-10.38a1.823 1.823 0 011.85-1.83l3.26.02.03-6.13a1.808 1.808 0 011.85-1.79l40.69.2a1.814 1.814 0 011.83 1.81l-.03 6.13 3.26.02a1.823 1.823 0 011.83 1.85l-.05 10.38 6.05.03a2.958 2.958 0 012.94 2.97l-.02 5.02a3.017 3.017 0 01-2.37 2.9l14.24.07a6.26 6.26 0 016.21 7.11z" opacity=".15"/><g id="Group_4" data-name="Group 4" fill="#e57123"><path id="Rectangle_14" data-name="Rectangle 14" transform="rotate(-89.718 738.338 -7.573)" d="M0 0h38.01v4.49H0z"/><path id="Path_26" data-name="Path 26" d="M722.88 730.79l.75.01c9.53-.2 17.24-9.75 17.3-21.54l.08-16.41-2.99-.01-.06 11.19c-.05 10.85-6.59 19.8-15.05 21.32z"/><path id="Path_27" data-name="Path 27" d="M766.23 731h-.75c-9.53-.29-17.14-9.92-17.08-21.71l.08-16.41 2.99.01-.06 11.19c-.05 10.85 6.39 19.87 14.84 21.46z"/></g><g id="Group_5" data-name="Group 5" fill="#e57123"><path id="Path_28" data-name="Path 28" d="M728.91 741.72l-1.23-6.17-1.42 6.15zm4.76 5.37l-3.16-.02-.77-2.72-4.26-.02-.84 2.71-3.16-.02 4.01-12.61a2.947 2.947 0 01.74-1.22 1.879 1.879 0 011.35-.54 2.235 2.235 0 011.52.6 3.042 3.042 0 01.84 1.35z"/><path id="Path_29" data-name="Path 29" d="M740.97 735.64l-2.77-.02-.05 11.49-3.1-.02.05-11.48-2.78-.02.01-2.69 8.65.04z"/><path id="Path_30" data-name="Path 30" d="M747.01 741.81l-1.24-6.17-1.42 6.15zm4.76 5.37l-3.16-.02-.77-2.72-4.26-.02-.84 2.71-3.16-.02 4.01-12.61a2.947 2.947 0 01.74-1.22 1.9 1.9 0 011.35-.54 2.235 2.235 0 011.52.6 3.042 3.042 0 01.84 1.35z"/><path id="Path_31" data-name="Path 31" d="M762.48 747.23l-3.59-.02-2.99-5.61c-.14-.27-.25-.52-.34-.74a1.446 1.446 0 01-.13-.51c0-.63.51-1.14 1.52-1.53s1.51-.89 1.52-1.49a1.674 1.674 0 00-.43-1.08 1.232 1.232 0 00-.94-.53l-1.77-.01-.06 11.49-3-.01.06-12.26a2.164 2.164 0 011.85-1.87l3.02.01a4.347 4.347 0 013.05 1.24 3.751 3.751 0 011.29 2.84 3.355 3.355 0 01-.81 2.24 5.5 5.5 0 01-2.01 1.42z"/><path id="Rectangle_15" data-name="Rectangle 15" transform="rotate(-89.718 757.006 -9.763)" d="M0 0h14.2v3.12H0z"/></g></g></svg>