<svg version="1.1" id="Layer_1" xmlns="http://www.w3.org/2000/svg" x="0" y="0" viewBox="0 0 1920 1080" xml:space="preserve"><style>.st0{fill:#333}.st1{fill:#1a1a1a}.st2{fill:#2b2a2a}.st3{fill:#ed1c24}.st4{opacity:.15}.st6{fill:#e57123}</style><path class="st0" d="M1265.63 666.49l-16.34 113.76c-.44 3.13-3.16 5.39-6.33 5.37l-568.08-2.8c-3.22-.02-5.86-2.3-6.28-5.43l-15.22-113.92c-.5-3.78 2.48-7.06 6.34-7.04l599.64 2.96c3.86.01 6.8 3.33 6.27 7.1z"/><path class="st0" d="M1243.1 782.71l-.14 2.92-.47 8.53c0 .17 0 .34-.05.51l-20.15 156.92c-.85 6.73-6.62 11.76-13.39 11.73l-501.58-2.47c-6.82-.03-12.5-5.12-13.32-11.86l-18.56-157.11c-.04-.17-.04-.34-.04-.51-.04-.17-.04-.3-.04-.47l-.39-8.06-.11-2.92 568.24 2.79z"/><path class="st1" d="M1242.96 785.62l-.47 8.53-567.14-2.8-.39-8.53z"/><path class="st2" d="M1179.45 968.48l-2.55 12.59a4.46 4.46 0 01-4.39 3.54l-104.66-.52c-2.1-.01-3.94-1.52-4.31-3.58l-2.47-12.62c-.13-.73-.12-1.42.1-2.06.52-1.84 2.2-3.25 4.26-3.24l109.72.54c2.06.01 3.72 1.43 4.23 3.28.21.66.2 1.35.07 2.07z"/><path class="st1" d="M1179.38 966.43l-118.21-.58c.52-1.84 2.2-3.25 4.26-3.24l109.72.54c2.06.01 3.72 1.43 4.23 3.28z"/><path class="st2" d="M855.07 966.9l-2.55 12.59a4.46 4.46 0 01-4.39 3.54l-104.66-.52c-2.1-.01-3.94-1.52-4.31-3.58l-2.47-12.62c-.12-.73-.12-1.42.1-2.06.52-1.84 2.2-3.25 4.26-3.24l109.72.54c2.06.01 3.72 1.43 4.23 3.28.21.65.2 1.34.07 2.07z"/><path class="st1" d="M855 964.84l-118.21-.58c.52-1.84 2.2-3.25 4.26-3.24l109.72.54c2.06.01 3.72 1.43 4.23 3.28z"/><path class="st2" d="M1247.52 651.39l-.02 5.02c-.01 1.42-1.04 2.61-2.37 2.9-.21.04-.39.04-.6.04l-569.97-2.81c-.21 0-.39 0-.6-.05-1.33-.31-2.35-1.51-2.34-2.93l.02-5.02a2.958 2.958 0 012.97-2.94l569.97 2.81c1.63.02 2.95 1.35 2.94 2.98z"/><path class="st0" d="M1167.44 640.06l-.02 5.02a2.958 2.958 0 01-2.97 2.94L754.87 646c-.26 0-.51-.05-.73-.09a2.944 2.944 0 01-2.22-2.88l.02-5.02c.01-1.63 1.3-2.95 3.02-2.94l409.52 2.02c1.64.01 2.96 1.34 2.96 2.97zm-21.39-11.04l-.02 5.02a2.958 2.958 0 01-2.97 2.94l-366.82-1.81a2.958 2.958 0 01-2.94-2.97l.02-5.02c.01-1.63 1.34-2.95 3.02-2.94l366.77 1.81c1.63.01 2.95 1.34 2.94 2.97z"/><path class="st0" d="M1127.54 618l-.02 5.02a2.958 2.958 0 01-2.97 2.94l-329.56-1.62a2.958 2.958 0 01-2.94-2.97l.02-5.02a2.958 2.958 0 012.97-2.94l329.51 1.62c1.67 0 3 1.34 2.99 2.97z"/><path class="st0" d="M1108.51 606.84v.18l-.02 5.02c-.01 1.63-1.34 2.91-2.97 2.9l-291.48-1.44c-1.63-.01-2.95-1.3-2.94-2.93l.02-5.02v-.18a2.96 2.96 0 012.97-2.77l291.44 1.44c1.63.01 2.91 1.26 2.98 2.8z"/><path class="st1" d="M1127.54 618v.09l-335.47-1.65v-.09a2.958 2.958 0 012.97-2.94l329.51 1.62c1.67 0 3 1.34 2.99 2.97zm18.51 11.02v.09l-372.73-1.84v-.09c.01-1.63 1.34-2.95 3.02-2.94l366.77 1.81c1.63.01 2.95 1.34 2.94 2.97zm21.39 11.04v.04l-415.48-2.05v-.04c.01-1.63 1.3-2.95 3.02-2.94l409.52 2.02a2.97 2.97 0 012.94 2.97zm-58.93-33.22v.09l-297.4-1.47v-.09c.01-2.62 1.35-4.8 2.98-4.79l291.44 1.44c1.68.01 3 2.2 2.98 4.82zm139.01 44.55v.04l-575.89-2.84v-.04a2.958 2.958 0 012.97-2.94l569.97 2.81a2.96 2.96 0 012.95 2.97z"/><path class="st0" d="M1238.58 638.01l-.05 10.38-54.58-.27.05-10.38c.01-1.03.82-1.84 1.85-1.83l50.9.25c1.03 0 1.84.82 1.83 1.85z"/><path class="st3" d="M1233.52 630.01l-.03 6.13-44.38-.22.03-6.13c0-.99.82-1.8 1.85-1.79l40.69.2c1.03.01 1.84.82 1.84 1.81z"/><path class="st1" d="M1238.58 638.01v.94l-54.58-.27v-.94c.01-1.03.82-1.84 1.85-1.83l50.9.25c1.03 0 1.84.82 1.83 1.85z"/><path class="st4" d="M1238.58 638.01l-.05 10.38-27.27-.13.1-20.15 20.32.1c1.03.01 1.84.82 1.83 1.81l-.03 6.13 3.26.02c1.04-.01 1.85.81 1.84 1.84z"/><path transform="matrix(1 .00493 -.00493 1 1.787 -4.763)" class="st0" d="M940.13 118.81h53.43v482.52h-53.43z"/><path class="st0" d="M1045.59 601.73l-53.42-.27 2.38-482.54 27.7.14zM941.12 118.68l-27.71-.14-28.1 482.38 53.43.27z"/><path transform="matrix(.00493 -1 1 .00493 630.276 1353.8)" class="st1" d="M754.11 358.19h482.55v4.03H754.11z"/><path transform="matrix(.00493 -1 1 .00493 577.361 1300.099)" class="st1" d="M700.67 357.93h482.55v4.03H700.67z"/><path class="st3" d="M1009.8 104.98l-.07 14.02-83.44-.41.07-14.02c.02-4.67 3.86-8.47 8.53-8.45l66.5.33c4.67.02 8.43 3.85 8.41 8.53z"/><path transform="matrix(.00493 -1 1 .00493 846.792 1083.887)" fill="#c91724" d="M965.68 74.73h4.67v83.44h-4.67z"/><path transform="matrix(1 .00493 -.00493 1 3.18 -3.664)" class="st6" d="M727.65 640.18h33.93v6.05h-33.93z"/><path transform="matrix(1 .00493 -.00493 1 3.182 -3.898)" class="st6" d="M775.1 640.42h33.93v6.05H775.1z"/><path transform="matrix(1 .00493 -.00493 1 3.185 -4.142)" class="st6" d="M824.73 640.91h33.93v6.05h-33.93z"/><path transform="matrix(1 .00493 -.00493 1 3.186 -4.388)" class="st6" d="M874.66 640.91h33.93v6.05h-33.93z"/><path transform="matrix(1 .00493 -.00493 1 3.188 -4.623)" class="st6" d="M922.27 641.14h33.93v6.05h-33.93z"/><path transform="matrix(1 .00493 -.00493 1 3.19 -4.869)" class="st6" d="M972.03 641.39h33.93v6.05h-33.93z"/><path transform="matrix(1 .00493 -.00493 1 3.19 -5.106)" class="st6" d="M1020.26 641.39h33.93v6.05h-33.93z"/><path transform="matrix(1 .00493 -.00493 1 3.192 -5.341)" class="st6" d="M1067.87 641.62h33.93v6.05h-33.93z"/><path transform="matrix(1 .00493 -.00493 1 3.194 -5.586)" class="st6" d="M1117.62 641.87h33.93v6.05h-33.93z"/><path class="st4" d="M1265.63 666.49l-16.34 113.76c-.44 3.13-3.16 5.39-6.33 5.37l-.47 8.53c0 .17 0 .34-.05.51l-20.15 156.92c-.85 6.73-6.62 11.76-13.39 11.73l-33.74-.17c2.06.01 3.72 1.43 4.23 3.28.21.64.21 1.33.08 2.06l-2.55 12.59a4.46 4.46 0 01-4.39 3.54l-104.66-.52c-2.1-.01-3.94-1.52-4.31-3.58l-2.47-12.62c-.13-.73-.12-1.42.1-2.06.52-1.84 2.2-3.25 4.26-3.24l-101.53-.5 4.27-865.82 33.23.16c4.67.02 8.43 3.86 8.4 8.53l-.07 14.02 12.52.06 23.35 482.67 59.94.3c1.67.01 2.99 2.2 2.98 4.82v.18l-.02 5.02c-.01 1.63-1.34 2.91-2.97 2.9l19.04.09c1.67.01 2.99 1.34 2.99 2.97l-.02 5.02a2.958 2.958 0 01-2.97 2.94l18.57.09c1.63.01 2.95 1.34 2.94 2.97l-.02 5.02a2.958 2.958 0 01-2.97 2.94l21.44.11c1.63.01 2.95 1.34 2.94 2.97l-.02 5.02a2.958 2.958 0 01-2.97 2.94l19.51.1.05-10.38c.01-1.03.82-1.84 1.85-1.83l3.26.02.03-6.13c0-.99.82-1.8 1.85-1.79l40.69.2c1.03.01 1.84.82 1.83 1.81l-.03 6.13 3.26.02c1.03.01 1.84.82 1.83 1.85l-.05 10.38 6.05.03c1.63.01 2.95 1.34 2.94 2.97l-.02 5.02c-.01 1.42-1.04 2.61-2.37 2.9l14.24.07c3.8.02 6.74 3.34 6.21 7.11z"/><path transform="matrix(.00493 -1 1 .00493 29.14 1452.905)" class="st6" d="M725.61 709.56h38.01v4.49h-38.01z"/><path class="st6" d="M722.88 730.79l.75.01c9.53-.2 17.24-9.75 17.3-21.54l.08-16.41-2.99-.01-.06 11.19c-.05 10.85-6.59 19.8-15.05 21.32l-.03 5.44zm43.35.21h-.75c-9.53-.29-17.14-9.92-17.08-21.71l.08-16.41 2.99.01-.06 11.19c-.05 10.85 6.39 19.87 14.84 21.46l-.02 5.46zm-37.32 10.72l-1.23-6.17-1.42 6.15 2.65.02zm4.76 5.37l-3.16-.02-.77-2.72-4.26-.02-.84 2.71-3.16-.02 4.01-12.61c.16-.49.41-.9.74-1.22.4-.37.85-.55 1.35-.54.56 0 1.07.2 1.52.6.39.36.67.81.84 1.35l3.73 12.49zm7.3-11.45l-2.77-.02-.05 11.49-3.1-.02.05-11.48-2.78-.02.01-2.69 8.65.04zm6.04 6.17l-1.24-6.17-1.42 6.15 2.66.02zm4.76 5.37l-3.16-.02-.77-2.72-4.26-.02-.84 2.71-3.16-.02 4.01-12.61c.16-.49.41-.9.74-1.22.39-.36.85-.55 1.35-.54.56 0 1.07.2 1.52.6.39.36.67.81.84 1.35l3.73 12.49zm10.71.05l-3.59-.02-2.99-5.61c-.14-.27-.25-.52-.34-.74-.09-.22-.13-.39-.13-.51 0-.63.51-1.14 1.52-1.53 1.01-.4 1.51-.89 1.52-1.49 0-.37-.14-.73-.43-1.08-.29-.35-.6-.53-.94-.53l-1.77-.01-.06 11.49-3-.01.06-12.26c0-.44.21-.86.62-1.26.41-.41.82-.61 1.23-.61l3.02.01c1.17.01 2.18.42 3.05 1.24.87.82 1.3 1.77 1.29 2.84 0 .86-.27 1.6-.81 2.24-.47.56-1.14 1.03-2.01 1.42l3.76 6.42z"/><path transform="matrix(.00493 -1 1 .00493 20.668 1501.17)" class="st6" d="M757.53 738.64h14.2v3.12h-14.2z"/></svg>