<svg xmlns="http://www.w3.org/2000/svg" width="1114.88" height="228.248"><path id="box-deco" d="M1141.322 255H211v75.33a75.33 75.33 0 00150.659 0v-.13a12.568 12.568 0 0112.52-12.678h61.047c17.868 0 32.038 71.917 31.895 89.785 0 .618 0 1.235.008 1.853a75.331 75.331 0 00150.652-1.243q0-2.972-.226-5.891c-1.145-14.75 10.765-84.5 25.552-84.5h37.748a24.747 24.747 0 0124.565 26.93q-.305 3.684-.249 7.458c.655 40.52 33.77 88.6 74.29 89.145 42.079.565 76.362-48.445 76.362-90.388a75.348 75.348 0 00-.5-8.693 21.922 21.922 0 0121.77-24.452h2.041a18.09 18.09 0 0118.117 18.049c0 .467.008.927.015 1.386a75.328 75.328 0 00150.644-1.356v-.188a17.717 17.717 0 0117.65-17.891h97.14a12.568 12.568 0 0112.52 12.678v.128a75.33 75.33 0 00150.659 0V255z" transform="translate(-211 -255)" fill="#fff"/></svg>