<svg version="1.1" id="Layer_1" xmlns="http://www.w3.org/2000/svg" x="0" y="0" viewBox="0 0 1920 1080" xml:space="preserve"><path d="M1523.3 445.09c-7.09 0-11.65 7.64-8.17 13.82 5.55 9.86 8.55 21.34 8.13 33.55-1.14 33.08-27.89 60.11-60.95 61.58-36.61 1.62-66.81-27.58-66.81-63.84 0-8.98 1.85-17.54 5.2-25.3 4.04-9.36-2.71-19.81-12.91-19.81h-82.52c-6.91 0-12.39 5.66-12.37 12.58v.13c0 41.45-39.46 73.69-82.89 61.17-22.12-6.38-38.89-24.71-43.48-47.27-1-4.9-1.46-9.74-1.42-14.45.06-6.71-5.44-12.15-12.15-12.15h-78.55c-23.77 0-43.2 19.49-42.52 43.25.02.62.03 1.24.03 1.86 0 36.24-30.17 65.44-66.78 63.84-33.07-1.45-59.83-28.47-60.98-61.56-.1-2.74-.02-5.44.22-8.1 1.9-21.02-14.23-39.29-35.34-39.29h-28.15c-6.91 0-12.39 5.66-12.37 12.58v.13c0 41.46-39.47 73.69-82.9 61.16-22.12-6.38-38.89-24.72-43.48-47.28-.46-2.24-.8-4.47-1.04-6.68-1.22-11.38-11.02-19.91-22.47-19.91h-3.31c-15.29 0-28.18 10.98-31.11 25.99l-.12.58c-4.58 22.55-21.33 40.88-43.43 47.28-43.44 12.58-82.95-19.67-82.95-61.15v-.13c.01-6.91-5.46-12.58-12.37-12.58h-3.76v-54.35H1523.3v54.35z" fill="#fff"/></svg>