<svg xmlns="http://www.w3.org/2000/svg" width="1168.005" height="511.727"><g id="icon_NES" transform="translate(-375.997 -284.138)"><g id="Group_1" data-name="Group 1" fill="#fff" stroke="#fff" stroke-miterlimit="10" stroke-width=".005"><path id="Path_1" data-name="Path 1" d="M1544 323.57V756.5a39.044 39.044 0 01-38.84 39.36H414.84c-21.44 0-38.84-17.6-38.84-39.36V323.57c0-21.77 17.4-39.43 38.84-39.43h1090.32c21.51 0 38.84 17.66 38.84 39.43z"/><path id="Path_2" data-name="Path 2" d="M1544 323.57V756.5a39.044 39.044 0 01-38.84 39.36H960V284.14h545.16c21.51 0 38.84 17.66 38.84 39.43z" opacity=".15"/></g><g id="Group_2" data-name="Group 2" stroke="#fff" stroke-miterlimit="10" stroke-width=".005"><path id="Path_3" data-name="Path 3" d="M1534.57 330.26v419.55a38.124 38.124 0 01-38.21 38.15H423.64a38.162 38.162 0 01-38.21-38.15V330.26a38.229 38.229 0 0138.21-38.22h1072.71a38.186 38.186 0 0138.22 38.22z" fill="#cbc4ba"/><path id="Path_4" data-name="Path 4" d="M1534.57 330.26v419.55a38.124 38.124 0 01-38.21 38.15H960V292.04h536.36a38.184 38.184 0 0138.21 38.22z" opacity=".15"/></g><path id="Path_5" data-name="Path 5" d="M1501.2 397.79v311.38a38.22 38.22 0 01-38.21 38.21H457a38.22 38.22 0 01-38.21-38.21V397.79A38.22 38.22 0 01457 359.58h1005.99a38.207 38.207 0 0138.21 38.21z" fill="#2e303e"/><path id="Path_6" data-name="Path 6" d="M1501.2 397.79v311.38a38.22 38.22 0 01-38.21 38.21H960V359.57h502.99a38.222 38.222 0 0138.21 38.22z" opacity=".15"/><path id="Path_7" data-name="Path 7" d="M1073.22 359.57v35.99a12.432 12.432 0 01-12.4 12.47H859.1a12.351 12.351 0 01-12.33-12.4v-36.06z" fill="#909587"/><path id="Path_8" data-name="Path 8" d="M1073.22 711.33v36.06H846.77V711.4a12.432 12.432 0 0112.4-12.47h201.72a12.345 12.345 0 0112.33 12.4z" fill="#909587"/><path id="Path_9" data-name="Path 9" d="M1073.22 439.31v20.89a19.113 19.113 0 01-19.07 19.14H865.84a19.113 19.113 0 01-19.07-19.14v-20.89a19.1 19.1 0 0119.07-19.07h188.31a19.079 19.079 0 0119.07 19.07z" fill="#909587"/><path id="Path_10" data-name="Path 10" d="M1073.22 513.51v20.89a19.1 19.1 0 01-19.07 19.07H865.84a19.1 19.1 0 01-19.07-19.07v-20.89a19.113 19.113 0 0119.07-19.14h188.31a19.107 19.107 0 0119.07 19.14z" fill="#909587"/><path id="Path_11" data-name="Path 11" d="M1073.22 588.59v75.22a19.113 19.113 0 01-19.07 19.14H865.84a19.113 19.113 0 01-19.07-19.14v-75.22a19.1 19.1 0 0119.07-19.07h188.31a19.092 19.092 0 0119.07 19.07z" fill="#cbc4ba"/><path id="Path_12" data-name="Path 12" d="M1073.22 359.57v35.99a12.432 12.432 0 01-12.4 12.47H960v-48.46z" opacity=".15"/><path id="Path_13" data-name="Path 13" d="M1073.22 439.31v20.89a19.113 19.113 0 01-19.07 19.14H960v-59.11h94.16a19.092 19.092 0 0119.06 19.08z" opacity=".15"/><path id="Path_14" data-name="Path 14" d="M1073.22 513.51v20.89a19.1 19.1 0 01-19.07 19.07H960v-59.11h94.16a19.12 19.12 0 0119.06 19.15z" opacity=".15"/><path id="Path_15" data-name="Path 15" d="M1073.22 588.59v75.22a19.113 19.113 0 01-19.07 19.14H960V569.52h94.16a19.09 19.09 0 0119.06 19.07z" opacity=".15"/><path id="Path_16" data-name="Path 16" d="M1073.22 711.33v36.06H960v-48.46h100.9a12.343 12.343 0 0112.32 12.4z" opacity=".15"/><path id="Path_17" data-name="Path 17" d="M937.82 626.2A14.717 14.717 0 01923 641.02h-39.23a14.8 14.8 0 11-.01-29.59h39.23a14.786 14.786 0 0114.83 14.77z" fill="#06080a"/><path id="Path_18" data-name="Path 18" d="M1051.2 626.2a14.717 14.717 0 01-14.82 14.82h-39.23a14.8 14.8 0 11-.01-29.59h39.23a14.786 14.786 0 0114.83 14.77z" fill="#06080a"/><path id="Path_19" data-name="Path 19" d="M1268.67 584.52v81.7a17.989 17.989 0 01-18.02 17.95h-81.7a17.974 17.974 0 01-17.95-17.95v-81.7a17.987 17.987 0 0117.95-18.01h81.7a18 18 0 0118.02 18.01z" fill="#ccc3b9"/><path id="Path_20" data-name="Path 20" d="M1404.94 584.76v81.7a17.987 17.987 0 01-18.01 17.95h-81.7a17.974 17.974 0 01-17.95-17.95v-81.7a17.987 17.987 0 0117.95-18.01h81.7a17.986 17.986 0 0118.01 18.01z" fill="#ccc3b9"/><path id="Path_21" data-name="Path 21" d="M1268.67 584.52v81.7a17.989 17.989 0 01-18.02 17.95h-40.85V566.51h40.85a18 18 0 0118.02 18.01z" opacity=".15"/><path id="Path_22" data-name="Path 22" d="M1404.97 586v81.7a17.987 17.987 0 01-18.01 17.95h-40.85V567.98h40.85a18 18 0 0118.01 18.02z" opacity=".15"/><path id="Path_23" data-name="Path 23" d="M1254.21 624.1a44.351 44.351 0 01-44.34 44.4h-.06a44.4 44.4 0 010-88.8h.06a44.351 44.351 0 0144.34 44.4z" fill="#ed2a27"/><path id="Path_24" data-name="Path 24" d="M1254.21 624.1a44.351 44.351 0 01-44.34 44.4l1.27-18.25a369.9 369.9 0 00.09-49.83l-1.36-20.72a44.351 44.351 0 0144.34 44.4z" opacity=".15"/><path id="Path_25" data-name="Path 25" d="M1390.51 625.61a44.351 44.351 0 01-44.34 44.4h-.06a44.4 44.4 0 010-88.8h.06a44.351 44.351 0 0144.34 44.4z" fill="#ed2a27"/><path id="Path_26" data-name="Path 26" d="M1390.51 625.61a44.351 44.351 0 01-44.34 44.4l.94-13.44a436.242 436.242 0 00.11-59.52l-1.05-15.84a44.351 44.351 0 0144.34 44.4z" opacity=".15"/><path id="Path_27" data-name="Path 27" d="M746.07 597.76c-.07 12.6-5.12 17.59-17.79 17.93-11.79.27-23.66.67-35.38-.07-8.9-.54-11.05 2.83-10.65 11.12.61 12.2.27 24.4.13 36.6-.2 13.34-6 19.14-19.48 19.48-10.18.27-20.35.07-30.53.07h-2.16c-8.16 0-16.45.07-24.67-.07-16.58-.13-21.37-5.05-21.5-21.97-.07-12.27-.27-24.47.07-36.66.2-6.4-2.29-8.63-8.56-8.42q-20.73.51-41.45.2c-14.29-.27-19.75-5.86-19.88-20.29-.13-19.07-.13-38.21 0-57.29.13-15.1 5.73-20.76 20.49-20.96 13.41-.2 26.89-.34 40.3.07 6.74.2 9.44-1.82 9.17-8.9-.47-13.01-.34-26.08-.07-39.09.2-13.21 5.32-18.27 18.6-18.4 9.17-.07 18.33-.13 27.5-.13 11.19 0 22.38 0 33.5.13 12.87.13 18.47 5.8 18.67 18.67.2 12.2.74 24.47-.2 36.6-.74 9.71 3.03 11.66 11.73 11.12 11.32-.67 22.78-.34 34.17 0 12.27.34 17.86 5.86 18 18 .26 20.74.2 41.5-.01 62.26z" fill="#c8c3b9"/><path id="Path_28" data-name="Path 28" d="M1248.91 693.8c10.72-2.27 13.55 1.75 13.68 12.17.14 11.08-5.74 10.44-13.14 10.87-8.88.51-13.26-1.41-13.11-11.9.15-10.18 3.47-13.58 12.57-11.14z" fill="#d72a2b"/><path id="Path_29" data-name="Path 29" d="M1393.13 693.94c12.64.01 18.15 7.85 13.92 19.7-1.49 4.19-4.13 4.37-6.82 1.62-4.75-4.85-8.88-4.77-13.96-.21-4.05 3.64-6.69 2.45-7.41-3.48-1.61-13.43 1.59-17.64 14.27-17.63z" fill="#e42a29"/><path id="Path_30" data-name="Path 30" d="M633.87 457.99c7.32-.01 14.64-.13 21.96.02 13.6.28 18.88 5.58 19.07 19.44.18 13.01.42 26.04-.12 39.03-.29 7.13 2.27 9 9.02 8.72 11.77-.48 23.58-.28 35.37-.08 14.8.25 19.93 5.25 20.11 19.75.18 15.04.21 30.1-.04 45.14-.21 12.64-5.26 17.72-17.74 17.97-12.6.25-25.23.45-37.81-.07-7.07-.29-9.12 2.16-8.88 9.02.46 13.4.32 26.84.07 40.25-.24 12.67-6.11 18.47-18.86 18.65q-22.56.315-45.14-.01c-13.51-.18-18.78-5.67-18.98-19.58-.16-11.38-.96-22.87.25-34.13 1.34-12.44-3.55-15.23-14.92-14.29-12.12 1-24.38.35-36.58.19-13.93-.19-19.24-5.36-19.4-19.03-.18-15.04-.25-30.1 0-45.14.21-12.71 5.97-18.41 18.88-18.7 13.01-.29 26.07-.73 39.02.13 9.82.65 13.92-1.65 12.94-12.37-1.03-11.29-.28-22.75-.21-34.14.09-16.14 4.7-20.63 21.24-20.77 6.92-.04 13.83.01 20.75 0z" fill="#06080a"/><path id="Path_31" data-name="Path 31" d="M1385.47 704.19c7.91-4.4 7.91-4.4 14.31-.5-4.28 2.6-8.19 1.76-14.31.5z" fill="#633034"/><path id="Path_32" data-name="Path 32" d="M746.07 597.76c-.07 12.6-5.12 17.59-17.79 17.93-11.79.27-23.66.67-35.38-.07-8.9-.54-11.05 2.83-10.65 11.12.61 12.2.27 24.4.13 36.6-.2 13.34-6 19.14-19.48 19.48-10.18.27-20.35.07-30.53.07h-2.16V450.97c11.19 0 22.38 0 33.5.13 12.87.13 18.47 5.8 18.67 18.67.2 12.2.74 24.47-.2 36.6-.74 9.71 3.03 11.66 11.73 11.12 11.32-.67 22.78-.34 34.17 0 12.27.34 17.86 5.86 18 18 .26 20.75.2 41.51-.01 62.27z" opacity=".15"/><path id="Path_33" data-name="Path 33" d="M937.82 626.2A14.717 14.717 0 01923 641.02h-19.61v-29.59H923a14.784 14.784 0 0114.82 14.77z"/><path id="Path_34" data-name="Path 34" d="M1051.2 626.2a14.717 14.717 0 01-14.82 14.82h-19.61v-29.59h19.61a14.784 14.784 0 0114.82 14.77z"/><g id="Group_3" data-name="Group 3" fill="#e30520" fill-rule="evenodd"><path id="Path_35" data-name="Path 35" d="M1179.54 450.3h8.48l11.75 18.99-.01-18.99h8.42v27.24h-8.41l-11.8-18.99v18.99h-8.43z"/><path id="Path_36" data-name="Path 36" d="M1253.97 453.1h8.2v3.67h4.43v2.69h-4.43v18.08h-8.2v-18.08h-4.45v-2.69h4.45z"/><path id="Path_37" data-name="Path 37" d="M1212.87 459.43h8.19v18.11h-8.19z"/><path id="Path_38" data-name="Path 38" d="M1212.85 450.29h8.21v5.57h-8.21z"/><path id="Path_39" data-name="Path 39" d="M1359.72 468.34s-.01 2.73-.01 3.84c0 2.89-1.7 4.08-3.35 4.08s-3.35-1.19-3.35-4.08c0-1.1.01-3.91.01-3.91v-3.78c0-2.88 1.71-4.06 3.34-4.06s3.35 1.18 3.35 4.06c0 1.1 0 3.13.01 3.86v-.01zm-3.29-10.15c-6.61 0-11.97 4.56-11.97 10.18s5.36 10.17 11.97 10.17 11.97-4.56 11.97-10.17c0-5.63-5.35-10.18-11.97-10.18z"/><path id="Path_40" data-name="Path 40" d="M1333.71 450.3h8.09v27.24h-8.1s-.01-.88-.01-1.04a9.853 9.853 0 01-9.43.68 9.676 9.676 0 01-5.6-8.98c0-4.78 4.51-10 10.42-9.49a10.9 10.9 0 014.64 1.62c-.01-4.2-.01-10.03-.01-10.03zm.06 18.09v-3.24c0-2.8-1.93-3.51-3.21-3.51-1.3 0-3.21.71-3.21 3.51v6.45c0 2.8 1.91 3.53 3.21 3.53 1.28 0 3.21-.73 3.21-3.53v-3.21z"/><path id="Path_41" data-name="Path 41" d="M1240.24 458.59c3.06-.09 9.28 1.92 9.23 9.1-.01 1.27 0 9.85 0 9.85h-8.14v-11.9a3.627 3.627 0 00-3.74-3.34 3.779 3.779 0 00-3.89 3.34l.01 11.9h-8.13l-.01-18.11 8.14-.01s-.01 1.46 0 1.9a9.894 9.894 0 016.53-2.73z"/><path id="Path_42" data-name="Path 42" d="M1306.82 458.59c3.06-.09 9.27 1.92 9.23 9.1-.01 1.27-.01 9.85-.01 9.85h-8.14v-11.9a3.627 3.627 0 00-3.74-3.34 3.779 3.779 0 00-3.89 3.34l.01 11.9h-8.13l.01-18.11 8.13-.01s-.01 1.46 0 1.9a9.894 9.894 0 016.53-2.73z"/><path id="Path_43" data-name="Path 43" d="M1274.24 465.74a6.939 6.939 0 01.54-3.56 3.331 3.331 0 012.89-1.65h-.01a3.358 3.358 0 012.88 1.65 6.919 6.919 0 01.54 3.56zm6.8 5.46s.01.08.01 1.1c0 3.32-2.18 4.05-3.38 4.05s-3.43-.74-3.43-4.05c0-.99.01-3.74.01-3.74h15.43c0-5.62-5.42-10.27-12.09-10.27s-12.06 4.56-12.06 10.17 5.4 10.17 12.06 10.17c5.53 0 10.19-3.16 11.62-7.44l-8.17.01z"/><path id="Path_44" data-name="Path 44" d="M1368.97 456.78h-.94v-6.2h2.37c1.46 0 2.19.54 2.19 1.76a1.622 1.622 0 01-1.61 1.71l1.76 2.73h-1.05l-1.64-2.69h-1.08v2.69zm1.13-3.49c.8 0 1.5-.06 1.5-1.01 0-.77-.7-.91-1.35-.91h-1.28v1.92z"/><path id="Path_45" data-name="Path 45" d="M1364.65 453.66a5.445 5.445 0 115.46 5.39 5.369 5.369 0 01-5.46-5.39zm5.46 4.5a4.486 4.486 0 10-4.38-4.5 4.339 4.339 0 004.38 4.5z"/></g></g></svg>