<svg xmlns="http://www.w3.org/2000/svg" width="1168.008" height="765.242"><g id="icon_PLAY" transform="translate(-375.996 -157.378)"><path id="Path_1" data-name="Path 1" d="M715.1 260.56H486.18l7.8-76.45a29.745 29.745 0 0129.58-26.73h154.15a29.73 29.73 0 0129.58 26.73z" fill="#7a7670" stroke="#fff" stroke-miterlimit="10" stroke-width=".005"/><path id="Path_2" data-name="Path 2" d="M715.1 260.56H600.64V157.38h77.07a29.73 29.73 0 0129.58 26.73z" stroke="#fff" stroke-miterlimit="10" stroke-width=".005" opacity=".15"/><path id="Path_3" data-name="Path 3" d="M458.23 919.46a108.06 108.06 0 00130.12-76.57l180.51-288.54-380.91-89.42-9.39 326.28a108.085 108.085 0 0079.67 128.25z" fill="#15151c"/><path id="Path_4" data-name="Path 4" d="M1433.82 260.56H1204.9l7.8-76.45a29.745 29.745 0 0129.58-26.73h154.15a29.715 29.715 0 0129.58 26.73z" fill="#7a7670" stroke="#fff" stroke-miterlimit="10" stroke-width=".005"/><path id="Path_5" data-name="Path 5" d="M1433.82 260.56h-114.45V157.38h77.07a29.715 29.715 0 0129.58 26.73z" stroke="#fff" stroke-miterlimit="10" stroke-width=".005" opacity=".15"/><path id="Rectangle_1" data-name="Rectangle 1" transform="translate(507.34 218.23)" fill="#2e303e" d="M0 0h905.31v368.34H0z"/><path id="Rectangle_2" data-name="Rectangle 2" transform="translate(975.44 218.23)" opacity=".15" d="M0 0h437.22v368.34H0z"/><path id="Path_6" data-name="Path 6" d="M1461.77 919.46a108.06 108.06 0 01-130.12-76.57l-180.51-288.54 380.91-89.42 9.39 326.28a108.085 108.085 0 01-79.67 128.25z" fill="#15151c"/><path id="Path_7" data-name="Path 7" d="M1537.86 414.87a218.455 218.455 0 01-218.52 218.52c-120.67 0-218.47-97.79-218.47-218.52a218.317 218.317 0 01218.46-218.46c120.74-.01 218.53 97.78 218.53 218.46z" fill="#282936"/><path id="Path_8" data-name="Path 8" d="M1517.08 445.11a217.384 217.384 0 01-28.56 108.1 218.066 218.066 0 01-169.18 80.17c-120.67 0-218.47-97.79-218.47-218.52a217.871 217.871 0 0128.56-108.1 218.111 218.111 0 01169.12-80.17c120.69.01 218.53 97.85 218.53 218.52z" opacity=".15"/><path id="Rectangle_3" data-name="Rectangle 3" transform="translate(881 390.14)" fill="#20212b" d="M0 0h53.48v31.69H0z"/><path id="Rectangle_4" data-name="Rectangle 4" transform="translate(951.29 503.59)" fill="#20212b" d="M0 0h48.29v28.62H0z"/><circle id="Ellipse_1" data-name="Ellipse 1" cx="218.51" cy="218.51" r="218.51" transform="translate(382.13 196.38)" fill="#282936"/><path id="Rectangle_5" data-name="Rectangle 5" transform="translate(961.79 550.37)" fill="#ed2a27" d="M0 0h27.29v16.17H0z"/><path id="Path_9" data-name="Path 9" d="M1014.26 428.18v-44.39l58.73 22.2z" fill="#20212b"/><path id="Rectangle_6" data-name="Rectangle 6" transform="rotate(-90 468.882 -3.95)" fill="#2e303e" d="M0 0h86.2v234.8H0z"/><path id="Rectangle_7" data-name="Rectangle 7" transform="rotate(-90 834.821 -370.081)" fill="#2e303e" d="M0 0h86.2v234.8H0z"/><path id="Rectangle_8" data-name="Rectangle 8" transform="translate(1279.2 304.24)" fill="#2e303e" d="M0 0h86.2v234.8H0z"/><path id="Path_10" data-name="Path 10" d="M1355.02 343.02a32.592 32.592 0 11-32.61-32.61 32.542 32.542 0 0132.61 32.61z" fill="#0fab9f"/><circle id="Ellipse_2" data-name="Ellipse 2" cx="32.62" cy="32.62" r="32.62" transform="translate(1369.76 388.83)" fill="#dd082c"/><circle id="Ellipse_3" data-name="Ellipse 3" cx="32.62" cy="32.62" r="32.62" transform="translate(1216.03 389.02)" fill="#a97acb"/><circle id="Ellipse_4" data-name="Ellipse 4" cx="32.62" cy="32.62" r="32.62" transform="translate(1289.8 467.63)" fill="#266eb4"/><path id="Path_11" data-name="Path 11" d="M1350.86 349.18a32.058 32.058 0 01-3.79 15.2 32.6 32.6 0 01-53.55-36.45 32.606 32.606 0 0157.34 21.25z" opacity=".15"/><path id="Path_12" data-name="Path 12" d="M1350.86 506.41a32.058 32.058 0 01-3.79 15.2 32.6 32.6 0 01-53.55-36.45 32.606 32.606 0 0157.34 21.25z" opacity=".15"/><path id="Path_13" data-name="Path 13" d="M1277.11 427.8a32.058 32.058 0 01-3.79 15.2 32.6 32.6 0 01-53.55-36.45 32.606 32.606 0 0157.34 21.25z" opacity=".15"/><circle id="Ellipse_5" data-name="Ellipse 5" cx="110.3" cy="110.3" r="110.3" transform="translate(1040.84 476.28)" fill="#20212b"/><circle id="Ellipse_6" data-name="Ellipse 6" cx="77.5" cy="77.5" r="77.5" transform="translate(1073.64 509.08)" fill="#4f4c48" stroke="#fff" stroke-miterlimit="10" stroke-width=".005"/><path id="Rectangle_9" data-name="Rectangle 9" transform="translate(547.13 304.43)" fill="#2e303e" d="M0 0h86.2v234.8H0z"/><path id="Path_14" data-name="Path 14" d="M617.38 322.33v61.22l-27.98 27.98-27.98-27.98v-61.22z" fill="#15151c"/><path id="Path_15" data-name="Path 15" d="M689.84 395.35h-61.22l-27.98 27.99 27.98 27.97h61.22z" fill="#15151c"/><path id="Path_16" data-name="Path 16" d="M1215.09 602.22a77.039 77.039 0 01-12.73 42.56 77.488 77.488 0 01-116-100.68 77.49 77.49 0 01128.73 58.12z" stroke="#fff" stroke-miterlimit="10" stroke-width=".005" opacity=".15"/><path id="Path_17" data-name="Path 17" d="M798.45 445.13a217.385 217.385 0 01-28.56 108.1 218.066 218.066 0 01-169.18 80.17c-120.67 0-218.47-97.79-218.47-218.52a217.871 217.871 0 0128.56-108.1 218.111 218.111 0 01169.12-80.17c120.69 0 218.53 97.84 218.53 218.52z" opacity=".15"/><path id="Path_18" data-name="Path 18" d="M1430.84 426.26a32.058 32.058 0 01-3.79 15.2 32.6 32.6 0 01-53.55-36.45 32.606 32.606 0 0157.34 21.25z" opacity=".15"/><circle id="Ellipse_7" data-name="Ellipse 7" cx="110.3" cy="110.3" r="110.3" transform="translate(689.43 476.28)" fill="#20212b"/><path id="Path_19" data-name="Path 19" d="M877.25 586.57a77.5 77.5 0 11-77.54-77.48 77.19 77.19 0 0177.54 77.48z" fill="#4f4c48" stroke="#fff" stroke-miterlimit="10" stroke-width=".005"/><g id="Group_1" data-name="Group 1"><path id="Path_20" data-name="Path 20" d="M618.31 519.12l-55.97.15-.18-55.96.24-.24 27.66-27.82 28.06 27.9.17 54z" fill="#15151c"/><path id="Path_21" data-name="Path 21" d="M577.69 423.34l-27.72 27.72-.26.26-61.23-.01.01-55.96h3.91l57.31.01z" fill="#15151c"/><path id="Path_22" data-name="Path 22" d="M577.69 423.34l-27.72 27.72-57.57-55.71 57.31.01z" opacity=".15"/><path id="Path_23" data-name="Path 23" d="M618.29 517.15l-55.89-54.08 27.66-27.82 28.06 27.9z" opacity=".15"/></g><path id="Path_24" data-name="Path 24" d="M863.68 602.19a77.039 77.039 0 01-12.73 42.56 77.488 77.488 0 01-116-100.68 77.49 77.49 0 01128.73 58.12z" stroke="#fff" stroke-miterlimit="10" stroke-width=".005" opacity=".15"/><path id="Path_25" data-name="Path 25" d="M617.38 322.33v61.22l-55.96-61.13.09-.09z" opacity=".15"/><path id="Path_26" data-name="Path 26" d="M689.84 451.31v-55.96h-61.21z" opacity=".15"/></g></svg>