<svg version="1.1" id="Layer_1" xmlns="http://www.w3.org/2000/svg" x="0" y="0" viewBox="0 0 1920 1080" xml:space="preserve"><style>.st5{opacity:.15}.st8{fill:#06080a}.st10{fill:#ed2a27}.st15{fill-rule:evenodd;clip-rule:evenodd;fill:#e30520}</style><g fill="#fff" stroke="#fff" stroke-width=".005" stroke-miterlimit="10"><path d="M1544 323.57V756.5c0 21.77-17.33 39.36-38.84 39.36H414.84c-21.44 0-38.84-17.6-38.84-39.36V323.57c0-21.77 17.4-39.43 38.84-39.43h1090.32c21.51 0 38.84 17.66 38.84 39.43z"/><path d="M1544 323.57V756.5c0 21.77-17.33 39.36-38.84 39.36H960V284.14h545.16c21.51 0 38.84 17.66 38.84 39.43z" opacity=".15"/></g><g stroke="#fff" stroke-width=".005" stroke-miterlimit="10"><path d="M1534.57 330.26v419.55c0 21.1-17.05 38.15-38.21 38.15H423.64c-21.1 0-38.21-17.05-38.21-38.15V330.26c0-21.1 17.12-38.22 38.21-38.22h1072.71c21.17 0 38.22 17.12 38.22 38.22z" fill="#cbc4ba"/><path d="M1534.57 330.26v419.55c0 21.1-17.05 38.15-38.21 38.15H960V292.04h536.36c21.16 0 38.21 17.12 38.21 38.22z" opacity=".15"/></g><path d="M1501.2 397.79v311.38c0 21.1-17.12 38.21-38.21 38.21H457c-21.1 0-38.21-17.12-38.21-38.21V397.79c0-21.1 17.12-38.21 38.21-38.21h1005.99c21.1-.01 38.21 17.11 38.21 38.21z" fill="#2e303e"/><path class="st5" d="M1501.2 397.79v311.38c0 21.1-17.12 38.21-38.21 38.21H960V359.57h502.99c21.1 0 38.21 17.12 38.21 38.22z"/><path d="M1073.22 359.57v35.99c0 6.87-5.53 12.47-12.4 12.47H859.1c-6.81 0-12.33-5.53-12.33-12.4v-36.06h226.45zm0 351.76v36.06H846.77V711.4c0-6.87 5.53-12.47 12.4-12.47h201.72c6.81 0 12.33 5.52 12.33 12.4zm0-272.02v20.89c0 10.58-8.56 19.14-19.07 19.14H865.84c-10.51 0-19.07-8.56-19.07-19.14v-20.89c0-10.51 8.56-19.07 19.07-19.07h188.31c10.52-.01 19.07 8.55 19.07 19.07zm0 74.2v20.89c0 10.51-8.56 19.07-19.07 19.07H865.84c-10.51 0-19.07-8.56-19.07-19.07v-20.89c0-10.58 8.56-19.14 19.07-19.14h188.31c10.52 0 19.07 8.56 19.07 19.14z" fill="#909587"/><path d="M1073.22 588.59v75.22c0 10.58-8.56 19.14-19.07 19.14H865.84c-10.51 0-19.07-8.56-19.07-19.14v-75.22c0-10.51 8.56-19.07 19.07-19.07h188.31c10.52 0 19.07 8.56 19.07 19.07z" fill="#cbc4ba"/><path class="st5" d="M1073.22 359.57v35.99c0 6.87-5.53 12.47-12.4 12.47H960v-48.46h113.22zm0 79.74v20.89c0 10.58-8.56 19.14-19.07 19.14H960v-59.11h94.16c10.51 0 19.06 8.56 19.06 19.08zm0 74.2v20.89c0 10.51-8.56 19.07-19.07 19.07H960v-59.11h94.16c10.51.01 19.06 8.57 19.06 19.15zm0 75.08v75.22c0 10.58-8.56 19.14-19.07 19.14H960V569.52h94.16c10.51 0 19.06 8.56 19.06 19.07zm0 122.74v36.06H960v-48.46h100.9c6.8 0 12.32 5.52 12.32 12.4z"/><path class="st8" d="M937.82 626.2c0 4.11-1.68 7.82-4.31 10.51-2.7 2.63-6.4 4.31-10.51 4.31h-39.23c-8.22 0-14.83-6.61-14.83-14.83 0-4.11 1.68-7.75 4.31-10.45 2.7-2.7 6.4-4.31 10.51-4.31h39.23c8.23.01 14.83 6.62 14.83 14.77zm113.38 0c0 4.11-1.68 7.82-4.31 10.51-2.7 2.63-6.4 4.31-10.51 4.31h-39.23c-8.22 0-14.83-6.61-14.83-14.83 0-4.11 1.68-7.75 4.31-10.45 2.7-2.7 6.4-4.31 10.51-4.31h39.23c8.23.01 14.83 6.62 14.83 14.77z"/><path d="M1268.67 584.52v81.7c0 9.9-8.06 17.95-18.02 17.95h-81.7c-9.9 0-17.95-8.06-17.95-17.95v-81.7c0-9.96 8.06-18.01 17.95-18.01h81.7c9.97 0 18.02 8.05 18.02 18.01zm136.27.24v81.7c0 9.9-8.06 17.95-18.01 17.95h-81.7c-9.9 0-17.95-8.06-17.95-17.95v-81.7c0-9.96 8.06-18.01 17.95-18.01h81.7c9.96-.01 18.01 8.05 18.01 18.01z" fill="#ccc3b9"/><path class="st5" d="M1268.67 584.52v81.7c0 9.9-8.06 17.95-18.02 17.95h-40.85V566.51h40.85c9.97 0 18.02 8.05 18.02 18.01zm136.3 1.48v81.7c0 9.9-8.06 17.95-18.01 17.95h-40.85V567.98h40.85c9.96 0 18.01 8.06 18.01 18.02z"/><path class="st10" d="M1254.21 624.1c0 24.55-19.79 44.34-44.34 44.4h-.06c-24.55 0-44.4-19.85-44.4-44.4s19.85-44.4 44.4-44.4h.06c24.55.06 44.34 19.85 44.34 44.4z"/><path class="st5" d="M1254.21 624.1c0 24.55-19.79 44.34-44.34 44.4l1.27-18.25a369.92 369.92 0 00.09-49.83l-1.36-20.72c24.55.06 44.34 19.85 44.34 44.4z"/><path class="st10" d="M1390.51 625.61c0 24.55-19.79 44.34-44.34 44.4h-.06c-24.55 0-44.4-19.85-44.4-44.4s19.85-44.4 44.4-44.4h.06c24.55.06 44.34 19.85 44.34 44.4z"/><path class="st5" d="M1390.51 625.61c0 24.55-19.79 44.34-44.34 44.4l.94-13.44c1.39-19.81 1.43-39.7.11-59.52l-1.05-15.84c24.55.06 44.34 19.85 44.34 44.4z"/><path d="M746.07 597.76c-.07 12.6-5.12 17.59-17.79 17.93-11.79.27-23.66.67-35.38-.07-8.9-.54-11.05 2.83-10.65 11.12.61 12.2.27 24.4.13 36.6-.2 13.34-6 19.14-19.48 19.48-10.18.27-20.35.07-30.53.07h-2.16c-8.16 0-16.45.07-24.67-.07-16.58-.13-21.37-5.05-21.5-21.97-.07-12.27-.27-24.47.07-36.66.2-6.4-2.29-8.63-8.56-8.42-13.82.34-27.63.4-41.45.2-14.29-.27-19.75-5.86-19.88-20.29-.13-19.07-.13-38.21 0-57.29.13-15.1 5.73-20.76 20.49-20.96 13.41-.2 26.89-.34 40.3.07 6.74.2 9.44-1.82 9.17-8.9-.47-13.01-.34-26.08-.07-39.09.2-13.21 5.32-18.27 18.6-18.4 9.17-.07 18.33-.13 27.5-.13 11.19 0 22.38 0 33.5.13 12.87.13 18.47 5.8 18.67 18.67.2 12.2.74 24.47-.2 36.6-.74 9.71 3.03 11.66 11.73 11.12 11.32-.67 22.78-.34 34.17 0 12.27.34 17.86 5.86 18 18 .26 20.74.2 41.5-.01 62.26z" fill="#c8c3b9"/><path d="M1248.91 693.8c10.72-2.27 13.55 1.75 13.68 12.17.14 11.08-5.74 10.44-13.14 10.87-8.88.51-13.26-1.41-13.11-11.9.15-10.18 3.47-13.58 12.57-11.14z" fill="#d72a2b"/><path d="M1393.13 693.94c12.64.01 18.15 7.85 13.92 19.7-1.49 4.19-4.13 4.37-6.82 1.62-4.75-4.85-8.88-4.77-13.96-.21-4.05 3.64-6.69 2.45-7.41-3.48-1.61-13.43 1.59-17.64 14.27-17.63z" fill="#e42a29"/><path class="st8" d="M633.87 457.99c7.32-.01 14.64-.13 21.96.02 13.6.28 18.88 5.58 19.07 19.44.18 13.01.42 26.04-.12 39.03-.29 7.13 2.27 9 9.02 8.72 11.77-.48 23.58-.28 35.37-.08 14.8.25 19.93 5.25 20.11 19.75.18 15.04.21 30.1-.04 45.14-.21 12.64-5.26 17.72-17.74 17.97-12.6.25-25.23.45-37.81-.07-7.07-.29-9.12 2.16-8.88 9.02.46 13.4.32 26.84.07 40.25-.24 12.67-6.11 18.47-18.86 18.65-15.04.21-30.09.19-45.14-.01-13.51-.18-18.78-5.67-18.98-19.58-.16-11.38-.96-22.87.25-34.13 1.34-12.44-3.55-15.23-14.92-14.29-12.12 1-24.38.35-36.58.19-13.93-.19-19.24-5.36-19.4-19.03-.18-15.04-.25-30.1 0-45.14.21-12.71 5.97-18.41 18.88-18.7 13.01-.29 26.07-.73 39.02.13 9.82.65 13.92-1.65 12.94-12.37-1.03-11.29-.28-22.75-.21-34.14.09-16.14 4.7-20.63 21.24-20.77 6.92-.04 13.83.01 20.75 0z"/><path d="M1385.47 704.19c7.91-4.4 7.91-4.4 14.31-.5-4.28 2.6-8.19 1.76-14.31.5z" fill="#633034"/><path class="st5" d="M746.07 597.76c-.07 12.6-5.12 17.59-17.79 17.93-11.79.27-23.66.67-35.38-.07-8.9-.54-11.05 2.83-10.65 11.12.61 12.2.27 24.4.13 36.6-.2 13.34-6 19.14-19.48 19.48-10.18.27-20.35.07-30.53.07h-2.16V450.97c11.19 0 22.38 0 33.5.13 12.87.13 18.47 5.8 18.67 18.67.2 12.2.74 24.47-.2 36.6-.74 9.71 3.03 11.66 11.73 11.12 11.32-.67 22.78-.34 34.17 0 12.27.34 17.86 5.86 18 18 .26 20.75.2 41.51-.01 62.27z"/><path d="M937.82 626.2c0 4.11-1.68 7.82-4.31 10.51-2.7 2.63-6.4 4.31-10.51 4.31h-19.61v-29.59H923c8.22.01 14.82 6.62 14.82 14.77zm113.38 0c0 4.11-1.68 7.82-4.31 10.51-2.7 2.63-6.4 4.31-10.51 4.31h-19.61v-29.59h19.61c8.22.01 14.82 6.62 14.82 14.77z"/><path class="st15" d="M1179.54 450.3h8.48l11.75 18.99-.01-18.99h8.42v27.24h-8.41l-11.8-18.99v18.99h-8.43V450.3zm74.43 2.8h8.2v3.67h4.43v2.69h-4.43v18.08h-8.2v-18.08h-4.45v-2.69h4.45v-3.67zm-41.1 6.33h8.19v18.11h-8.19v-18.11zm-.02-9.14h8.21v5.57h-8.21v-5.57zm146.87 18.05s-.01 2.73-.01 3.84c0 2.89-1.7 4.08-3.35 4.08-1.64 0-3.35-1.19-3.35-4.08 0-1.1.01-3.91.01-3.91v-3.78c0-2.88 1.71-4.06 3.34-4.06s3.35 1.18 3.35 4.06c0 1.1 0 3.13.01 3.86v-.01zm-3.29-10.15c-6.61 0-11.97 4.56-11.97 10.18 0 5.61 5.36 10.17 11.97 10.17 6.62 0 11.97-4.56 11.97-10.17 0-5.63-5.35-10.18-11.97-10.18zm-22.72-7.89h8.09v27.24h-8.1s-.01-.88-.01-1.04c-3.13 1.97-6.68 1.96-9.43.68-.74-.35-5.6-2.68-5.6-8.98 0-4.78 4.51-10 10.42-9.49 1.94.17 3.33.88 4.64 1.62-.01-4.2-.01-10.03-.01-10.03zm.06 18.09v-3.24c0-2.8-1.93-3.51-3.21-3.51-1.3 0-3.21.71-3.21 3.51v6.45c0 2.8 1.91 3.53 3.21 3.53 1.28 0 3.21-.73 3.21-3.53v-3.21zm-93.53-9.8c3.06-.09 9.28 1.92 9.23 9.1-.01 1.27 0 9.85 0 9.85h-8.14v-11.9c0-1.58-1.51-3.34-3.74-3.34-2.23 0-3.89 1.76-3.89 3.34l.01 11.9h-8.13l-.01-18.11 8.14-.01s-.01 1.46 0 1.9a9.894 9.894 0 016.53-2.73zm66.58 0c3.06-.09 9.27 1.92 9.23 9.1-.01 1.27-.01 9.85-.01 9.85h-8.14v-11.9c0-1.58-1.51-3.34-3.74-3.34s-3.89 1.76-3.89 3.34l.01 11.9h-8.13l.01-18.11 8.13-.01s-.01 1.46 0 1.9a9.894 9.894 0 016.53-2.73zm-32.58 7.15c-.01-1.59.02-2.64.54-3.56.64-1.12 1.82-1.65 2.89-1.65h-.01c1.07.01 2.24.54 2.88 1.65.52.91.55 1.97.54 3.56h-6.84zm6.8 5.46s.01.08.01 1.1c0 3.32-2.18 4.05-3.38 4.05-1.21 0-3.43-.74-3.43-4.05 0-.99.01-3.74.01-3.74h15.43c0-5.62-5.42-10.27-12.09-10.27-6.66 0-12.06 4.56-12.06 10.17 0 5.62 5.4 10.17 12.06 10.17 5.53 0 10.19-3.16 11.62-7.44l-8.17.01zm87.93-14.42h-.94v-6.2h2.37c1.46 0 2.19.54 2.19 1.76 0 1.11-.7 1.59-1.61 1.71l1.76 2.73h-1.05l-1.64-2.69h-1.08v2.69zm1.13-3.49c.8 0 1.5-.06 1.5-1.01 0-.77-.7-.91-1.35-.91h-1.28v1.92h1.13z"/><path class="st15" d="M1364.65 453.66c0-3.09 2.51-5.36 5.46-5.36 2.93 0 5.43 2.28 5.43 5.36 0 3.12-2.5 5.39-5.43 5.39-2.96 0-5.46-2.27-5.46-5.39zm5.46 4.5c2.44 0 4.35-1.91 4.35-4.5 0-2.54-1.91-4.47-4.35-4.47-2.46 0-4.38 1.92-4.38 4.47 0 2.59 1.92 4.5 4.38 4.5z"/></svg>