<svg version="1.1" id="Layer_1" xmlns="http://www.w3.org/2000/svg" x="0" y="0" viewBox="0 0 1920 1080" xml:space="preserve"><style>.st0,.st1{stroke:#fff;stroke-width:5.000000e-03;stroke-miterlimit:10}.st0{fill:#7a7670}.st1{opacity:.15}.st2{fill:#15151c}.st3{fill:#2e303e}.st4{opacity:.15}.st5{fill:#282936}.st6{fill:#20212b}.st12{fill:#4f4c48;stroke:#fff;stroke-width:5.000000e-03;stroke-miterlimit:10}</style><path class="st0" d="M715.1 260.56H486.18l7.8-76.45c1.55-15.18 14.33-26.73 29.58-26.73h154.15c15.25 0 28.04 11.54 29.58 26.73l7.81 76.45z"/><path class="st1" d="M715.1 260.56H600.64V157.38h77.07c15.25 0 28.04 11.54 29.58 26.73l7.81 76.45z"/><path class="st2" d="M458.23 919.46c56.97 14.03 114.72-19.95 130.12-76.57l180.51-288.54-380.91-89.42-9.39 326.28c-12.65 57.29 22.71 114.21 79.67 128.25z"/><path class="st0" d="M1433.82 260.56H1204.9l7.8-76.45c1.55-15.18 14.33-26.73 29.58-26.73h154.15c15.26 0 28.05 11.54 29.58 26.73l7.81 76.45z"/><path class="st1" d="M1433.82 260.56h-114.45V157.38h77.07c15.26 0 28.05 11.54 29.58 26.73l7.8 76.45z"/><path class="st3" d="M507.34 218.23h905.31v368.34H507.34z"/><path class="st4" d="M975.44 218.23h437.22v368.34H975.44z"/><path class="st2" d="M1461.77 919.46c-56.97 14.03-114.72-19.95-130.12-76.57l-180.51-288.54 380.91-89.42 9.39 326.28c12.65 57.29-22.71 114.21-79.67 128.25z"/><path class="st5" d="M1537.86 414.87c0 52.5-18.52 100.68-49.34 138.35-40.03 48.92-100.95 80.17-169.18 80.17-120.67 0-218.47-97.79-218.47-218.52 0-39.35 10.42-76.22 28.56-108.1 37.61-65.91 108.58-110.36 189.9-110.36 120.74-.01 218.53 97.78 218.53 218.46z"/><path class="st4" d="M1517.08 445.11c0 39.3-10.36 76.22-28.56 108.1-40.03 48.92-100.95 80.17-169.18 80.17-120.67 0-218.47-97.79-218.47-218.52 0-39.35 10.42-76.22 28.56-108.1 40.08-48.92 100.95-80.17 169.12-80.17 120.69.01 218.53 97.85 218.53 218.52z"/><path class="st6" d="M881 390.14h53.48v31.69H881zm70.29 113.45h48.29v28.62h-48.29z"/><circle class="st5" cx="600.64" cy="414.89" r="218.51"/><path fill="#ed2a27" d="M961.79 550.37h27.29v16.17h-27.29z"/><path class="st6" d="M1014.26 428.18v-44.39l58.73 22.2z"/><path transform="rotate(-90 590.231 421.83)" class="st3" d="M547.13 304.43h86.2v234.8h-86.2z"/><path transform="rotate(-90 1322.301 421.639)" class="st3" d="M1279.2 304.24h86.2v234.8h-86.2z"/><path class="st3" d="M1279.2 304.24h86.2v234.8h-86.2z"/><path d="M1355.02 343.02c0 8.21-3 15.62-7.94 21.36-6 6.89-14.78 11.26-24.67 11.26-17.99 0-32.61-14.57-32.61-32.61 0-5.47 1.37-10.63 3.73-15.1 5.42-10.42 16.36-17.52 28.88-17.52 18.04 0 32.61 14.62 32.61 32.61z" fill="#0fab9f"/><circle cx="1402.38" cy="421.45" r="32.62" fill="#dd082c"/><circle cx="1248.65" cy="421.64" r="32.62" fill="#a97acb"/><circle cx="1322.42" cy="500.25" r="32.62" fill="#266eb4"/><path class="st4" d="M1350.86 349.18c0 5.52-1.37 10.68-3.79 15.2-6 6.89-14.78 11.26-24.67 11.26-17.99 0-32.61-14.57-32.61-32.61 0-5.47 1.37-10.63 3.73-15.1a32.493 32.493 0 0124.72-11.36c18.05-.01 32.62 14.56 32.62 32.61zm0 157.23c0 5.52-1.37 10.68-3.79 15.2-6 6.89-14.78 11.26-24.67 11.26-17.99 0-32.61-14.57-32.61-32.61 0-5.47 1.37-10.63 3.73-15.1a32.493 32.493 0 0124.72-11.36c18.05-.01 32.62 14.56 32.62 32.61zm-73.75-78.61c0 5.52-1.37 10.68-3.79 15.2-6 6.89-14.78 11.26-24.67 11.26-17.99 0-32.61-14.57-32.61-32.61 0-5.47 1.37-10.63 3.73-15.1a32.493 32.493 0 0124.72-11.36c18.05-.01 32.62 14.56 32.62 32.61z"/><circle class="st6" cx="1151.14" cy="586.58" r="110.3"/><circle class="st12" cx="1151.14" cy="586.58" r="77.5"/><path class="st3" d="M547.13 304.43h86.2v234.8h-86.2z"/><path class="st2" d="M617.38 322.33v61.22l-27.98 27.98-27.98-27.98v-61.22zm72.46 73.02h-61.22l-27.98 27.99 27.98 27.97h61.22z"/><path class="st1" d="M1215.09 602.22c0 15.73-4.68 30.35-12.73 42.56a77.403 77.403 0 01-51.24 19.31c-42.77 0-77.49-34.67-77.49-77.49 0-15.68 4.68-30.3 12.73-42.5 13.68-12.05 31.56-19.36 51.24-19.36 42.77-.01 77.49 34.66 77.49 77.48z"/><path class="st4" d="M798.45 445.13c0 39.3-10.36 76.22-28.56 108.1-40.03 48.92-100.95 80.17-169.18 80.17-120.67 0-218.47-97.79-218.47-218.52 0-39.35 10.42-76.22 28.56-108.1 40.08-48.92 100.95-80.17 169.12-80.17 120.69 0 218.53 97.84 218.53 218.52zm632.39-18.87c0 5.52-1.37 10.68-3.79 15.2-6 6.89-14.78 11.26-24.67 11.26-17.99 0-32.61-14.57-32.61-32.61 0-5.47 1.37-10.63 3.73-15.1a32.493 32.493 0 0124.72-11.36c18.05-.01 32.62 14.57 32.62 32.61z"/><circle class="st6" cx="799.73" cy="586.58" r="110.3"/><path class="st12" d="M877.25 586.57c0 23.2-10.15 43.98-26.3 58.18a77.403 77.403 0 01-51.24 19.31c-42.77 0-77.49-34.67-77.49-77.49 0-15.68 4.68-30.3 12.73-42.5 13.83-21.09 37.66-34.98 64.76-34.98 42.82-.01 77.54 34.66 77.54 77.48z"/><path class="st2" d="M618.31 519.12l-55.97.15-.18-55.96.24-.24 27.66-27.82 28.06 27.9.17 54zm-40.62-95.78l-27.72 27.72-.26.26-61.23-.01.01-55.96h3.91l57.31.01z"/><path class="st4" d="M577.69 423.34l-27.72 27.72-57.57-55.71 57.31.01zm40.6 93.81l-55.89-54.08 27.66-27.82 28.06 27.9z"/><path class="st1" d="M863.68 602.19c0 15.73-4.68 30.35-12.73 42.56a77.403 77.403 0 01-51.24 19.31c-42.77 0-77.49-34.67-77.49-77.49 0-15.68 4.68-30.3 12.73-42.5 13.68-12.05 31.56-19.36 51.24-19.36 42.77-.01 77.49 34.66 77.49 77.48z"/><path class="st4" d="M617.38 322.33v61.22l-55.96-61.13.09-.09zm72.46 128.98v-55.96h-61.21z"/></svg>