<svg xmlns="http://www.w3.org/2000/svg" viewBox="0 0 1880.68 927.45"><defs><style>.cls-1{fill:#06080a}.cls-2{fill:#909587}.cls-3{fill:#6b6b6b}.cls-13,.cls-24,.cls-4,.cls-98{opacity:.15}.cls-5{fill:#7a7670}.cls-105,.cls-16,.cls-5,.cls-98{stroke:#fff}.cls-105,.cls-16,.cls-28,.cls-29,.cls-31,.cls-42,.cls-5,.cls-86,.cls-98{stroke-miterlimit:10}.cls-105,.cls-16,.cls-5,.cls-98{stroke-width:.01px}.cls-6{opacity:.5}.cls-8{fill:#1c2124}.cls-24,.cls-9{fill:#fff}.cls-10{fill:#a97acb}.cls-11,.cls-13{fill:#cbaa7a}.cls-12{fill:#5c542d}.cls-14{fill:#9bcb7a}.cls-15{fill:#355c2d}.cls-16,.cls-86{fill:#cbc4ba}.cls-17{fill:#2e303e}.cls-18{fill:#191c2e}.cls-20{fill:#ed2a27}.cls-21{fill:#4e993d}.cls-28,.cls-31{stroke-width:3px}.cls-25{opacity:.25}.cls-28,.cls-29,.cls-31,.cls-42{fill:none}.cls-28,.cls-29{stroke:#8f3516}.cls-29{stroke-width:4px}.cls-30{fill:#7a9bcb}.cls-31{stroke:#000}.cls-33{fill:#333}.cls-34{fill:#1a1a1a}.cls-35{fill:#2b2a2a}.cls-36{fill:#ed1c24}.cls-38{fill:#e57123}.cls-39{fill:#71756a}.cls-40{fill:#393b35}.cls-41{fill:#2b2b2b}.cls-42{stroke:#2b2b2b}.cls-48{fill:#d3d5d8}.cls-51{fill:#d8dadc}.cls-52{fill:#a8adb3}.cls-53{fill:#8b9199}.cls-62{fill:#9ea3aa}.cls-67{fill:#b1b5bb}.cls-70{fill:#a7acb2}.cls-71{fill:#818790}.cls-73{fill:#949aa1}.cls-79{fill:#545d68}.cls-86{stroke:#4a4844;stroke-width:.25px}.cls-90{fill:#242424}.cls-91,.cls-97{fill:#212121}.cls-92{fill:#141414}.cls-93,.cls-96{fill:#4f4f4f}.cls-96,.cls-97{font-size:5.56px;font-family:MontserratAlternates-Regular,Montserrat Alternates}.cls-97{font-size:4.11px}.cls-99{fill:#15151c}.cls-100{fill:#282936}.cls-101{fill:#20212b}.cls-105{fill:#4f4c48}</style></defs><g id="SCENARIO"><path class="cls-1" d="M908.62 692.23l-.11.27-9.91 23.3a14.24 14.24 0 01-26.21-11.15l5.28-12.42zm111.38 0l.11.27 9.91 23.3a14.24 14.24 0 0026.21-11.15l-5.23-12.42z" transform="translate(-19.66 -155.07)"/><path class="cls-2" d="M1855.07 720H64.93c-25 0-45.27 20.69-45.27 46.21V1042h1880.68V766.2c0-25.52-20.27-46.2-45.27-46.2zM503.16 985.14H219.91V889.8h283.25zm0-113.94H219.91v-95.34h283.25zm886.72 114.94h-870V890.8h870.05zm0-113.94h-870v-95.34h870.05zm310.21 113.64h-283.25V890.5h283.25zm0-113.93h-283.25v-95.34h283.25z" transform="translate(-19.66 -155.07)"/><rect class="cls-3" x="155.8" y="649.26" width="20.57" height="155.34" rx="10.29"/><rect class="cls-3" x="1701.99" y="649.26" width="20.57" height="155.34" rx="10.29"/><path class="cls-3" d="M282.26 1042v23.53a14.34 14.34 0 01-14.33 14.33h-96.57a14.33 14.33 0 01-14.36-14.32V1042z" transform="translate(-19.66 -155.07)"/><path class="cls-4" d="M282.26 1042v23.53a14.34 14.34 0 01-14.33 14.33h-48.29V1042z" transform="translate(-19.66 -155.07)"/><path class="cls-3" d="M1762.45 1042.51v23a14.34 14.34 0 01-14.33 14.33h-96.58a14.34 14.34 0 01-14.33-14.33v-23z" transform="translate(-19.66 -155.07)"/><path class="cls-4" d="M1762.45 1042.51v23a14.34 14.34 0 01-14.33 14.33h-48.29v-37.36z" transform="translate(-19.66 -155.07)"/><path class="cls-5" d="M1300 269.2V611a42.11 42.11 0 01-42.13 42.13H662.12A42.12 42.12 0 01620 611V269.2a42.13 42.13 0 0142.13-42.13h595.77a42.13 42.13 0 0142.1 42.13z" transform="translate(-19.66 -155.07)"/><path class="cls-2" d="M1245.59 653.13a41.58 41.58 0 01-2.47 11.52 42.13 42.13 0 01-39.55 27.58H711.33a42.13 42.13 0 01-39.55-27.58 41.58 41.58 0 01-2.47-11.52z" transform="translate(-19.66 -155.07)"/><path class="cls-6" d="M1263.33 652.78a42.49 42.49 0 01-5.44.35h-12.3a41.58 41.58 0 01-2.47 11.52H671.78a41.58 41.58 0 01-2.47-11.52h-7.2a42.33 42.33 0 01-5.43-.35z" transform="translate(-19.66 -155.07)"/><rect x="623.37" y="87.42" width="633.95" height="395.21" rx="23.1" stroke-width="2" fill="#1c2124" stroke-miterlimit="10" stroke="#fff"/><path class="cls-8" d="M931.06 212.49c-1.18.4-2.34.83-3.49 1.29l-34.8-46.68 2.72-2.24z" transform="translate(-19.66 -155.07)"/><circle class="cls-2" cx="872.12" cy="7.74" r="7.74"/><path class="cls-4" d="M899.52 162.81a7.75 7.75 0 01-7.74 7.74l.06-.22A28.29 28.29 0 00892 156l-.23-.9a7.75 7.75 0 017.75 7.71z" transform="translate(-19.66 -155.07)"/><path class="cls-8" d="M978.48 212.49c1.18.4 2.34.83 3.49 1.29l34.8-46.68-2.72-2.24z" transform="translate(-19.66 -155.07)"/><circle class="cls-2" cx="998.1" cy="7.74" r="7.74"/><path class="cls-4" d="M1025.5 162.81a7.75 7.75 0 01-7.74 7.74l.09-.47a38.64 38.64 0 000-14.54l-.09-.47a7.75 7.75 0 017.74 7.74z" transform="translate(-19.66 -155.07)"/><path class="cls-2" d="M1019.24 227.07H895.83q2-2.15 4.11-4.15c.43-.4.86-.8 1.3-1.19s1.06-.94 1.59-1.4 1.24-1.06 1.87-1.56a84 84 0 0122.29-13c.9-.36 1.82-.7 2.74-1a84.2 84.2 0 0180.64 14q.95.75 1.86 1.56c.53.46 1.07.92 1.59 1.4l1.31 1.19c1.41 1.34 2.79 2.72 4.11 4.15z" transform="translate(-19.66 -155.07)"/><path class="cls-4" d="M1019.24 227.07h-61.7l.36-2.12a68.73 68.73 0 00-.36-24.85 83.69 83.69 0 0152.83 18.67q.95.75 1.86 1.56c.53.46 1.07.92 1.59 1.4l1.31 1.19c1.41 1.34 2.79 2.72 4.11 4.15z" transform="translate(-19.66 -155.07)"/><path class="cls-4" d="M1019.24 227.07H895.83q2-2.15 4.11-4.15c.43-.4.86-.8 1.3-1.19h112.58l1.31 1.19c1.41 1.34 2.79 2.72 4.11 4.15z" transform="translate(-19.66 -155.07)"/><path class="cls-9" d="M246.46 783.9v85.25c-8.52-.69-9.12-1-9.72-1s-1.22.34-9.73 1V783.9c8.51.68 9.12 1 9.73 1s1.2-.32 9.72-1z" transform="translate(-19.66 -155.07)"/><path class="cls-4" d="M246.46 783.9v85.25c-8.52-.69-9.12-1-9.72-1v-83.22c.6 0 1.2-.35 9.72-1.03z" transform="translate(-19.66 -155.07)"/><path class="cls-10" d="M202.36 623.44h2.86a2.13 2.13 0 012.13 2.13v90.56h-7.11v-90.56a2.13 2.13 0 012.12-2.13zm26.64 0h2.76a2.18 2.18 0 012.18 2.18v90.26a.25.25 0 01-.25.25h-6.61a.25.25 0 01-.25-.25v-90.26a2.18 2.18 0 012.17-2.18z"/><path class="cls-9" d="M1563.11 785.34v85.25c-8.52-.69-9.12-1-9.72-1s-1.22.34-9.73 1v-85.25c8.51.68 9.12 1 9.73 1s1.2-.34 9.72-1z" transform="translate(-19.66 -155.07)"/><path class="cls-10" d="M1519 624.88h2.86A2.13 2.13 0 011524 627v90.56h-7.11V627a2.13 2.13 0 012.11-2.12zm26.66 0h2.76a2.18 2.18 0 012.18 2.18v90.26a.25.25 0 01-.25.25h-6.61a.25.25 0 01-.25-.25v-90.26a2.18 2.18 0 012.17-2.18z"/><path class="cls-9" d="M494 783.9v85.25c-8.52-.69-9.12-1-9.72-1-.61 0-1.25.34-9.72 1V783.9c8.47.68 9.11 1 9.72 1 .6.03 1.2-.32 9.72-1z" transform="translate(-19.66 -155.07)"/><path class="cls-4" d="M494 783.9v85.25c-8.52-.69-9.12-1-9.72-1v-83.22c.6 0 1.2-.35 9.72-1.03z" transform="translate(-19.66 -155.07)"/><path class="cls-10" d="M449.9 623.44h2.86a2.13 2.13 0 012.13 2.13v90.56h-7.11v-90.56a2.13 2.13 0 012.12-2.13zm26.65 0h2.76a2.18 2.18 0 012.18 2.18v90.26a.25.25 0 01-.25.25h-6.61a.25.25 0 01-.25-.25v-90.26a2.18 2.18 0 012.17-2.18z"/><path class="cls-9" d="M343.77 783.9v85.25c-7.3-.59-9.7-.93-11.41-1-2.28-.11-3.31.23-13.05 1V783.9c8.52.68 10.38 1 12.23 1h.82c1.71-.08 4.12-.42 11.41-1z" transform="translate(-19.66 -155.07)"/><path class="cls-11" d="M294.67 623.44h2.86a2.13 2.13 0 012.13 2.13v90.56h-7.11v-90.56a2.13 2.13 0 012.12-2.13zm31.65 0h2.76a2.18 2.18 0 012.18 2.18v90.26a.25.25 0 01-.25.25h-6.61a.25.25 0 01-.25-.25v-90.26a2.18 2.18 0 012.17-2.18z"/><path class="cls-4" d="M343.77 783.9v85.25c-7.3-.59-9.7-.93-11.41-1V784.9c1.71-.08 4.12-.42 11.41-1z" transform="translate(-19.66 -155.07)"/><path class="cls-9" d="M224.42 632.72V718c-7.3-.59-9.7-.93-11.41-1-2.28-.11-3.31.23-13 1v-85.28c8.52.68 10.38 1 12.23 1h.82c1.66-.08 4.07-.42 11.36-1z" transform="translate(-19.66 -155.07)"/><path class="cls-11" d="M175.31 472.26h2.86a2.13 2.13 0 012.13 2.13V565h-7.11v-90.61a2.13 2.13 0 012.12-2.13zm31.69 0h2.76a2.18 2.18 0 012.18 2.18v90.26a.25.25 0 01-.25.25H205a.25.25 0 01-.25-.25v-90.26a2.18 2.18 0 012.25-2.18z"/><path class="cls-4" d="M224.42 632.72V718c-7.3-.59-9.7-.93-11.41-1v-83.28c1.71-.08 4.12-.42 11.41-1z" transform="translate(-19.66 -155.07)"/><path class="cls-9" d="M1448.41 785.38v85.25c-7.3-.59-9.7-.93-11.41-1-2.28-.11-3.31.23-13 1v-85.25c8.52.68 10.38 1 12.23 1h.82c1.66-.08 4.07-.38 11.36-1z" transform="translate(-19.66 -155.07)"/><path class="cls-11" d="M1399.31 624.92h2.86a2.13 2.13 0 012.13 2.13v90.56h-7.11V627a2.13 2.13 0 012.12-2.08zm31.69 0h2.76a2.18 2.18 0 012.18 2.18v90.26a.25.25 0 01-.25.25H1429a.25.25 0 01-.25-.25v-90.27a2.18 2.18 0 012.25-2.17z"/><path class="cls-4" d="M1448.41 785.38v85.25c-7.3-.59-9.7-.93-11.41-1v-83.25c1.71-.08 4.12-.38 11.41-1z" transform="translate(-19.66 -155.07)"/><path class="cls-9" d="M404.11 783.58v85.25c-4.6-.59-6.12-.93-7.2-1-1.43-.11-2.08.23-8.23 1v-85.25c5.38.68 6.55 1 7.72 1h.51c1.09-.08 2.6-.42 7.2-1z" transform="translate(-19.66 -155.07)"/><path class="cls-12" d="M366.66 623.12h.23a2.13 2.13 0 012.13 2.13v90.56h-4.49v-90.56a2.13 2.13 0 012.13-2.13zm19.99 0h.14a2.18 2.18 0 012.18 2.18v90.26a.25.25 0 01-.25.25h-4a.25.25 0 01-.25-.25v-90.27a2.18 2.18 0 012.18-2.17z"/><path class="cls-4" d="M404.11 783.58v85.25c-4.6-.59-6.12-.93-7.2-1v-83.25c1.09-.08 2.6-.42 7.2-1z" transform="translate(-19.66 -155.07)"/><path class="cls-9" d="M1532 785.38v85.25c-4.6-.59-6.11-.93-7.19-1-1.44-.11-2.09.23-8.24 1v-85.25c5.38.68 6.55 1 7.72 1h.52c1.12-.08 2.64-.38 7.19-1z" transform="translate(-19.66 -155.07)"/><path class="cls-12" d="M1494.6 624.92h.23A2.13 2.13 0 011497 627v90.56h-4.49V627a2.13 2.13 0 012.09-2.08zm19.98 0h.14a2.18 2.18 0 012.18 2.18v90.26a.25.25 0 01-.25.25h-4a.25.25 0 01-.25-.25v-90.27a2.18 2.18 0 012.18-2.17z"/><path class="cls-4" d="M1532 785.38v85.25c-4.6-.59-6.11-.93-7.19-1v-83.25c1.12-.08 2.64-.38 7.19-1z" transform="translate(-19.66 -155.07)"/><path class="cls-10" d="M1317.89 871.6a.25.25 0 01-.26.25h-13.76a.26.26 0 01-.26-.26v-6.85l-.23-78.74v-4.67a2.19 2.19 0 012.18-2.19h9.93a2.19 2.19 0 012.19 2.18V786l.24 78.74z" transform="translate(-19.66 -155.07)"/><path class="cls-4" d="M1317.89 871.6a.25.25 0 01-.26.25h-7v-92.68h4.83a2.19 2.19 0 012.19 2.18V786l.24 78.74z" transform="translate(-19.66 -155.07)"/><path class="cls-10" d="M1553.65 986a.25.25 0 01-.26.25h-13.76a.26.26 0 01-.26-.26v-6.85l-.23-78.74v-4.67a2.19 2.19 0 012.18-2.19h9.93a2.19 2.19 0 012.19 2.18v4.67l.24 78.74z" transform="translate(-19.66 -155.07)"/><path class="cls-4" d="M1553.65 986a.25.25 0 01-.26.25h-7v-92.7h4.83a2.19 2.19 0 012.19 2.18v4.67l.24 78.74z" transform="translate(-19.66 -155.07)"/><path class="cls-10" d="M358.33 719.69a.25.25 0 01-.26.25h-13.76a.26.26 0 01-.26-.26v-6.85l-.23-78.74v-4.67a2.19 2.19 0 012.18-2.19h9.93a2.19 2.19 0 012.19 2.18v4.67l.24 78.74z" transform="translate(-19.66 -155.07)"/><path class="cls-4" d="M358.33 719.69a.25.25 0 01-.26.25h-7v-92.68h4.83a2.19 2.19 0 012.19 2.18v4.67l.24 78.74z" transform="translate(-19.66 -155.07)"/><path class="cls-13" d="M406.13 635.65l-14.02 2.77-1.32-6.69-.53-2.64 14.03-2.77.52 2.65 1.32 6.68z"/><path class="cls-13" d="M440.82 868.32L427.3 871a.26.26 0 01-.31-.2l-1.32-6.72-.42-2.16 14-2.77.42 2.17L441 868a.26.26 0 01-.18.32z" transform="translate(-19.66 -155.07)"/><path class="cls-14" d="M248.53 895.41l-.69 4.62-11.63 77.89-1 6.77a.25.25 0 01-.29.21l-13.63-2a.27.27 0 01-.22-.3l1-6.77 11.63-77.88.69-4.62a2.19 2.19 0 012.48-1.84l9.83 1.47a2.18 2.18 0 011.83 2.45z" transform="translate(-19.66 -155.07)"/><path class="cls-4" d="M248.53 895.41l-.69 4.62-14.14-2.11.69-4.62a2.19 2.19 0 012.48-1.84l9.83 1.47a2.18 2.18 0 011.83 2.48zm-12.32 82.51l-1 6.77a.25.25 0 01-.29.21l-13.63-2a.27.27 0 01-.22-.3l1-6.77z" transform="translate(-19.66 -155.07)"/><path class="cls-14" d="M385.8 630.48l-.7 4.62-11.62 77.9-1 6.78a.26.26 0 01-.29.21l-13.64-2a.26.26 0 01-.21-.29l1-6.77L371 633l.7-4.62a2.19 2.19 0 012.48-1.84L384 628a2.19 2.19 0 011.8 2.48z" transform="translate(-19.66 -155.07)"/><path class="cls-4" d="M385.8 630.48l-.7 4.62L371 633l.7-4.62a2.19 2.19 0 012.48-1.84L384 628a2.19 2.19 0 011.8 2.48zM373.48 713l-1 6.78a.26.26 0 01-.29.21l-13.64-2a.26.26 0 01-.21-.29l1-6.77z" transform="translate(-19.66 -155.07)"/><path class="cls-10" d="M384.07 782.89v88.31h-32.15v-88.31c0-3 1.61-5.41 3.6-5.41h25c1.93 0 3.55 2.42 3.55 5.41z" transform="translate(-19.66 -155.07)"/><path class="cls-4" d="M332.26 631.38h32.15v15.03h-32.15zm0 66.2h32.15v15.03h-32.15z"/><path class="cls-4" d="M384.07 782.89v88.31H368v-93.72h12.48c1.97 0 3.59 2.42 3.59 5.41z" transform="translate(-19.66 -155.07)"/><path class="cls-10" d="M263.71 631.68V720h-32.15v-88.32c0-3 1.61-5.41 3.6-5.41h25c1.93 0 3.55 2.42 3.55 5.41z" transform="translate(-19.66 -155.07)"/><path class="cls-4" d="M211.9 480.17h32.15v15.03H211.9zm0 66.2h32.15v15.03H211.9z"/><path class="cls-4" d="M263.71 631.68V720h-16.08v-93.73h12.48c1.98 0 3.6 2.42 3.6 5.41z" transform="translate(-19.66 -155.07)"/><path class="cls-10" d="M1487.87 784.37v88.31h-32.15v-88.31c0-3 1.61-5.41 3.6-5.41h25c1.93.04 3.55 2.42 3.55 5.41z" transform="translate(-19.66 -155.07)"/><path class="cls-4" d="M1436.06 632.86h32.15v15.03h-32.15zm0 66.2h32.15v15.03h-32.15z"/><path class="cls-4" d="M1487.87 784.37v88.31h-16.08V779h12.48c1.98 0 3.6 2.38 3.6 5.37z" transform="translate(-19.66 -155.07)"/><path class="cls-15" d="M466 782.89v88.31h-24.1v-88.31c0-3 1.21-5.41 2.7-5.41h18.71c1.49 0 2.69 2.42 2.69 5.41z" transform="translate(-19.66 -155.07)"/><path class="cls-4" d="M422.24 702.93h24.11v13.2h-24.11zm0-64.04h24.11v13.21h-24.11z"/><path class="cls-4" d="M466 782.89v88.31h-12v-93.72h9.35c1.45 0 2.65 2.42 2.65 5.41z" transform="translate(-19.66 -155.07)"/><path class="cls-15" d="M287.81 631.68V720H263.7v-88.32c0-3 1.21-5.41 2.7-5.41h18.71c1.49 0 2.7 2.42 2.7 5.41z" transform="translate(-19.66 -155.07)"/><path class="cls-4" d="M244.04 551.72h24.11v13.2h-24.11zm0-64.04h24.11v13.21h-24.11z"/><path class="cls-4" d="M287.81 631.68V720h-12.05v-93.73h9.35c1.49 0 2.7 2.42 2.7 5.41z" transform="translate(-19.66 -155.07)"/><path class="cls-15" d="M1512.13 784.37v88.31H1488v-88.31c0-3 1.21-5.41 2.7-5.41h18.71c1.51.04 2.72 2.42 2.72 5.41z" transform="translate(-19.66 -155.07)"/><path class="cls-4" d="M1468.36 704.41h24.11v13.2h-24.11zm0-64.04h24.11v13.21h-24.11z"/><path class="cls-4" d="M1512.13 784.37v88.31h-12.05V779h9.35c1.49 0 2.7 2.38 2.7 5.37z" transform="translate(-19.66 -155.07)"/><path class="cls-9" d="M1629.35 898.92v85.25c-8.52-.69-9.12-1-9.72-1s-1.22.34-9.73 1v-85.25c8.51.68 9.12 1 9.73 1s1.2-.32 9.72-1z" transform="translate(-19.66 -155.07)"/><path class="cls-10" d="M1585.25 738.46h2.86a2.13 2.13 0 012.13 2.13v90.56h-7.11v-90.56a2.13 2.13 0 012.12-2.13zm26.65 0h2.76a2.18 2.18 0 012.18 2.18v90.26a.25.25 0 01-.25.25H1610a.25.25 0 01-.25-.25v-90.26a2.18 2.18 0 012.15-2.18z"/><path class="cls-9" d="M1598.28 899v85.25c-4.6-.59-6.11-.93-7.19-1-1.44-.11-2.09.23-8.24 1V899c5.38.68 6.55 1 7.72 1h.52c1.08-.12 2.6-.46 7.19-1z" transform="translate(-19.66 -155.07)"/><path class="cls-12" d="M1560.84 738.5h.23a2.13 2.13 0 012.13 2.13v90.56h-4.49v-90.56a2.13 2.13 0 012.13-2.13zm19.98 0h.14a2.18 2.18 0 012.18 2.18v90.26a.25.25 0 01-.25.25h-4a.25.25 0 01-.25-.25v-90.26a2.18 2.18 0 012.18-2.18z"/><path class="cls-4" d="M1598.28 899v85.25c-4.6-.59-6.11-.93-7.19-1V900c1.08-.12 2.6-.46 7.19-1z" transform="translate(-19.66 -155.07)"/><path class="cls-15" d="M1578.37 898v88.31h-24.11V898c0-3 1.21-5.41 2.7-5.41h18.71c1.49-.05 2.7 2.41 2.7 5.41z" transform="translate(-19.66 -155.07)"/><path class="cls-4" d="M1534.6 817.99h24.11v13.2h-24.11zm0-64.04h24.11v13.21h-24.11z"/><path class="cls-4" d="M1578.37 898v88.31h-12v-93.77h9.35c1.44 0 2.65 2.46 2.65 5.46z" transform="translate(-19.66 -155.07)"/><path class="cls-9" d="M1111.32 785.34v85.25c-8.52-.69-9.12-1-9.72-1s-1.22.34-9.73 1v-85.25c8.51.68 9.12 1 9.73 1s1.2-.34 9.72-1z" transform="translate(-19.66 -155.07)"/><path class="cls-10" d="M1067.22 624.88h2.86a2.13 2.13 0 012.13 2.13v90.56h-7.11V627a2.13 2.13 0 012.12-2.12zm26.65 0h2.76a2.18 2.18 0 012.18 2.18v90.26a.25.25 0 01-.25.25h-6.61a.25.25 0 01-.25-.25v-90.26a2.18 2.18 0 012.17-2.18z"/><path class="cls-9" d="M989 899.08v85.25c-7.3-.59-9.7-.93-11.41-1-2.28-.11-3.31.23-13 1v-85.25c8.52.68 10.38 1 12.23 1h.82c1.63-.08 4.04-.42 11.36-1z" transform="translate(-19.66 -155.07)"/><path class="cls-11" d="M939.87 738.63h2.86a2.13 2.13 0 012.13 2.13v90.56h-7.11v-90.57a2.13 2.13 0 012.12-2.12zm31.65 0h2.76a2.18 2.18 0 012.18 2.18v90.26a.25.25 0 01-.25.25h-6.61a.25.25 0 01-.25-.25V740.8a2.18 2.18 0 012.17-2.17z"/><path class="cls-4" d="M989 899.08v85.25c-7.3-.59-9.7-.93-11.41-1v-83.25c1.68-.08 4.09-.42 11.41-1z" transform="translate(-19.66 -155.07)"/><path class="cls-9" d="M1072.61 899.08v85.25c-4.61-.59-6.12-.93-7.2-1-1.44-.11-2.09.23-8.23 1v-85.25c5.37.68 6.55 1 7.71 1h.52c1.08-.08 2.59-.42 7.2-1z" transform="translate(-19.66 -155.07)"/><path class="cls-12" d="M1035.16 738.63h.23a2.13 2.13 0 012.13 2.13v90.56H1033v-90.57a2.13 2.13 0 012.16-2.12zm19.98 0h.14a2.18 2.18 0 012.18 2.18v90.26a.25.25 0 01-.25.25h-4a.25.25 0 01-.25-.25V740.8a2.18 2.18 0 012.18-2.17z"/><path class="cls-4" d="M1072.61 899.08v85.25c-4.61-.59-6.12-.93-7.2-1v-83.25c1.08-.08 2.59-.42 7.2-1z" transform="translate(-19.66 -155.07)"/><path class="cls-10" d="M1028.43 898.08v88.31h-32.15v-88.31c0-3 1.61-5.41 3.6-5.41h24.95c1.98 0 3.6 2.42 3.6 5.41z" transform="translate(-19.66 -155.07)"/><path class="cls-4" d="M976.62 746.57h32.15v15.03h-32.15zm0 66.2h32.15v15.03h-32.15z"/><path class="cls-4" d="M1028.43 898.08v88.31h-16.08v-93.72h12.48c1.98 0 3.6 2.42 3.6 5.41z" transform="translate(-19.66 -155.07)"/><path class="cls-15" d="M1052.69 898.08v88.31h-24.11v-88.31c0-3 1.21-5.41 2.7-5.41H1050c1.48 0 2.69 2.42 2.69 5.41z" transform="translate(-19.66 -155.07)"/><path class="cls-4" d="M1008.92 818.12h24.11v13.2h-24.11zm0-64.04h24.11v13.21h-24.11z"/><path class="cls-4" d="M1052.69 898.08v88.31h-12v-93.72h9.31c1.48 0 2.69 2.42 2.69 5.41z" transform="translate(-19.66 -155.07)"/><path class="cls-9" d="M943.34 898v85.25c-8.52-.69-9.12-1-9.72-1s-1.22.34-9.73 1V898c8.51.68 9.12 1 9.73 1s1.2-.33 9.72-1z" transform="translate(-19.66 -155.07)"/><path class="cls-10" d="M898.75 738.11h2.86a2.13 2.13 0 012.13 2.13v90.56h-7.11v-90.56a2.13 2.13 0 012.12-2.13zm27.14-.58h2.76a2.18 2.18 0 012.18 2.18V830a.25.25 0 01-.25.25H924a.25.25 0 01-.25-.25v-90.29a2.18 2.18 0 012.14-2.18z"/><path class="cls-9" d="M838.15 784.61v85.25c-7.3-.59-9.7-.93-11.41-1-2.28-.11-3.31.23-13 1v-85.25c8.52.68 10.38 1 12.23 1h.82c1.66-.08 4.07-.42 11.36-1z" transform="translate(-19.66 -155.07)"/><path class="cls-11" d="M789.05 624.15h2.86a2.13 2.13 0 012.13 2.13v90.56h-7.11v-90.56a2.13 2.13 0 012.12-2.13zm31.65 0h2.76a2.18 2.18 0 012.18 2.18v90.26a.25.25 0 01-.25.25h-6.61a.25.25 0 01-.25-.25v-90.27a2.18 2.18 0 012.17-2.17z"/><path class="cls-4" d="M838.15 784.61v85.25c-7.3-.59-9.7-.93-11.41-1v-83.25c1.71-.08 4.12-.42 11.41-1z" transform="translate(-19.66 -155.07)"/><path class="cls-9" d="M912.28 898v85.25c-4.61-.59-6.12-.93-7.2-1-1.44-.11-2.09.23-8.23 1V898c5.37.68 6.54 1 7.71 1h.52c1.08-.06 2.6-.4 7.2-1z" transform="translate(-19.66 -155.07)"/><path class="cls-12" d="M874.83 737.57h.23a2.13 2.13 0 012.13 2.13v90.56h-4.49v-90.57a2.13 2.13 0 012.13-2.12zm19.98 0h.14a2.18 2.18 0 012.18 2.18V830a.25.25 0 01-.25.25h-4a.25.25 0 01-.25-.25v-90.26a2.18 2.18 0 012.18-2.17z"/><path class="cls-4" d="M912.28 898v85.25c-4.61-.59-6.12-.93-7.2-1V899c1.08-.06 2.6-.4 7.2-1z" transform="translate(-19.66 -155.07)"/><path class="cls-10" d="M868.1 897v88.31H836V897c0-3 1.61-5.41 3.6-5.41h25c1.88.02 3.5 2.41 3.5 5.41z" transform="translate(-19.66 -155.07)"/><path class="cls-4" d="M816.29 745.51h32.15v15.03h-32.15zm0 66.2h32.15v15.03h-32.15z"/><path class="cls-4" d="M868.1 897v88.31H852v-93.7h12.5c1.98 0 3.6 2.39 3.6 5.39z" transform="translate(-19.66 -155.07)"/><path class="cls-15" d="M892.36 897v88.31h-24.11V897c0-3 1.21-5.41 2.7-5.41h18.71c1.49.02 2.7 2.41 2.7 5.41z" transform="translate(-19.66 -155.07)"/><path class="cls-4" d="M848.59 817.06h24.11v13.2h-24.11zm0-64.04h24.11v13.21h-24.11z"/><path class="cls-4" d="M892.36 897v88.31h-12.05v-93.7h9.35c1.49 0 2.7 2.39 2.7 5.39z" transform="translate(-19.66 -155.07)"/><path class="cls-9" d="M797.1 785.08v85.25c-8.52-.69-9.12-1-9.72-1s-1.22.34-9.73 1v-85.25c8.51.68 9.12 1 9.73 1s1.2-.32 9.72-1z" transform="translate(-19.66 -155.07)"/><path class="cls-10" d="M753 624.63h2.86a2.13 2.13 0 012.13 2.13v90.56h-7.11v-90.57a2.13 2.13 0 012.12-2.12zm26.66 0h2.76a2.18 2.18 0 012.18 2.18v90.26a.25.25 0 01-.25.25h-6.61a.25.25 0 01-.25-.25V626.8a2.18 2.18 0 012.17-2.17z"/><path class="cls-9" d="M682.41 785.12v85.25c-7.3-.59-9.7-.93-11.41-1-2.28-.11-3.31.23-13 1v-85.25c8.52.68 10.38 1 12.23 1h.82c1.66-.12 4.07-.42 11.36-1z" transform="translate(-19.66 -155.07)"/><path class="cls-11" d="M633.31 624.66h2.86a2.13 2.13 0 012.13 2.13v90.56h-7.11v-90.56a2.13 2.13 0 012.12-2.13zm31.69 0h2.76a2.18 2.18 0 012.18 2.18v90.26a.25.25 0 01-.25.25H663a.25.25 0 01-.25-.25v-90.26a2.18 2.18 0 012.25-2.18z"/><path class="cls-4" d="M682.41 785.12v85.25c-7.3-.59-9.7-.93-11.41-1v-83.25c1.71-.12 4.12-.42 11.41-1z" transform="translate(-19.66 -155.07)"/><path class="cls-9" d="M766 785.12v85.25c-4.6-.59-6.12-.93-7.19-1-1.44-.11-2.09.23-8.24 1v-85.25c5.38.68 6.55 1 7.72 1h.52c1.11-.12 2.63-.42 7.19-1z" transform="translate(-19.66 -155.07)"/><path class="cls-12" d="M728.6 624.66h.23a2.13 2.13 0 012.13 2.13v90.56h-4.49v-90.56a2.13 2.13 0 012.13-2.13zm19.98 0h.14a2.18 2.18 0 012.18 2.18v90.26a.25.25 0 01-.25.25h-4a.25.25 0 01-.25-.25v-90.26a2.18 2.18 0 012.18-2.18z"/><path class="cls-4" d="M766 785.12v85.25c-4.6-.59-6.12-.93-7.19-1v-83.25c1.11-.12 2.63-.42 7.19-1z" transform="translate(-19.66 -155.07)"/><path class="cls-9" d="M307.73 632.72V718c-4.61-.59-6.12-.93-7.2-1-1.44-.11-2.09.23-8.23 1v-85.28c5.37.68 6.55 1 7.71 1h.52c1.08-.08 2.6-.42 7.2-1z" transform="translate(-19.66 -155.07)"/><path class="cls-12" d="M270.28 472.26h.23a2.13 2.13 0 012.13 2.13V565h-4.49v-90.61a2.13 2.13 0 012.13-2.13zm19.99 0h.14a2.18 2.18 0 012.18 2.18v90.26a.25.25 0 01-.25.25h-4a.25.25 0 01-.25-.25v-90.26a2.18 2.18 0 012.18-2.18z"/><path class="cls-4" d="M307.73 632.72V718c-4.61-.59-6.12-.93-7.2-1v-83.28c1.08-.08 2.6-.42 7.2-1z" transform="translate(-19.66 -155.07)"/><path class="cls-9" d="M1640.14 784.86v85.25c-4.6-.59-6.12-.93-7.2-1-1.44-.11-2.08.23-8.23 1v-85.25c5.38.68 6.55 1 7.72 1h.51c1.06-.08 2.6-.42 7.2-1z" transform="translate(-19.66 -155.07)"/><path class="cls-12" d="M1602.69 624.4h.23a2.13 2.13 0 012.13 2.13v90.56h-4.49v-90.56a2.13 2.13 0 012.13-2.13zm19.99 0h.14a2.18 2.18 0 012.18 2.18v90.26a.25.25 0 01-.25.25h-4a.25.25 0 01-.25-.25v-90.26a2.18 2.18 0 012.18-2.18z"/><path class="cls-4" d="M1640.14 784.86v85.25c-4.6-.59-6.12-.93-7.2-1v-83.25c1.06-.08 2.6-.42 7.2-1z" transform="translate(-19.66 -155.07)"/><path class="cls-10" d="M721.87 784.11v88.31h-32.15v-88.31c0-3 1.61-5.41 3.6-5.41h24.95c1.98 0 3.6 2.42 3.6 5.41z" transform="translate(-19.66 -155.07)"/><path class="cls-4" d="M670.06 632.6h32.15v15.03h-32.15zm0 66.2h32.15v15.03h-32.15z"/><path class="cls-4" d="M721.87 784.11v88.31h-16.08V778.7h12.48c1.98 0 3.6 2.42 3.6 5.41z" transform="translate(-19.66 -155.07)"/><path class="cls-15" d="M746.13 784.11v88.31H722v-88.31c0-3 1.21-5.41 2.7-5.41h18.71c1.51 0 2.72 2.42 2.72 5.41z" transform="translate(-19.66 -155.07)"/><path class="cls-4" d="M702.36 704.15h24.11v13.2h-24.11zm0-64.04h24.11v13.21h-24.11z"/><path class="cls-4" d="M746.13 784.11v88.31h-12V778.7h9.35c1.44 0 2.65 2.42 2.65 5.41z" transform="translate(-19.66 -155.07)"/><path class="cls-9" d="M1264.73 785.6v85.25c-8.52-.69-9.12-1-9.72-1s-1.22.34-9.73 1V785.6c8.51.68 9.12 1 9.73 1s1.2-.32 9.72-1z" transform="translate(-19.66 -155.07)"/><path class="cls-10" d="M1220.63 625.14h2.86a2.13 2.13 0 012.13 2.13v90.56h-7.11v-90.56a2.13 2.13 0 012.12-2.13zm26.65 0h2.72a2.18 2.18 0 012.18 2.18v90.26a.25.25 0 01-.25.25h-6.61a.25.25 0 01-.25-.25v-90.26a2.18 2.18 0 012.21-2.18z"/><path class="cls-9" d="M1150 785.63v85.25c-7.3-.59-9.7-.93-11.41-1-2.28-.11-3.31.23-13.05 1v-85.25c8.52.68 10.38 1 12.23 1h.82c1.75-.08 4.16-.42 11.41-1z" transform="translate(-19.66 -155.07)"/><path class="cls-11" d="M1100.93 625.18h2.86a2.13 2.13 0 012.13 2.13v90.56h-7.11V627.3a2.13 2.13 0 012.12-2.12zm31.65 0h2.76a2.18 2.18 0 012.18 2.18v90.26a.25.25 0 01-.25.25h-6.61a.25.25 0 01-.25-.25v-90.27a2.18 2.18 0 012.17-2.17z"/><path class="cls-4" d="M1150 785.63v85.25c-7.3-.59-9.7-.93-11.41-1v-83.25c1.75-.08 4.16-.42 11.41-1z" transform="translate(-19.66 -155.07)"/><path class="cls-9" d="M416.93 632.65v85.25c-7.3-.59-9.7-.93-11.41-1-2.28-.11-3.31.23-13 1v-85.25c8.52.68 10.38 1 12.23 1h.82c1.66-.08 4.07-.42 11.36-1z" transform="translate(-19.66 -155.07)"/><path class="cls-11" d="M367.83 472.19h2.86a2.13 2.13 0 012.13 2.13v90.56h-7.12v-90.56a2.13 2.13 0 012.13-2.13zm31.65 0h2.76a2.18 2.18 0 012.18 2.18v90.26a.25.25 0 01-.25.25h-6.61a.25.25 0 01-.25-.25v-90.26a2.18 2.18 0 012.18-2.18z"/><path class="cls-4" d="M416.93 632.65v85.25c-7.3-.59-9.7-.93-11.41-1v-83.25c1.71-.08 4.12-.42 11.41-1z" transform="translate(-19.66 -155.07)"/><path class="cls-9" d="M1233.67 785.63v85.25c-4.6-.59-6.12-.93-7.2-1-1.44-.11-2.09.23-8.23 1v-85.25c5.37.68 6.55 1 7.72 1h.51c1.08-.08 2.6-.42 7.2-1z" transform="translate(-19.66 -155.07)"/><path class="cls-12" d="M1196.22 625.18h.23a2.13 2.13 0 012.13 2.13v90.56h-4.49V627.3a2.13 2.13 0 012.13-2.12zm19.99 0h.14a2.18 2.18 0 012.18 2.18v90.26a.25.25 0 01-.25.25h-4a.25.25 0 01-.25-.25v-90.27a2.18 2.18 0 012.18-2.17z"/><path class="cls-4" d="M1233.67 785.63v85.25c-4.6-.59-6.12-.93-7.2-1v-83.25c1.08-.08 2.6-.42 7.2-1z" transform="translate(-19.66 -155.07)"/><path class="cls-10" d="M1189.5 784.63v88.31h-32.15v-88.31c0-3 1.61-5.41 3.6-5.41h25c1.93 0 3.55 2.42 3.55 5.41z" transform="translate(-19.66 -155.07)"/><path class="cls-4" d="M1137.69 633.12h32.15v15.03h-32.15zm0 66.2h32.15v15.03h-32.15z"/><path class="cls-4" d="M1189.5 784.63v88.31h-16.08v-93.72h12.48c1.98 0 3.6 2.42 3.6 5.41z" transform="translate(-19.66 -155.07)"/><path class="cls-9" d="M1350.5 785.12v85.25c-7.3-.59-9.7-.93-11.41-1-2.28-.11-3.31.23-13 1v-85.25c8.52.68 10.38 1 12.23 1h.82c1.66-.12 4.07-.42 11.36-1z" transform="translate(-19.66 -155.07)"/><path class="cls-11" d="M1301.39 624.66h2.86a2.13 2.13 0 012.13 2.13v90.56h-7.11v-90.56a2.13 2.13 0 012.12-2.13zm31.61 0h2.76a2.18 2.18 0 012.18 2.18v90.26a.25.25 0 01-.25.25h-6.61a.25.25 0 01-.25-.25v-90.26a2.18 2.18 0 012.17-2.18z"/><path class="cls-4" d="M1350.5 785.12v85.25c-7.3-.59-9.7-.93-11.41-1v-83.25c1.71-.12 4.12-.42 11.41-1z" transform="translate(-19.66 -155.07)"/><path class="cls-10" d="M1390 784.11v88.31h-32.15v-88.31c0-3 1.61-5.41 3.6-5.41h24.95c1.94 0 3.6 2.42 3.6 5.41z" transform="translate(-19.66 -155.07)"/><path class="cls-4" d="M1338.15 632.6h32.15v15.03h-32.15zm0 66.2h32.15v15.03h-32.15z"/><path class="cls-4" d="M1390 784.11v88.31h-16.08V778.7h12.48c1.94 0 3.6 2.42 3.6 5.41z" transform="translate(-19.66 -155.07)"/><path class="cls-15" d="M1213.75 784.63v88.31h-24.11v-88.31c0-3 1.21-5.41 2.7-5.41h18.71c1.49 0 2.7 2.42 2.7 5.41z" transform="translate(-19.66 -155.07)"/><path class="cls-4" d="M1169.98 704.67h24.11v13.2h-24.11zm0-64.04h24.11v13.21h-24.11z"/><path class="cls-4" d="M1213.75 784.63v88.31h-12v-93.72h9.35c1.44 0 2.65 2.42 2.65 5.41z" transform="translate(-19.66 -155.07)"/><path class="cls-9" d="M547.9 898.16v85.25c-8.52-.69-9.12-1-9.72-1s-1.22.34-9.73 1v-85.25c8.51.68 9.12 1 9.73 1s1.2-.32 9.72-1z" transform="translate(-19.66 -155.07)"/><path class="cls-10" d="M503.8 737.7h2.86a2.13 2.13 0 012.13 2.13v90.56h-7.11v-90.56a2.13 2.13 0 012.13-2.13zm26.65 0h2.76a2.18 2.18 0 012.18 2.18v90.26a.25.25 0 01-.25.25h-6.61a.25.25 0 01-.25-.25v-90.26a2.18 2.18 0 012.17-2.18z"/><path class="cls-9" d="M586.62 898.45v85.25c-7.3-.59-9.7-.93-11.41-1-2.28-.11-3.31.23-13.05 1v-85.25c8.52.68 10.38 1 12.23 1h.82c1.71-.08 4.12-.45 11.41-1z" transform="translate(-19.66 -155.07)"/><path class="cls-11" d="M537.52 738h2.86a2.13 2.13 0 012.13 2.13v90.56h-7.11v-90.57a2.13 2.13 0 012.12-2.12zm31.65 0h2.76a2.18 2.18 0 012.18 2.18v90.26a.25.25 0 01-.25.25h-6.61a.25.25 0 01-.25-.25v-90.27a2.18 2.18 0 012.17-2.17z"/><path class="cls-4" d="M586.62 898.45v85.25c-7.3-.59-9.7-.93-11.41-1v-83.25c1.71-.08 4.12-.45 11.41-1z" transform="translate(-19.66 -155.07)"/><path class="cls-9" d="M670.25 898.45v85.25c-4.6-.59-6.12-.93-7.19-1-1.44-.11-2.09.23-8.24 1v-85.25c5.38.68 6.55 1 7.72 1h.52c1.07-.08 2.59-.45 7.19-1z" transform="translate(-19.66 -155.07)"/><path class="cls-12" d="M632.81 738h.19a2.13 2.13 0 012.13 2.13v90.56h-4.49v-90.57a2.13 2.13 0 012.17-2.12zm19.98 0h.14a2.18 2.18 0 012.18 2.18v90.26a.25.25 0 01-.25.25h-4a.25.25 0 01-.25-.25v-90.27a2.18 2.18 0 012.18-2.17z"/><path class="cls-4" d="M670.25 898.45v85.25c-4.6-.59-6.12-.93-7.19-1v-83.25c1.07-.08 2.59-.45 7.19-1z" transform="translate(-19.66 -155.07)"/><path class="cls-10" d="M626.08 897.45v88.31h-32.15v-88.31c0-3 1.61-5.41 3.6-5.41h25c1.93-.04 3.55 2.42 3.55 5.41z" transform="translate(-19.66 -155.07)"/><path class="cls-4" d="M574.27 745.94h32.15v15.03h-32.15zm0 66.2h32.15v15.03h-32.15z"/><path class="cls-4" d="M626.08 897.45v88.31H610V892h12.48c1.98 0 3.6 2.46 3.6 5.45z" transform="translate(-19.66 -155.07)"/><path class="cls-15" d="M650.34 897.45v88.31h-24.11v-88.31c0-3 1.21-5.41 2.7-5.41h18.71c1.49-.04 2.7 2.42 2.7 5.41z" transform="translate(-19.66 -155.07)"/><path class="cls-4" d="M606.57 817.49h24.11v13.2h-24.11zm0-64.04h24.11v13.21h-24.11z"/><path class="cls-4" d="M650.34 897.45v88.31h-12.05V892h9.35c1.49 0 2.7 2.46 2.7 5.45z" transform="translate(-19.66 -155.07)"/><path class="cls-9" d="M275.77 897.73V983c-8.52-.69-9.12-1-9.72-1s-1.22.34-9.73 1v-85.27c8.51.68 9.12 1 9.73 1s1.2-.32 9.72-1z" transform="translate(-19.66 -155.07)"/><path class="cls-10" d="M231.67 737.27h2.86a2.13 2.13 0 012.13 2.13V830h-7.11v-90.6a2.13 2.13 0 012.12-2.13zm26.65 0h2.76a2.18 2.18 0 012.18 2.18v90.26a.25.25 0 01-.25.25h-6.61a.25.25 0 01-.25-.25v-90.26a2.18 2.18 0 012.17-2.18z"/><path class="cls-9" d="M314.49 898v85.25c-7.3-.59-9.7-.93-11.41-1-2.28-.11-3.31.23-13.05 1V898c8.52.68 10.38 1 12.23 1h.82c1.71-.06 4.12-.4 11.41-1z" transform="translate(-19.66 -155.07)"/><path class="cls-11" d="M265.39 737.57h2.86a2.13 2.13 0 012.13 2.13v90.56h-7.11v-90.57a2.13 2.13 0 012.12-2.12zm31.61 0h2.76a2.18 2.18 0 012.18 2.18V830a.25.25 0 01-.25.25h-6.61a.25.25 0 01-.25-.25v-90.26a2.18 2.18 0 012.17-2.17z"/><path class="cls-4" d="M314.49 898v85.25c-7.3-.59-9.7-.93-11.41-1V899c1.71-.06 4.12-.4 11.41-1z" transform="translate(-19.66 -155.07)"/><path class="cls-9" d="M398.13 898v85.25c-4.61-.59-6.12-.93-7.2-1-1.44-.11-2.09.23-8.23 1V898c5.37.68 6.54 1 7.71 1h.52c1.07-.06 2.6-.4 7.2-1z" transform="translate(-19.66 -155.07)"/><path class="cls-12" d="M360.68 737.57h.23a2.13 2.13 0 012.13 2.13v90.56h-4.49v-90.57a2.13 2.13 0 012.13-2.12zm19.98 0h.14a2.18 2.18 0 012.18 2.18V830a.25.25 0 01-.25.25h-4a.25.25 0 01-.25-.25v-90.26a2.18 2.18 0 012.18-2.17z"/><path class="cls-4" d="M398.13 898v85.25c-4.61-.59-6.12-.93-7.2-1V899c1.07-.06 2.6-.4 7.2-1z" transform="translate(-19.66 -155.07)"/><path class="cls-10" d="M354 897v88.31h-32.2V897c0-3 1.61-5.41 3.6-5.41h25c1.93.02 3.6 2.41 3.6 5.41z" transform="translate(-19.66 -155.07)"/><path class="cls-4" d="M302.14 745.51h32.15v15.03h-32.15zm0 66.2h32.15v15.03h-32.15z"/><path class="cls-4" d="M354 897v88.31h-16.13v-93.7h12.48c1.98 0 3.65 2.39 3.65 5.39z" transform="translate(-19.66 -155.07)"/><path class="cls-15" d="M378.21 897v88.31H354.1V897c0-3 1.21-5.41 2.7-5.41h18.71c1.49.02 2.7 2.41 2.7 5.41z" transform="translate(-19.66 -155.07)"/><path class="cls-4" d="M334.44 817.06h24.11v13.2h-24.11zm0-64.04h24.11v13.21h-24.11z"/><path class="cls-4" d="M378.21 897v88.31h-12v-93.7h9.35c1.44 0 2.65 2.39 2.65 5.39z" transform="translate(-19.66 -155.07)"/><path class="cls-16" d="M563.17 594.45v15.88a5 5 0 01-.12 1.1 5.49 5.49 0 01-5.38 4.39h-21.21a5.5 5.5 0 01-5.38-4.39 5.7 5.7 0 01-.11-1.1v-6.92h-56.71v6.92a5 5 0 01-.11 1.1 5.49 5.49 0 01-5.37 4.39h-21.22a5.5 5.5 0 01-5.38-4.39 5.7 5.7 0 01-.11-1.1v-15.88a10.61 10.61 0 0110.61-10.61h99.88a10.61 10.61 0 0110.61 10.61z" transform="translate(-19.66 -155.07)"/><path class="cls-17" d="M563.17 608.89v1.44a5.62 5.62 0 01-.11 1.1h-32a5.62 5.62 0 01-.11-1.1v-1.44zm-88.91 0v1.44a5.62 5.62 0 01-.11 1.1h-32a5.62 5.62 0 01-.11-1.1v-1.44z" transform="translate(-19.66 -155.07)"/><path class="cls-4" d="M563.17 594.45v15.88a5.7 5.7 0 01-.11 1.1 5.5 5.5 0 01-5.38 4.39h-21.22a5.5 5.5 0 01-5.38-4.39 5.7 5.7 0 01-.11-1.1v-6.92h-28.35v-19.57h49.94a10.61 10.61 0 0110.61 10.61z" transform="translate(-19.66 -155.07)"/><path class="cls-18" d="M533.58 528.6h3.31a2.34 2.34 0 012.34 2.34v1a2.34 2.34 0 01-2.34 2.34h-3.31v-5.68z"/><path class="cls-16" d="M546.42 714.28h-87.6a11.4 11.4 0 01-10.95-13.17l12.42-79a11.42 11.42 0 0111.28-9.64h62.1a11.41 11.41 0 0111.27 9.64l12.43 79a11.4 11.4 0 01-10.95 13.17z" transform="translate(-19.66 -155.07)"/><path class="cls-17" d="M546.42 714.27a.14.14 0 000 .06 9.55 9.55 0 01-1.3 2.15 9.23 9.23 0 01-7.22 3.47h-70.54a9.23 9.23 0 01-7.22-3.47 9.55 9.55 0 01-1.3-2.15.14.14 0 000-.06 1.72 1.72 0 00.32 0h87a1.77 1.77 0 00.26 0z" transform="translate(-19.66 -155.07)"/><circle class="cls-17" cx="482.96" cy="511.14" r="37.5"/><circle class="cls-2" cx="482.96" cy="483.05" r="4.15"/><circle class="cls-2" cx="482.96" cy="538.91" r="4.15"/><circle class="cls-2" cx="510.88" cy="510.46" r="4.15"/><circle class="cls-2" cx="455.03" cy="511.49" r="4.15"/><circle class="cls-2" cx="501.98" cy="490.53" r="4.15"/><circle class="cls-2" cx="463.93" cy="531.43" r="4.15"/><circle class="cls-2" cx="503.75" cy="529.62" r="4.15"/><circle class="cls-2" cx="462.16" cy="492.33" r="4.15"/><circle class="cls-2" cx="482.96" cy="511.14" r="17.78"/><path class="cls-1" d="M526.67 694.83l-4.65 3.9a1.6 1.6 0 01-2.38-.38l-7.72-12.16a2.76 2.76 0 01.56-3.58 2.75 2.75 0 013.62.08l10.62 9.73a1.6 1.6 0 01-.05 2.41z" transform="translate(-19.66 -155.07)"/><path class="cls-4" d="M546.42 714.33a9.35 9.35 0 01-8.54 5.66h-35.26V612.52h31a11.42 11.42 0 0111.38 9.63l12.42 79a11.42 11.42 0 01-11 13.18z" transform="translate(-19.66 -155.07)"/><path class="cls-18" d="M543.51 441.71h3.24a2.42 2.42 0 012.42 2.42v.87a2.42 2.42 0 01-2.42 2.42h-3.24v-5.66z"/><path class="cls-18" d="M570.64 602.29c-.64-.14-.87-.57-.67-1.09a3.79 3.79 0 00.26-1.81 3.28 3.28 0 00-1-1.91c-.55-.55-.73-1.4.18-1.85a2.19 2.19 0 011.67 0 2.16 2.16 0 011.25 1.08 6.23 6.23 0 01-.07 4.77 1.45 1.45 0 01-1.62.81zm1.36 4.89a1.19 1.19 0 01-.31-1.7 18.5 18.5 0 002.11-3.79 1.2 1.2 0 011.72-.69 1.61 1.61 0 01.68 2 25.41 25.41 0 01-2.37 3.85 1.34 1.34 0 01-1.83.33zm.49 5.53a1.28 1.28 0 01-.11-1.82c1-1.08 1.9-2.21 2.78-3.4a1.26 1.26 0 011.83-.25 1.43 1.43 0 01.23 2c-.92 1.2-1.9 2.33-2.88 3.42a1.31 1.31 0 01-1.85.05zm.09 5.67a1.31 1.31 0 010-1.84c1-1 2-2.1 3-3.2a1.28 1.28 0 011.85-.07 1.4 1.4 0 01.06 1.94c-1 1.09-2.06 2.15-3.11 3.19a1.3 1.3 0 01-1.8-.02zm-.16 5.73a1.31 1.31 0 01.07-1.85c1.08-1 2.14-2 3.19-3.06a1.3 1.3 0 011.86 0 1.39 1.39 0 010 1.92c-1.06 1-2.14 2.05-3.22 3.05a1.29 1.29 0 01-1.9-.06zm-.34 5.75a1.33 1.33 0 01.12-1.86c1.11-1 2.2-2 3.29-3a1.29 1.29 0 011.85.09 1.37 1.37 0 01-.1 1.9l-3.31 3a1.3 1.3 0 01-1.85-.13zm-.45 5.76a1.34 1.34 0 01.15-1.87l3.35-2.9a1.3 1.3 0 011.87.15 1.35 1.35 0 01-.15 1.89l-3.36 2.9a1.29 1.29 0 01-1.86-.17zm-.54 5.76a1.33 1.33 0 01.18-1.86l3.39-2.86a1.29 1.29 0 011.84.17 1.34 1.34 0 01-.17 1.88l-3.39 2.85a1.3 1.3 0 01-1.85-.18zm-.59 5.78a1.34 1.34 0 01.2-1.87l3.41-2.83a1.3 1.3 0 011.84.19 1.34 1.34 0 01-.19 1.88l-3.42 2.82a1.31 1.31 0 01-1.84-.19zm-.61 5.78a1.33 1.33 0 01.2-1.87l3.42-2.81a1.3 1.3 0 011.85.19 1.35 1.35 0 01-.2 1.87l-3.43 2.82a1.3 1.3 0 01-1.84-.2zm-.59 5.81a1.35 1.35 0 01.18-1.88l3.42-2.87a1.3 1.3 0 011.84.2 1.33 1.33 0 01-.19 1.86l-3.41 2.83a1.29 1.29 0 01-1.84-.14zm-.47 5.92a1.41 1.41 0 01.12-1.94c1.12-1 2.24-2 3.37-2.91a1.31 1.31 0 011.68 2c-1.12.95-2.23 1.91-3.32 2.92a1.27 1.27 0 01-1.85-.07zm-.07 5.9a1.31 1.31 0 010-1.85c1-1 2.06-2.12 3.13-3.13a1.33 1.33 0 011.85.06 1.22 1.22 0 01.37.87 1.3 1.3 0 01-.39.93l-3.12 3.15a1.31 1.31 0 01-1.84-.03zm-.29 5.55a1.21 1.21 0 01.16-1.75c1.1-.92 2.17-1.93 3.23-3a1.28 1.28 0 011.85 0 1.4 1.4 0 01-.06 1.94 41.86 41.86 0 01-3.34 3 1.34 1.34 0 01-1.84-.19zm-1.28 4.64a.87.87 0 010-.77.91.91 0 01.6-.54 14.33 14.33 0 003.69-2.17 1.23 1.23 0 011.83.28 1.54 1.54 0 01-.41 2.07q-.48.35-1 .66c-.34.21-.7.4-1 .57s-.67.34-1 .48-.72.24-1.06.33a1.49 1.49 0 01-1.65-.91zm-3.06 2.55a.87.87 0 01.49-.62 1 1 0 01.74 0 5.78 5.78 0 00.94.32 7.11 7.11 0 001 .15 6.83 6.83 0 002.18-.18 1.45 1.45 0 011 .14 1.07 1.07 0 01.51.91 2 2 0 01-.47 1.24 1.83 1.83 0 01-1.18.62 8.55 8.55 0 01-4.57-.86 1.47 1.47 0 01-.64-1.72zm-4.88.74A1.14 1.14 0 01561 684q.74.67 1.62 1.35a12.9 12.9 0 001.88 1.15 1.2 1.2 0 01.53 1.77 1.64 1.64 0 01-2.15.48 19.73 19.73 0 01-1.89-1.33c-.59-.5-1.14-1-1.66-1.49a1.36 1.36 0 01-.08-1.88z" transform="translate(-19.66 -155.07)"/><path class="cls-6" d="M546.42 714.33a9.16 9.16 0 01-1.29 2.15h-85a9.55 9.55 0 01-1.3-2.15z" transform="translate(-19.66 -155.07)"/><path class="cls-11" d="M441 868a.26.26 0 01-.2.31L427.3 871a.26.26 0 01-.31-.2l-1.32-6.72-.42-2.16-.33-1.65-9.75-49.5-2.73-13.83-.67-3.43-1.32-6.69-.53-2.64-.38-1.94a2.17 2.17 0 011.72-2.56l9.74-1.92a2.18 2.18 0 012.56 1.72l.39 1.93.52 2.65 1.32 6.68.48 2.44L429 807l9.76 49.5.52 2.64.42 2.17z" transform="translate(-19.66 -155.07)"/><path class="cls-4" d="M441 868a.26.26 0 01-.2.31L427.3 871a.26.26 0 01-.31-.2l-1.32-6.72-.42-2.16-.33-1.65 13.84-3.76.52 2.64.42 2.17z" transform="translate(-19.66 -155.07)"/><path class="cls-4" d="M409.34 651.92l-13.83 3.76-2.73-13.83 13.83-3.76 2.73 13.83z"/><path class="cls-11" d="M434.16 982.11a.26.26 0 01-.2.31l-13.52 2.66a.26.26 0 01-.31-.2l-1.32-6.72-.42-2.16-.33-1.65-9.75-49.5-2.73-13.85-.67-3.43-1.32-6.69-.53-2.64-.38-1.94a2.17 2.17 0 011.72-2.56l9.74-1.92a2.18 2.18 0 012.56 1.72l.39 1.93.52 2.65 1.32 6.68.48 2.44 2.73 13.83 9.76 49.5.52 2.64.42 2.17z" transform="translate(-19.66 -155.07)"/><path class="cls-4" d="M434.16 982.11a.26.26 0 01-.2.31l-13.52 2.66a.26.26 0 01-.31-.2l-1.32-6.72-.42-2.16-.33-1.65 13.84-3.76.52 2.64.42 2.17z" transform="translate(-19.66 -155.07)"/><path class="cls-4" d="M402.48 766.02l-13.83 3.76-2.73-13.83 13.83-3.76 2.73 13.83z"/><path class="cls-9" d="M555.38 783.09v85.25c-7.3-.59-9.7-.93-11.41-1-2.28-.11-3.31.23-13.05 1v-85.25c8.52.68 10.38 1 12.23 1h.82c1.71-.09 4.12-.42 11.41-1z" transform="translate(-19.66 -155.07)"/><path class="cls-11" d="M506.28 622.63h2.86a2.13 2.13 0 012.13 2.13v90.56h-7.11v-90.56a2.13 2.13 0 012.12-2.13zm31.65 0h2.76a2.18 2.18 0 012.18 2.18v90.26a.25.25 0 01-.25.25H536a.25.25 0 01-.25-.25v-90.26a2.18 2.18 0 012.18-2.18z"/><path class="cls-4" d="M555.38 783.09v85.25c-7.3-.59-9.7-.93-11.41-1v-83.25c1.71-.09 4.12-.42 11.41-1z" transform="translate(-19.66 -155.07)"/><path class="cls-9" d="M615.72 782.77V868c-4.61-.59-6.12-.93-7.2-1-1.44-.11-2.09.23-8.23 1v-85.23c5.37.68 6.55 1 7.71 1a4.53 4.53 0 00.52 0c1.08-.08 2.6-.42 7.2-1z" transform="translate(-19.66 -155.07)"/><path class="cls-12" d="M578.27 622.31h.23a2.13 2.13 0 012.13 2.13V715h-4.49v-90.56a2.13 2.13 0 012.13-2.13zm19.99 0h.14a2.18 2.18 0 012.18 2.18v90.26a.25.25 0 01-.25.25h-4a.25.25 0 01-.25-.25v-90.26a2.18 2.18 0 012.18-2.18z"/><path class="cls-4" d="M615.72 782.77V868c-4.61-.59-6.12-.93-7.2-1v-83.23c1.08-.08 2.6-.42 7.2-1z" transform="translate(-19.66 -155.07)"/><path class="cls-10" d="M595.68 782.08v88.31h-32.15v-88.31c0-3 1.61-5.41 3.6-5.41h25c1.93 0 3.55 2.42 3.55 5.41z" transform="translate(-19.66 -155.07)"/><path class="cls-4" d="M543.87 630.57h32.15v15.03h-32.15zm0 66.2h32.15v15.03h-32.15z"/><path class="cls-4" d="M595.68 782.08v88.31H579.6v-93.72h12.48c1.98 0 3.6 2.42 3.6 5.41z" transform="translate(-19.66 -155.07)"/><path class="cls-9" d="M898.75 785.83v85.25c-4.6-.59-6.12-.93-7.19-1-1.44-.11-2.09.23-8.24 1v-85.25c5.38.68 6.55 1 7.72 1h.52c1.07-.08 2.59-.42 7.19-1z" transform="translate(-19.66 -155.07)"/><path class="cls-12" d="M861.3 625.37h.23a2.13 2.13 0 012.13 2.13v90.56h-4.49V627.5a2.13 2.13 0 012.13-2.13zm19.99 0h.14a2.18 2.18 0 012.18 2.18v90.26a.25.25 0 01-.25.25h-4a.25.25 0 01-.25-.25v-90.26a2.18 2.18 0 012.18-2.18z"/><path class="cls-4" d="M898.75 785.83v85.25c-4.6-.59-6.12-.93-7.19-1v-83.25c1.07-.08 2.59-.42 7.19-1z" transform="translate(-19.66 -155.07)"/><path class="cls-10" d="M878.71 785.14v88.31h-32.15v-88.31c0-3 1.61-5.41 3.6-5.41h25c1.93 0 3.55 2.42 3.55 5.41z" transform="translate(-19.66 -155.07)"/><path class="cls-4" d="M826.9 633.63h32.15v15.03H826.9zm0 66.2h32.15v15.03H826.9z"/><path class="cls-4" d="M878.71 785.14v88.31h-16.08v-93.72h12.48c1.98 0 3.6 2.42 3.6 5.41z" transform="translate(-19.66 -155.07)"/><path class="cls-11" d="M651.42 869.27a.26.26 0 01-.2.31l-13.53 2.6a.26.26 0 01-.31-.2l-1.29-6.73-.41-2.16-.32-1.65-9.52-49.55-2.66-13.84-.66-3.43-1.29-6.7-.51-2.64-.38-1.94a2.18 2.18 0 011.74-2.55l9.75-1.88a2.18 2.18 0 012.55 1.73l.38 1.94.51 2.65 1.28 6.68.47 2.45 2.67 13.84 9.53 49.54.51 2.65.41 2.17z" transform="translate(-19.66 -155.07)"/><path class="cls-4" d="M651.42 869.27a.26.26 0 01-.2.31l-13.53 2.6a.26.26 0 01-.31-.2l-1.29-6.73-.41-2.16-.32-1.65 13.86-3.7.51 2.65.41 2.17z" transform="translate(-19.66 -155.07)"/><path class="cls-4" d="M620.03 653.13l-13.85 3.69-2.66-13.84 13.84-3.69 2.67 13.84z"/><path class="cls-11" d="M1303.33 869.2a.26.26 0 01-.2.31l-13.52 2.66a.26.26 0 01-.31-.2l-1.32-6.72-.42-2.16-.33-1.65-9.75-49.5-2.73-13.83-.67-3.43-1.32-6.69-.53-2.64-.38-1.94a2.17 2.17 0 011.72-2.56l9.74-1.92a2.18 2.18 0 012.56 1.72l.39 1.93.52 2.65 1.32 6.68.48 2.44 2.73 13.83 9.76 49.5.52 2.64.42 2.17z" transform="translate(-19.66 -155.07)"/><path class="cls-4" d="M1303.33 869.2a.26.26 0 01-.2.31l-13.52 2.66a.26.26 0 01-.31-.2l-1.32-6.72-.42-2.16-.33-1.65 13.84-3.76.52 2.64.42 2.17z" transform="translate(-19.66 -155.07)"/><path class="cls-4" d="M1271.65 653.11l-13.83 3.76-2.73-13.83 13.83-3.76 2.73 13.83z"/><path class="cls-11" d="M343.76 716.8a.26.26 0 01-.2.31L330 719.77a.26.26 0 01-.31-.2l-1.32-6.72-.42-2.16-.33-1.65-9.75-49.5-2.73-13.83-.67-3.43-1.32-6.69-.53-2.64-.38-1.94a2.17 2.17 0 011.72-2.56l9.74-1.92a2.18 2.18 0 012.56 1.72l.39 1.93.52 2.65 1.32 6.68.51 2.49 2.73 13.83 9.76 49.5.52 2.64.42 2.17z" transform="translate(-19.66 -155.07)"/><path class="cls-4" d="M343.76 716.8a.26.26 0 01-.2.31L330 719.77a.26.26 0 01-.31-.2l-1.32-6.72-.42-2.16-.33-1.65 13.84-3.76.52 2.64.42 2.17z" transform="translate(-19.66 -155.07)"/><path class="cls-4" d="M312.08 500.71l-13.83 3.76-2.73-13.83 13.83-3.76 2.73 13.83z"/><path class="cls-10" d="M1621.87 670.33a.25.25 0 01-.24-.27l.13-7 .13-6.76a.28.28 0 01.27-.26l6.85.14 78.72 1.56 4.67.1a2.19 2.19 0 012.14 2.23l-.09 5.1-.1 4.83a2.19 2.19 0 01-2.23 2.13l-4.67-.1-78.73-1.55z" transform="translate(-19.66 -155.07)"/><path class="cls-4" d="M1621.87 670.33a.25.25 0 01-.24-.27l.13-7 92.69 2.11-.1 4.83a2.19 2.19 0 01-2.23 2.13l-4.67-.1-78.73-1.55z" transform="translate(-19.66 -155.07)"/><path class="cls-14" d="M1717.74 720.91h-5.26l-88.64-.82-7.71-.06a.3.3 0 01-.28-.3l.14-15.51a.3.3 0 01.29-.29l7.71.07 88.64.81 5.26.06a2.45 2.45 0 012.43 2.48l-.1 11.18a2.46 2.46 0 01-2.48 2.38z" transform="translate(-19.66 -155.07)"/><path class="cls-4" d="M1717.74 720.91h-5.26l.15-16.1 5.26.06a2.45 2.45 0 012.43 2.48l-.1 11.18a2.46 2.46 0 01-2.48 2.38zm-93.9-.91l-7.71-.06a.3.3 0 01-.28-.3l.14-15.51a.3.3 0 01.29-.29l7.71.07z" transform="translate(-19.66 -155.07)"/><path class="cls-15" d="M1731.35 704.73l-106-1.34.24-19.06 106 1.34c3.59 0 6.49 1 6.47 2.21l-.19 14.8c-.01 1.17-2.93 2.09-6.52 2.05z" transform="translate(-19.66 -155.07)"/><path class="cls-4" transform="rotate(-89.28 1544.99 626.404)" d="M1623.86 686.04h19.06v15.85h-19.06z"/><path class="cls-4" transform="rotate(-89.28 1621.846 627.376)" d="M1700.73 687h19.06v15.86h-19.06z"/><path class="cls-4" d="M1731.35 704.73l-106-1.34.12-9.52 112.5 1.41-.1 7.4c-.01 1.17-2.93 2.09-6.52 2.05z" transform="translate(-19.66 -155.07)"/><path class="cls-11" d="M1706.49 671.94a.26.26 0 01.26.26l-.39 13.77a.26.26 0 01-.26.26l-6.85-.19-2.2-.07h-1.68l-50.43-1.39-14.09-.38-3.49-.11-6.82-.18-2.69-.07h-2a2.18 2.18 0 01-2.12-2.25l.27-9.92a2.19 2.19 0 012.25-2.12h2l2.69.07 6.81.19 2.49.07 14.09.38 50.43 1.38 2.69.08 2.21.07z" transform="translate(-19.66 -155.07)"/><path class="cls-4" d="M1706.49 671.94a.26.26 0 01.26.26l-.39 13.77a.26.26 0 01-.26.26l-6.85-.19-2.2-.07h-1.68l-.62-14.33 2.69.08 2.21.07z" transform="translate(-19.66 -155.07)"/><path class="cls-4" d="M1624.66 515.15l.62 14.32-14.09-.38-.62-14.32 14.09.38z"/><path class="cls-11" d="M1570.94 866.27a.26.26 0 00.13.34l12.67 5.43a.26.26 0 00.34-.13l2.7-6.3.86-2 .67-1.55 19.89-46.36 5.56-13 1.37-3.21 2.69-6.27 1.07-2.47.78-1.81a2.17 2.17 0 00-1.15-2.87l-9.12-3.91a2.17 2.17 0 00-2.86 1.15l-.79 1.8-1.06 2.48-2.69 6.26-1 2.29-5.56 13-19.9 46.36-1.04 2.5-.86 2z" transform="translate(-19.66 -155.07)"/><path class="cls-4" d="M1570.94 866.27a.26.26 0 00.13.34l12.67 5.43a.26.26 0 00.34-.13l2.7-6.3.86-2 .67-1.55-12.75-6.57-1.06 2.51-.86 2z" transform="translate(-19.66 -155.07)"/><path class="cls-4" d="M1575.8 654.04l12.74 6.57 5.56-12.96-12.74-6.56-5.56 12.95z"/><path class="cls-9" d="M1331.83 897.69v85.25c-8.52-.69-9.12-1-9.72-1s-1.22.34-9.73 1v-85.25c8.51.68 9.12 1 9.73 1s1.2-.32 9.72-1z" transform="translate(-19.66 -155.07)"/><path class="cls-10" d="M1287.73 737.23h2.86a2.13 2.13 0 012.13 2.13v90.56h-7.11v-90.56a2.13 2.13 0 012.12-2.13zm26.65 0h2.76a2.18 2.18 0 012.18 2.18v90.26a.25.25 0 01-.25.25h-6.61a.25.25 0 01-.25-.25v-90.26a2.18 2.18 0 012.17-2.18z"/><path class="cls-9" d="M1300.77 897.73V983c-4.61-.59-6.12-.93-7.2-1-1.44-.11-2.09.23-8.23 1v-85.27c5.37.68 6.54 1 7.71 1h.52c1.08-.08 2.6-.42 7.2-1z" transform="translate(-19.66 -155.07)"/><path class="cls-12" d="M1263.32 737.27h.23a2.13 2.13 0 012.13 2.13V830h-4.49v-90.6a2.13 2.13 0 012.13-2.13zm19.98 0h.14a2.18 2.18 0 012.18 2.18v90.26a.25.25 0 01-.25.25h-4a.25.25 0 01-.25-.25v-90.26a2.18 2.18 0 012.18-2.18z"/><path class="cls-4" d="M1300.77 897.73V983c-4.61-.59-6.12-.93-7.2-1v-83.27c1.08-.08 2.6-.42 7.2-1z" transform="translate(-19.66 -155.07)"/><path class="cls-10" d="M1256.59 896.72V985h-32.15v-88.28c0-3 1.61-5.41 3.6-5.41h25c1.96 0 3.55 2.42 3.55 5.41z" transform="translate(-19.66 -155.07)"/><path class="cls-4" d="M1204.78 745.21h32.15v15.03h-32.15zm0 66.2h32.15v15.03h-32.15z"/><path class="cls-4" d="M1256.59 896.72V985h-16.08v-93.69H1253c2 0 3.59 2.42 3.59 5.41z" transform="translate(-19.66 -155.07)"/><path class="cls-15" d="M1280.85 896.72V985h-24.11v-88.28c0-3 1.21-5.41 2.7-5.41h18.71c1.49 0 2.7 2.42 2.7 5.41z" transform="translate(-19.66 -155.07)"/><path class="cls-4" d="M1237.08 816.76h24.11v13.2h-24.11zm0-64.04h24.11v13.21h-24.11z"/><path class="cls-4" d="M1280.85 896.72V985h-12v-93.69h9.35c1.44 0 2.65 2.42 2.65 5.41z" transform="translate(-19.66 -155.07)"/><path class="cls-11" d="M1339.25 980a.26.26 0 00.12.35l12.53 5.73a.27.27 0 00.35-.12l2.85-6.23.91-2 .7-1.53 21-45.88 5.87-12.82 1.44-3.18 2.84-6.2 1.13-2.44.82-1.8a2.17 2.17 0 00-1.08-2.89l-9-4.13a2.19 2.19 0 00-2.89 1.08l-.82 1.79-1.12 2.45-2.9 6.22-1 2.27-5.87 12.81-21 45.88-1.12 2.45-.91 2z" transform="translate(-19.66 -155.07)"/><path class="cls-4" d="M1339.25 980a.26.26 0 00.12.35l12.53 5.73a.27.27 0 00.35-.12l2.85-6.23.91-2 .7-1.53-12.59-6.87-1.12 2.45-.91 2z" transform="translate(-19.66 -155.07)"/><path class="cls-4" d="M1345.45 768.41l12.58 6.87 5.87-12.81-12.58-6.87-5.87 12.81z"/><rect x="1625.23" y="661.68" width="55.2" height="55.2" rx="4.23"/><rect class="cls-9" x="1631.18" y="667.64" width="12.86" height="12.86" rx="3.16"/><rect class="cls-11" x="1646.37" y="667.64" width="12.86" height="12.86" rx="3.16"/><rect x="1661.82" y="667.64" width="12.86" height="12.86" rx="3.16" fill="#736357"/><rect class="cls-20" x="1631.06" y="683.18" width="12.86" height="12.86" rx="3.16"/><rect class="cls-21" x="1646.24" y="683.18" width="12.86" height="12.86" rx="3.16"/><rect class="cls-9" x="1662.15" y="683.18" width="12.86" height="12.86" rx="3.16"/><rect class="cls-9" x="1631.08" y="699.02" width="12.86" height="12.86" rx="3.16"/><rect class="cls-20" x="1646.27" y="699.02" width="12.86" height="12.86" rx="3.16"/><rect x="1662.17" y="699.02" width="12.86" height="12.86" rx="3.16" fill="#0071bc"/><path class="cls-4" d="M1700.09 821.2v46.54a4.21 4.21 0 01-4.23 4.21h-23.53v-55.2h23.53a4.43 4.43 0 014.23 4.45z" transform="translate(-19.66 -155.07)"/><path class="cls-9" d="M1390.72 605.45l-.1-.63v-.35a1.38 1.38 0 00-1.59-1.15c-7.09 1.15-14.25 2.48-21.28 4a3.65 3.65 0 00-2 1 3.72 3.72 0 00-.93 2l-5.33 28.44 1.58.3 2.11.39 5.33-28.42c7-1.46 14.06-2.78 21.1-3.92a1.37 1.37 0 001.11-1.66z" transform="translate(-19.66 -155.07)"/><path class="cls-4" d="M1389.59 607c-7 1.14-14.13 2.46-21.1 3.92l-5.33 28.42-2.11-.39 5.46-28a2.44 2.44 0 011.94-1.93l22.17-4.21.1.63a1.37 1.37 0 01-1.13 1.56z" transform="translate(-19.66 -155.07)"/><path class="cls-20" d="M1390 638v74a7.92 7.92 0 01-.59 3 7.81 7.81 0 01-1.68 2.55 7.93 7.93 0 01-5.7 2.41h-36.41a8 8 0 01-8-8V638a8 8 0 018-8h36.41a8 8 0 017.97 8z" transform="translate(-19.66 -155.07)"/><path class="cls-9" d="M1390 670.27v19.26c-3.75-4.65-7-9.7-11-14.23-7.35-8.33-16.41-13.29-27.54-14.38a79.16 79.16 0 00-13.77 0V649c14.76-1 29.49.74 41.69 10.2a62.35 62.35 0 0110.62 11.07z" transform="translate(-19.66 -155.07)"/><path class="cls-9" d="M1390 701.18c-2.81-3.37-5.31-7-8-10.55-5.16-6.77-11.21-13-19-16.73-7.41-3.56-15.7-4.82-23.86-4.86h-1.54v1.61c7.64 0 15.18 1.09 22.19 4.26 7.91 3.57 14 9.73 19.24 16.53 3.6 4.67 6.85 9.68 10.92 13.88z" transform="translate(-19.66 -155.07)"/><path class="cls-9" d="M1389.45 715c-4-4.11-7.18-9-10.69-13.59-5.21-6.79-11.27-13-19.07-16.79a54.17 54.17 0 00-22-4.9v2.89a51.1 51.1 0 0119.58 4.17c7.88 3.56 14 9.69 19.15 16.47 3.71 4.85 7.07 10 11.35 14.3z" transform="translate(-19.66 -155.07)"/><path class="cls-4" d="M1390 638v74a7.92 7.92 0 01-.59 3 7.81 7.81 0 01-1.68 2.55 7.93 7.93 0 01-5.7 2.41h-18.2v-89.89h18.2A8 8 0 011390 638z" transform="translate(-19.66 -155.07)"/><path class="cls-17" d="M1397.18 770.32h115.38v60.35h-115.38z"/><path class="cls-16" d="M1399.64 763.47h110.47v6.85h-110.47zm-2.46 10.68h115.38v1.72h-115.38zm0 51.43h115.38v1.71h-115.38zm0-3.81h115.38v1.71h-115.38zm0-44.38h115.38v1.71h-115.38z"/><path class="cls-17" d="M1489.62 760.11h13.95v3.36h-13.95zm-84.76 1.04h13.95v2.32h-13.95zm17.45 0h13.95v2.32h-13.95z"/><circle cx="1444.5" cy="800.78" r="22.53" stroke-width="3" fill="#cbc4ba" stroke-miterlimit="10" stroke="#fff"/><circle class="cls-17" cx="1444.5" cy="800.78" r="17.82"/><circle cx="1444.5" cy="800.78" r="16.44"/><path class="cls-24" d="M1474.32 942.93L1449 962.3a16.44 16.44 0 0125.29-19.37z" transform="translate(-19.66 -155.07)"/><path class="cls-6" d="M1399.64 769.28h110.47v1.04h-110.47z"/><ellipse class="cls-25" cx="1815.76" cy="916.77" rx="56.18" ry="10.68"/><path d="M1874.41 1012.56v2a61.48 61.48 0 01-122.89 0v-2a61.49 61.49 0 01123 0z" transform="translate(-19.66 -155.07)" fill="#f15a24"/><path class="cls-28" d="M1874.41 1012.56v2a61.47 61.47 0 01-61.44 59.46v-123a61.48 61.48 0 0161.44 61.54z" transform="translate(-19.66 -155.07)"/><path class="cls-28" d="M1731.82 859.51h122.89"/><path class="cls-29" d="M1853.86 966.69l-.14.14a66.3 66.3 0 00-2.17 93.3l.14.15m-79.47-93.53a66.31 66.31 0 012.18 93.46" transform="translate(-19.66 -155.07)"/><circle class="cls-29" cx="1793.27" cy="857.48" r="61.28"/><path class="cls-30" d="M1490.87 696.24a29.18 29.18 0 01-43.19 18.65 31.91 31.91 0 01-3.13-2.13q-.75-.59-1.47-1.23a29.12 29.12 0 01-9-15.11z" transform="translate(-19.66 -155.07)"/><path class="cls-16" d="M1464.3 696.33l-19.5 15.2a29.28 29.28 0 01-6.58-8.47l8.57-6.68zm8.93-.03l-23.83 18.58a29.13 29.13 0 01-3.13-2.12l21.09-16.44z" transform="translate(-19.66 -155.07)"/><path class="cls-31" d="M1490.87 696.24a29.18 29.18 0 01-43.19 18.65 31.91 31.91 0 01-3.13-2.13q-.75-.59-1.47-1.23a29.12 29.12 0 01-9-15.11z" transform="translate(-19.66 -155.07)"/><path class="cls-30" d="M1556.86 696a29.17 29.17 0 01-46.32 16.52c-.51-.4-1-.8-1.47-1.23a29.12 29.12 0 01-9-15.11z" transform="translate(-19.66 -155.07)"/><path class="cls-16" d="M1528.57 696.13l-19.5 15.2a29.28 29.28 0 01-6.58-8.47l8.57-6.68zm8.93-.03l-23.83 18.58a29.13 29.13 0 01-3.13-2.12l21.09-16.44z" transform="translate(-19.66 -155.07)"/><path class="cls-31" d="M1556.86 696a29.17 29.17 0 01-46.32 16.52c-.51-.4-1-.8-1.47-1.23a29.12 29.12 0 01-9-15.11z" transform="translate(-19.66 -155.07)"/><path transform="rotate(-.18 -47891.039 6867.123)" d="M1430.33 691.52h129.84v6h-129.84z"/><path class="cls-6" d="M1484.04 563.44l-69.64-19.9 1.85-6.47 51.27 14.65 10 2.86"/><path opacity=".35" d="M1529.46 541.45l-53.32 13.13-8.67-2.47-.32-1.32 60.92-15 1.39 5.66z"/><path d="M1490.71 700v-6.08h9.51V700a6.63 6.63 0 00-9.51 0z" transform="translate(-19.66 -155.07)"/><path class="cls-33" d="M1700 954.08l-1.66 11.51a.64.64 0 01-.64.54l-57.48-.28a.63.63 0 01-.63-.55l-1.59-11.53a.63.63 0 01.64-.71l60.67.3a.64.64 0 01.69.72z" transform="translate(-19.66 -155.07)"/><path class="cls-33" d="M1697.67 965.84v.29l-.05.87-2 15.87a1.36 1.36 0 01-1.35 1.19l-50.76-.25a1.35 1.35 0 01-1.34-1.2l-1.88-15.9v-1.16z" transform="translate(-19.66 -155.07)"/><path class="cls-34" d="M1677.99 811.06l-.05.86-57.38-.28-.04-.86 57.47.28z"/><path class="cls-35" d="M1691.23 984.63l-.26 1.28a.46.46 0 01-.45.36l-10.59-.06a.44.44 0 01-.43-.36l-.25-1.27a.48.48 0 010-.21.44.44 0 01.43-.33l11.1.05a.46.46 0 01.43.34.44.44 0 01.02.2z" transform="translate(-19.66 -155.07)"/><path class="cls-34" d="M1691.22 984.43l-12-.06a.44.44 0 01.43-.33l11.1.05a.46.46 0 01.47.34z" transform="translate(-19.66 -155.07)"/><path class="cls-35" d="M1658.4 984.47l-.25 1.28a.46.46 0 01-.45.36l-10.59-.06a.43.43 0 01-.43-.36l-.25-1.27a.3.3 0 010-.21.44.44 0 01.43-.33h11.1a.46.46 0 01.43.34.34.34 0 01.01.25z" transform="translate(-19.66 -155.07)"/><path class="cls-34" d="M1658.4 984.27l-12-.06a.44.44 0 01.43-.33h11.1a.46.46 0 01.47.39z" transform="translate(-19.66 -155.07)"/><path class="cls-35" d="M1698.11 952.55v.51a.3.3 0 01-.24.29h-.06l-57.67-.29h-.06a.31.31 0 01-.24-.3v-.51a.31.31 0 01.3-.3l57.68.29a.3.3 0 01.29.31z" transform="translate(-19.66 -155.07)"/><path class="cls-33" d="M1690 951.4v.51a.3.3 0 01-.3.3l-41.44-.2h-.08a.31.31 0 01-.22-.3v-.5a.3.3 0 01.31-.3l41.43.2a.3.3 0 01.3.29zm-2.15-1.11v.5a.29.29 0 01-.3.3l-37.11-.18a.3.3 0 01-.3-.3v-.51a.31.31 0 01.31-.3l37.11.19a.3.3 0 01.29.3z" transform="translate(-19.66 -155.07)"/><path class="cls-33" d="M1686 949.17v.51a.3.3 0 01-.3.3l-33.35-.17a.29.29 0 01-.29-.3V949a.3.3 0 01.3-.29l33.34.16a.3.3 0 01.3.3zm-1.95-1.17v.51a.3.3 0 01-.3.29l-29.5-.14a.31.31 0 01-.3-.3v-.51a.3.3 0 01.3-.28l29.49.15a.3.3 0 01.31.28z" transform="translate(-19.66 -155.07)"/><path class="cls-34" d="M1686 949.17l-34-.17a.3.3 0 01.3-.29l33.34.16a.3.3 0 01.36.3zm1.85 1.12l-37.72-.19a.31.31 0 01.31-.3l37.11.19a.3.3 0 01.3.3zm2.15 1.11l-42-.21a.3.3 0 01.31-.3l41.43.2a.3.3 0 01.26.31zm-5.95-3.4l-30.05-.1c0-.26.13-.48.3-.48l29.49.15c.13-.01.26.21.26.43zm14.06 4.55l-58.27-.28a.31.31 0 01.3-.3l57.68.29a.3.3 0 01.29.29z" transform="translate(-19.66 -155.07)"/><path class="cls-33" d="M1697.21 951.2v1h-5.52v-1.05a.19.19 0 01.18-.19h5.15a.18.18 0 01.19.24z" transform="translate(-19.66 -155.07)"/><path class="cls-36" d="M1696.7 950.39v.61h-4.49v-.63a.19.19 0 01.18-.18h4.12a.19.19 0 01.19.2z" transform="translate(-19.66 -155.07)"/><path class="cls-34" d="M1697.21 951.2v.09h-5.52v-.09a.19.19 0 01.18-.19h5.15a.18.18 0 01.19.19z" transform="translate(-19.66 -155.07)"/><path class="cls-4" d="M1697.21 951.2v1h-2.76v-2h2.06a.19.19 0 01.19.19v.61h.33a.18.18 0 01.18.2z" transform="translate(-19.66 -155.07)"/><path class="cls-33" transform="rotate(.28 33406.06 -3169.472)" d="M1667.01 898.66h5.41v48.82h-5.41z"/><path class="cls-33" d="M1658.02 792.46l-5.4-.03.24-48.83 2.8.02 2.36 48.84zm-10.57-48.88l-2.8-.01-2.85 48.8 5.41.03.24-48.82z"/><path class="cls-34" transform="rotate(-89.72 1584.802 855.447)" d="M1648.19 922.88h48.83v.41h-48.83z"/><path class="cls-34" transform="rotate(-89.72 1579.389 855.42)" d="M1642.78 922.86h48.83v.41h-48.83z"/><path class="cls-36" d="M1674.06 897.26v1.42h-8.44v-1.42a.85.85 0 01.86-.85h6.73a.86.86 0 01.85.85z" transform="translate(-19.66 -155.07)"/><path transform="rotate(-89.72 1582.035 830.784)" fill="#c91724" d="M1669.6 894.2h.47v8.44h-.47z"/><path class="cls-38" transform="rotate(.28 33383.62 -3140.77)" d="M1645.48 951.38h3.43v.61h-3.43z"/><path class="cls-38" transform="rotate(.28 33387.713 -3140.78)" d="M1650.3 951.4h3.43v.61h-3.43z"/><path class="cls-38" transform="rotate(.28 33393.852 -3140.794)" d="M1655.33 951.43h3.43v.61h-3.43z"/><path class="cls-38" transform="rotate(.28 33397.944 -3140.804)" d="M1660.39 951.36h3.43v.61h-3.43z"/><path class="cls-38" transform="rotate(.28 33404.083 -3140.82)" d="M1665.2 951.39h3.43v.61h-3.43z"/><path class="cls-38" transform="rotate(.28 33408.176 -3140.83)" d="M1670.24 951.41h3.43v.61h-3.43z"/><path class="cls-38" transform="rotate(.28 33414.314 -3140.844)" d="M1675.12 951.53h3.43v.61h-3.43z"/><path class="cls-38" transform="rotate(.28 33418.407 -3140.854)" d="M1679.94 951.55h3.43v.61h-3.43z"/><path class="cls-38" transform="rotate(.28 33422.5 -3140.864)" d="M1684.97 951.57h3.43v.61h-3.43z"/><path class="cls-4" d="M1700 954.08l-1.66 11.51a.64.64 0 01-.64.54l-.05.87-2 15.87a1.36 1.36 0 01-1.35 1.19h-3.42a.46.46 0 01.43.34.44.44 0 010 .2l-.26 1.28a.46.46 0 01-.45.36l-10.59-.06a.44.44 0 01-.43-.36l-.25-1.27a.48.48 0 010-.21.44.44 0 01.43-.33h-10.27l.43-87.61h3.36a.86.86 0 01.85.86v1.42h1.27l2.36 48.84h6.07c.17 0 .3.22.3.48v.51a.3.3 0 01-.3.29h1.92a.3.3 0 01.3.3v.51a.3.3 0 01-.3.3h1.88a.3.3 0 01.3.3v.5a.29.29 0 01-.3.3h2.17a.3.3 0 01.3.3v.51a.3.3 0 01-.3.3h2v-1.05a.19.19 0 01.18-.19h.33v-.63a.19.19 0 01.18-.18h4.12a.19.19 0 01.19.19v.74h.33a.18.18 0 01.19.19v1h.62a.3.3 0 01.29.3v.51a.3.3 0 01-.24.29h1.44a.64.64 0 01.57.79z" transform="translate(-19.66 -155.07)"/><path class="cls-38" transform="rotate(-90 1553.43 892.64)" d="M1645.3 958.44h3.85v.45h-3.85z"/><path class="cls-38" d="M1645 960.58h.07a2 2 0 001.75-2.18v-1.66h-.3v1.13A2.09 2.09 0 011645 960zm4.41.03h-.07a2 2 0 01-1.73-2.2v-1.66h.3v1.13a2.08 2.08 0 001.5 2.17zm-3.77 1.08l-.13-.62-.14.62zm.48.54h-.32l-.08-.27h-.43l-.08.28h-.32l.4-1.28a.25.25 0 01.08-.12.18.18 0 01.13-.06.24.24 0 01.24.2z" transform="translate(-19.66 -155.07)"/><path class="cls-38" d="M1627.2 806h-.28l-.01 1.16h-.31l.01-1.16h-.29l.01-.27h.87v.27z"/><path class="cls-38" d="M1647.47 961.7l-.12-.63-.15.63zm.48.54h-.32l-.08-.27h-.43l-.08.28h-.32l.4-1.28a.36.36 0 01.08-.12.2.2 0 01.14-.06.24.24 0 01.15.06.25.25 0 01.08.14zm1.05.01h-.37l-.3-.57v-.13c0-.06 0-.11.16-.15s.15-.09.15-.15a.21.21 0 000-.11.14.14 0 00-.1-.06h-.18v1.16h-.36V961a.19.19 0 01.06-.13.18.18 0 01.13-.06h.3a.46.46 0 01.31.13.37.37 0 01.13.29.35.35 0 01-.08.22.57.57 0 01-.21.15z" transform="translate(-19.66 -155.07)"/><path class="cls-38" transform="rotate(-89.72 1561.454 893.894)" d="M1648.53 961.38h1.44v.32h-1.44z"/><path class="cls-39" d="M450.6 975.49l-2.68 8a1.93 1.93 0 01-2.44 1.21l-.36-.12a1.83 1.83 0 01-.32-.14 1.94 1.94 0 01-.9-2.3l2.68-8a1.93 1.93 0 012.11-1.3 2 2 0 01.33.08l.36.12a1.94 1.94 0 011.22 2.45z" transform="translate(-19.66 -155.07)"/><path class="cls-4" d="M449.58 975.15l-2.68 8a1.61 1.61 0 11-3-1l2.68-8a1.61 1.61 0 113 1z" transform="translate(-19.66 -155.07)"/><path class="cls-40" d="M495.73 901.08a2.07 2.07 0 01-.18.83 1.78 1.78 0 01-.32.52l-6.16 7.45-1 1.15-1.94 2.36a2.12 2.12 0 01-3.26-2.7l1.65-2 1-1.19 6.45-7.78a.62.62 0 01.14-.14 2.11 2.11 0 012.84-.15 2.15 2.15 0 01.78 1.65z" transform="translate(-19.66 -155.07)"/><path class="cls-39" d="M487.7 982.47a2.12 2.12 0 01-1.46 2 2 2 0 01-1.12 0 2.06 2.06 0 01-1.55-1.38l-2.57-7.58a2 2 0 01-.11-.51 2.12 2.12 0 011.43-2.17 1 1 0 01.23-.06 2.1 2.1 0 011.84.47 2.15 2.15 0 01.62.91l2.56 7.66a2.23 2.23 0 01.13.66z" transform="translate(-19.66 -155.07)"/><path class="cls-4" d="M486.8 982.47a2.11 2.11 0 01-1.45 2 .59.59 0 01-.23 0 2.06 2.06 0 01-1.55-1.38l-2.57-7.58a2 2 0 01-.11-.51 2.12 2.12 0 011.43-2.17 1 1 0 01.23-.06 2.09 2.09 0 01.94.47 2.15 2.15 0 01.62.91l2.56 7.66a1.94 1.94 0 01.13.66z" transform="translate(-19.66 -155.07)"/><path class="cls-39" d="M500.87 917.73l-2.6-1.73-9.2-6.12-3.54-2.36-10.21-6.79a14.5 14.5 0 011.93-1.13 16.53 16.53 0 0114.87 0 19.09 19.09 0 011.72 1 17.16 17.16 0 011.71 1.31 16.58 16.58 0 015.32 15.82z" transform="translate(-19.66 -155.07)"/><path class="cls-4" d="M498.27 916l-9.2-6.12-3.54-2.36-10.21-6.79a14.5 14.5 0 011.93-1.13 16.5 16.5 0 0111.93 1.14 15.94 15.94 0 011.72 1 18.89 18.89 0 011.72 1.3 16.58 16.58 0 015.65 12.96z" transform="translate(-19.66 -155.07)"/><rect class="cls-40" x="441.32" y="896.84" width="4.23" height="18.46" rx="1.93" transform="rotate(-27.89 121.251 868.01)"/><path class="cls-39" d="M458.54 900.84l-2.87 1.67L432 916.25a16.55 16.55 0 0126.55-15.41z" transform="translate(-19.66 -155.07)"/><path class="cls-4" d="M455.67 902.51L432 916.25a15.62 15.62 0 0123.68-13.74z" transform="translate(-19.66 -155.07)"/><path class="cls-41" d="M503.18 940.93a37 37 0 01-4.29 17.35 37.42 37.42 0 01-14.48 15 34.69 34.69 0 01-3.5 1.76 37.13 37.13 0 01-14.9 3.1h-.67a36.81 36.81 0 01-14.6-3.25l-.11-.05c-1.07-.49-2.13-1-3.15-1.62l-.14-.08a37.19 37.19 0 01-3.6-61.93 34.38 34.38 0 013.54-2.34 36.9 36.9 0 0118.06-5.05h.66a37 37 0 0118.55 5 38.58 38.58 0 013.55 2.32 37.13 37.13 0 0115.08 29.79z" transform="translate(-19.66 -155.07)"/><path class="cls-4" d="M501.28 945.14a36.92 36.92 0 01-2.39 13.14 37.42 37.42 0 01-14.48 15 34.69 34.69 0 01-3.5 1.76 37.13 37.13 0 01-14.9 3.1h-.67a36.81 36.81 0 01-14.6-3.25l-.11-.05c-1.07-.49-2.13-1-3.15-1.62l-.14-.08a33.45 33.45 0 01-5.5-57.72 34.38 34.38 0 013.54-2.34 36.8 36.8 0 0118.06-5h.67a37 37 0 0118.55 4.95 38.58 38.58 0 013.55 2.32 37.12 37.12 0 0115.07 29.79z" transform="translate(-19.66 -155.07)"/><path class="cls-2" d="M496.68 940.93A30.67 30.67 0 11466 910.26a30.48 30.48 0 0130.68 30.67z" transform="translate(-19.66 -155.07)"/><path class="cls-4" d="M493.6 946.73a30.67 30.67 0 11-30.67-30.68 30.39 30.39 0 0130.67 30.68z" transform="translate(-19.66 -155.07)"/><circle class="cls-42" cx="446.35" cy="785.86" r="27.59"/><circle class="cls-41" cx="446.35" cy="785.86" r="1.49"/><path class="cls-42" d="M446.29 785.86v-13.99m-7.91 21.34l7.95-7.35"/><path d="M467.81 926.35l-1.54-1.56a.35.35 0 00-.49 0l-1.56 1.53a.35.35 0 00.23.6h3.1a.35.35 0 00.26-.57zm-10.02 19.79v2.19a.34.34 0 00.35.35h2.19a.34.34 0 00.24-.59l-2.2-2.19a.35.35 0 00-.58.24z" transform="translate(-19.66 -155.07)" stroke="#2b2b2b" fill="#2b2b2b" stroke-miterlimit="10"/></g><g id="SNES"><path class="cls-4" d="M831.83 953.5c-.12 18-14.49 32.45-32.07 32.32a31.19 31.19 0 01-19.12-6.72l-26-.19a168.28 168.28 0 001.36-51.42l-.88-6.79 40.73.29a32 32 0 014.41-.28 31.47 31.47 0 0110.16 1.77 32.51 32.51 0 0121.41 31.02z" transform="translate(-19.66 -155.07)"/><path d="M810.87 922.62a31.11 31.11 0 00-10.16-1.76 32 32 0 00-4.4.28l-40.73-.29-42.9-.31a31.07 31.07 0 00-4.45-.35 33.18 33.18 0 00-5 .37c-15.08 2.41-26.7 15.85-26.81 32.14-.13 18.09 13.92 32.85 31.37 33a30.78 30.78 0 0019.48-6.82l27.93.2 26 .18a31.1 31.1 0 0019.05 6.74c17.58.12 31.94-14.34 32.07-32.33a32.52 32.52 0 00-21.45-31.05z" transform="translate(-19.66 -155.07)" fill="none" stroke-miterlimit="10" stroke="#fff"/><path d="M831.83 953.5c-.12 18-14.49 32.45-32.07 32.32a31.19 31.19 0 01-19.12-6.72l-53.89-.39a30.7 30.7 0 01-19.48 6.82c-17.45-.12-31.5-14.88-31.37-33 .11-16.3 11.73-29.74 26.82-32.15a33 33 0 015-.36 31.07 31.07 0 014.45.35l83.63.59a32 32 0 014.41-.28 31.47 31.47 0 0110.16 1.77 32.51 32.51 0 0121.46 31.05z" transform="translate(-19.66 -155.07)" fill="#eae8ed"/><path d="M826.09 953.45a26.06 26.06 0 01-26.28 25.87h-.59a26.08 26.08 0 01.37-52.15h.59a26.09 26.09 0 0125.91 26.28z" transform="translate(-19.66 -155.07)" fill="#a9b1bb"/><path class="cls-4" d="M826.07 954.12c-.45 14.22-12.58 25.3-26.81 25.2l.1-.36a90.68 90.68 0 00.47-51l-.2-.74h.59a26.09 26.09 0 0125.85 26.9z" transform="translate(-19.66 -155.07)"/><path d="M727.48 952.75a20.09 20.09 0 01-20.23 20 8.51 8.51 0 01-.88 0 20.09 20.09 0 01.28-40.15 8.72 8.72 0 01.88 0 20.13 20.13 0 0119.95 20.15z" transform="translate(-19.66 -155.07)" fill="#d9dadd"/><path class="cls-4" d="M727.48 952.75a20.09 20.09 0 01-20.23 20 8.51 8.51 0 01-.88 0l.17-.85a98.86 98.86 0 00.19-38.89l-.08-.41a8.72 8.72 0 01.88 0 20.13 20.13 0 0119.95 20.15z" transform="translate(-19.66 -155.07)"/><g id="START_TEXT" data-name="START TEXT"><path d="M763.26 969.63h-.91a1 1 0 01-.45-.45c.47-.34.15-1.22.92-1.36.13-.17.33-.27.46-.45.39 0 .45.23.44.54v1.28c-.17.13-.19.41-.46.44z" transform="translate(-19.66 -155.07)" fill="#b7bbc0"/><path class="cls-48" d="M743.33 969.49c.07-.35-.22-.87.46-.91a.65.65 0 01.39.23l.06.23c-.15.49.89.53.23 1.23-.28.08-.83.51-1.14-.33q.18-.15.12-.3t-.12-.15z" transform="translate(-19.66 -155.07)"/><path d="M741.52 969.47V969a.83.83 0 01.21-.49l.23-.14a.46.46 0 01.47.19c-.19.62.47 1 .49 1.55-.45.36-.8.49-.95-.2-.16-.12-.29-.29-.45-.44z" transform="translate(-19.66 -155.07)" fill="#b9bcc1"/><path d="M767.35 967.85v2.22h-.93c.67-.7.46-1.48.5-2.22a.28.28 0 01.43 0zm-6.35-.05v2.22h-.93c.67-.69.45-1.47.49-2.21a.28.28 0 01.44-.01z" transform="translate(-19.66 -155.07)" fill="#a5aab0"/><path class="cls-51" d="M740.16 969.46h.84l.06.76c-.52.07-1.07.53-1.36-.32a.91.91 0 00.24-.37z" transform="translate(-19.66 -155.07)"/><path class="cls-52" d="M765.07 969.19a.35.35 0 00-.44.34.74.74 0 01-.4.65c0-.73-.42-1.4.4-1.9l.27.05a.92.92 0 01.38.4.42.42 0 01-.21.46z" transform="translate(-19.66 -155.07)"/><path class="cls-53" d="M748.33 967.26h1.34c-.21.54-.46.81-.89.9l-.23.28-.23-.29v-.45l-.29-.23z" transform="translate(-19.66 -155.07)"/><path d="M738.36 968.09a1.12 1.12 0 01.89 1.37.26.26 0 01-.45 0l-.89-1.37q.23-.3.45 0z" transform="translate(-19.66 -155.07)" fill="#a0a5ac"/><path d="M741.54 967.21h.46a1.1 1.1 0 010 1.36c-.36.29-.7 0-1.05 0a.93.93 0 01-.41-.35.63.63 0 01.05-.52c.24-.33.69-.19.95-.49z" transform="translate(-19.66 -155.07)" fill="#fafbfb"/><path d="M746.5 970h-.91v-1.82c.15-.19.3-.19.45 0 .17.44-.43 1.14.44 1.36.13.1.17.2.13.3s-.07.16-.11.16z" transform="translate(-19.66 -155.07)" fill="#9a9fa6"/><path d="M738.8 969.46h.45c-.48.83-1.15.32-2 .46.59-.72 1.11-.37 1.55-.46z" transform="translate(-19.66 -155.07)" fill="#c2c5ca"/><path class="cls-48" d="M744.25 968.14h.67c.26.84.26.83-.68.9a.78.78 0 01-.18-.73 1.54 1.54 0 01.19-.17z" transform="translate(-19.66 -155.07)"/><path d="M748.32 968.16h.46v2.18c-.67-.95-.36-1.6-.46-2.18zm-6.32.41v-1.36c.87.22.27.92.44 1.37z" transform="translate(-19.66 -155.07)" fill="#8e949c"/><path d="M745.61 967.69h-1.36c-.13-.1-.17-.2-.13-.3s.09-.15.13-.15c.45.16 1.15-.42 1.36.45z" transform="translate(-19.66 -155.07)" fill="#bec1c6"/><path d="M748.33 967.26v.45H747q-.45-.23 0-.45z" transform="translate(-19.66 -155.07)" fill="#b4b8bd"/><path d="M758.29 967.78c.29-.84.84-.36 1.34-.31-.2.51-.59.25-.89.32-.15.21-.3.21-.45-.01z" transform="translate(-19.66 -155.07)" fill="#b8bbc1"/><path class="cls-62" d="M765.09 967.38h.9v.91l-.21.18h-.28a1.3 1.3 0 01-.43-.34l-.12-.25a.45.45 0 01.14-.5z" transform="translate(-19.66 -155.07)"/><path d="M758.29 967.78h.45l.45.9q-.23.28-.45 0c-.68-.03-.38-.55-.45-.9z" transform="translate(-19.66 -155.07)" fill="#a1a6ac"/><path d="M741.08 968.11l.9.46c0 .32-.14.47-.46.45h-.45a.62.62 0 01.01-.91z" transform="translate(-19.66 -155.07)" fill="#e8e9ea"/><path d="M740.62 969c-.32 0-.47.13-.46.44a.26.26 0 01-.45 0c.07-.34-.22-.87.46-.9a.35.35 0 01.52-.06.34.34 0 01-.07.52z" transform="translate(-19.66 -155.07)" fill="#abafb5"/><path d="M746.5 970v-.45h.86a1 1 0 01-.73.82z" transform="translate(-19.66 -155.07)" fill="#ced0d4"/><path class="cls-67" d="M759.64 969.6c0 .68-.57.38-.91.45q-.45-.22 0-.45h.45l.23-.29z" transform="translate(-19.66 -155.07)"/><path class="cls-53" d="M763.26 969.63c0-.31.14-.46.46-.45-.06.27.12.59-.15.82-.29 0-.33-.15-.31-.37z" transform="translate(-19.66 -155.07)"/><path d="M765.46 969c.6.52.64.8.33 1.12-.47-.23-.18-.64-.33-1.12zm-27.35-1.29c.53-.6.81-.64 1.12-.33-.17.47-.58.18-1.12.33z" transform="translate(-19.66 -155.07)" fill="#acb1b7"/><path class="cls-67" d="M741.54 967.21c0 .68-.57.38-.91.45-.07-.08-.13-.16-.2-.23l.2-.23z" transform="translate(-19.66 -155.07)"/><path class="cls-51" d="M740.62 969v-.46q-.23-.15-.15-.3t.15-.15h.46v.91z" transform="translate(-19.66 -155.07)"/><path d="M744.25 967.23v.91l-.23.28-.23-.29c.07-.34-.21-.87.46-.9z" transform="translate(-19.66 -155.07)" fill="#90969d"/><path class="cls-70" d="M747 967.25v.45h-.46a.26.26 0 01-.45 0c.01-.7.54-.39.91-.45z" transform="translate(-19.66 -155.07)"/><path class="cls-71" d="M743.79 968.13h.46v.9c-.31 0-.46-.14-.45-.46z" transform="translate(-19.66 -155.07)"/><path class="cls-53" d="M761 967.8h-.46l-.39-.16c.14-.53.57-.2.85-.29q.46.23 0 .45z" transform="translate(-19.66 -155.07)"/><path class="cls-62" d="M761 967.8v-.45h.88c-.16.65-.59.36-.88.45zm-2.26.89h.45a.39.39 0 01.45.46q-.23.3-.45 0c-.32.01-.47-.15-.45-.46z" transform="translate(-19.66 -155.07)"/><path class="cls-53" d="M767.35 967.85h-.45l-.4-.16c.14-.52.57-.19.85-.29.3.15.3.3 0 .45z" transform="translate(-19.66 -155.07)"/><path class="cls-62" d="M767.35 967.85v-.46h.88c-.17.7-.6.36-.88.46zm-26.73.26v.45h-.45v-.91a.28.28 0 01.46 0z" transform="translate(-19.66 -155.07)"/><path class="cls-70" d="M746.06 967.7h.45a.38.38 0 01-.45.45h-.45v-.45z" transform="translate(-19.66 -155.07)"/><path d="M758.73 969.6v.45h-.89c.16-.7.61-.36.89-.45z" transform="translate(-19.66 -155.07)" fill="#bbbec3"/><path class="cls-52" d="M764.63 968.28v-.45a.26.26 0 01.45 0 .35.35 0 01.15.33c0 .13-.05.19-.08.19a.37.37 0 01-.52-.07z" transform="translate(-19.66 -155.07)"/><path class="cls-62" d="M765.53 968.29h.47c0 .31-.15.46-.46.45l-.16-.23z" transform="translate(-19.66 -155.07)"/><circle class="cls-53" cx="759.41" cy="969.38" r=".32" transform="rotate(-89.59 671.521 901.749)"/><path class="cls-73" d="M761.9 969.17q.48 0 .45.45h-.45z" transform="translate(-19.66 -155.07)"/><path class="cls-70" d="M741.52 969.47a.39.39 0 01.45.46c-.31.01-.46-.14-.45-.46z" transform="translate(-19.66 -155.07)"/><path class="cls-62" d="M743.33 969.49c.22 0 .42 0 .36.3 0 .07-.24.1-.36.15zm18.57.13a.32.32 0 01-.27.4s-.14-.1-.13-.13a.31.31 0 01.4-.27z" transform="translate(-19.66 -155.07)"/><path class="cls-71" d="M765.07 969.19v-.45c.15-.19.3-.18.45 0v.45zm-24.44-1.53h-.46c0-.31.15-.46.46-.45z" transform="translate(-19.66 -155.07)"/><path d="M763.28 967.36c0 .32-.15.47-.46.45-.01-.31.18-.46.46-.45z" transform="translate(-19.66 -155.07)" fill="#6f7680"/><path d="M739.71 969.46h.45c0 .32-.14.47-.46.45z" transform="translate(-19.66 -155.07)" fill="#787f88"/><path class="cls-73" d="M765.08 967.83h-.45c0-.32.14-.47.46-.45zm-26.72.26h-.45a.38.38 0 01.45-.45z" transform="translate(-19.66 -155.07)"/><path class="cls-51" d="M763 968.27q.32.22 0 .45-.27-.22 0-.45z" transform="translate(-19.66 -155.07)"/><path d="M765.53 968.74h-.45c-.32 0-.47-.15-.45-.46h.45c.15-.18.3-.18.45 0z" transform="translate(-19.66 -155.07)" fill="#ebeced"/><path d="M765.53 968.29h-.45v-.45c.32-.02.47.16.45.45z" transform="translate(-19.66 -155.07)" fill="#fefefe"/></g><g id="DPAD"><path d="M719.8 950.56v6.12c-.35.31-.73.66-1.23 1.09h-6.94c-.63 0-.44.5-.44.82v6.65c-.29.28-.48.5-.7.69h-6.56a.52.52 0 01-.63.12 1.5 1.5 0 01-.65-.25 2.26 2.26 0 01-.29-.26 2.68 2.68 0 01-.55-.94c-.52-1.76.3-3.64-.44-5.41-1.12-1-2.44-.39-3.67-.46-3-.24-3.88-1.07-3.89-4v-4.26c.26-1.79 1.58-2.16 3.09-2.31s3 .34 4.43-.53a17.41 17.41 0 00.63-4.55 2.95 2.95 0 01.74-2.25 4.71 4.71 0 013.8-1.2h.16a8.13 8.13 0 002.26.18 2 2 0 012.44 1.68v6.46c0 .32-.16.79.44.79 0 .6.46.44.81.45h6.25c.14.36.48.81.94 1.37z" transform="translate(-19.66 -155.07)" fill="#656d78"/><path class="cls-79" d="M707.26 950c2.49.73 2.73 2.22 2.58 3.35-.73 2.5-2.22 2.73-3.36 2.59-2.49-.73-2.72-2.23-2.58-3.36.73-2.52 2.22-2.75 3.36-2.58zm-2.65-2.73l-.75-.87a39.93 39.93 0 013.42-4.91c.74 2 2.08 3.39 2.92 5.14-.18.55-.65.7-1.28.68-1.42-.04-2.84-.03-4.31-.04zm8.81 2.81c2 .74 3.35 2.06 5.05 3-.25 1.22-1.45 1.18-2.23 1.69s-1.62 1.16-2.62 1.89c-.41-2.35-.03-4.45-.2-6.58zm-3.42 9.53c-1 1.91-1.76 3.61-3.22 4.92a41.67 41.67 0 01-3-5zm-9.34-3.29l-5.21-3.23 5.25-3.16z" transform="translate(-19.66 -155.07)"/></g><path d="M807.58 946.82l-6.58 5.35-1.55 1.25-6.69 5.38a5.6 5.6 0 01-7.88-.84l-.9-1.13a5.57 5.57 0 01.84-7.88l14.7-11.95.09-.06a5.07 5.07 0 011.45-.84 5.64 5.64 0 016.46 1.68l.9 1.14a5.61 5.61 0 01-.84 7.9zm9.53 10.74l-14.84 12a4.81 4.81 0 01-1.45.83 3.68 3.68 0 01-1.54.34 5.47 5.47 0 01-4.89-2l-.9-1.13a5.57 5.57 0 01.84-7.88l5-4.07 1.55-1.25 8.24-6.66a5.6 5.6 0 017.88.84l.93 1.14a5.59 5.59 0 01-.82 7.84z" transform="translate(-19.66 -155.07)" fill="#f4f6f9"/><path d="M808.08 942.65a5.32 5.32 0 11-5.27-5.34 5.32 5.32 0 015.27 5.34z" transform="translate(-19.66 -155.07)" fill="#44c7f4"/><path d="M795.13 953a5.32 5.32 0 11-5.3-5.34 5.33 5.33 0 015.3 5.34z" transform="translate(-19.66 -155.07)" fill="#26de9a"/><path d="M817.67 953.39a5.32 5.32 0 11-5.3-5.34 5.31 5.31 0 015.3 5.34z" transform="translate(-19.66 -155.07)" fill="#ec1d71"/><path d="M804.63 963.94a5.31 5.31 0 11-5.27-5.37 5.32 5.32 0 015.27 5.37z" transform="translate(-19.66 -155.07)" fill="#f2e353"/><path class="cls-4" d="M808.08 942.65a5.32 5.32 0 01-5.34 5.3l.55-1.44a11 11 0 00.06-7.76l-.54-1.44a5.32 5.32 0 015.27 5.34zm9.59 10.71a5.32 5.32 0 01-5.34 5.3l.55-1.44a10.92 10.92 0 00.06-7.76l-.53-1.44a5.32 5.32 0 015.26 5.34zm-22.54-.36a5.32 5.32 0 01-5.34 5.3l.55-1.44a10.92 10.92 0 00.06-7.76l-.53-1.44a5.31 5.31 0 015.26 5.34zm9.5 10.94a5.32 5.32 0 01-5.34 5.3l.55-1.44a11 11 0 00.06-7.76l-.54-1.45a5.33 5.33 0 015.27 5.35z" transform="translate(-19.66 -155.07)"/><path d="M766.32 958a1.92 1.92 0 01-.73 1.51l-3.18 2.55-1.36 1.09a1.94 1.94 0 11-2.43-3l3.82-3.06.72-.58a1.95 1.95 0 013.16 1.52zm-14.47-.06a1.92 1.92 0 01-.73 1.51l-3.71 3-.83.67a1.94 1.94 0 01-2.43-3l3.3-2.65 1.24-1a2 2 0 012.73.29 1.9 1.9 0 01.43 1.18z" transform="translate(-19.66 -155.07)" fill="#666e79"/><path class="cls-4" d="M766.32 958a1.92 1.92 0 01-.73 1.51l-3.18 2.55-.09-.66a13.33 13.33 0 010-3.34l.12-1 .62-.5a2.06 2.06 0 012.85.24 1.94 1.94 0 01.41 1.2zm-14.49-.1a1.93 1.93 0 01-.73 1.51l-3.18 2.59-.09-.65a13.33 13.33 0 010-3.34l.17-1 .6-.49a2 2 0 012.82.22 1.92 1.92 0 01.41 1.16z" transform="translate(-19.66 -155.07)"/><path class="cls-79" d="M740.8 929a.79.79 0 00-.74.63v.93a1 1 0 00.06.4c.06.34 1.18 1.91 1.14 2.15s-.17.94-.17.94a.46.46 0 01-.44.43.35.35 0 01-.35-.43l.22-1.17h-.84l-.3 1.62a.49.49 0 00.49.6h1.2a.74.74 0 00.72-.58s.32-1.51.32-1.62v-.12a12.88 12.88 0 00-1.1-1.85s-.08-.19-.08-.29.14-.75.14-.75a.53.53 0 01.51-.43c.23 0 .33.19.29.43l-.19 1.05h.85l.3-1.57a.51.51 0 00-.49-.64zm2.31 0l-1 5.78a.49.49 0 00.49.6h1.2a.75.75 0 00.72-.58l1.11-5.78h-.75l-1.06 5.62a.2.2 0 01-.18.15H743a.12.12 0 01-.12-.16l1-5.61zm2.89 0l-1.26 6.37h.81l.57-2.89h1a.76.76 0 00.72-.58l.45-2.27a.51.51 0 00-.49-.64H746zm2.87 0l-1.3 6.37h1.81l.13-.79h-.89l.38-2.15h.89l.13-.66h-.89l.41-2h.89l.13-.79zm2.16 0l-1.25 6.37h.8l.57-2.88h.57a.42.42 0 01.09.27 1.06 1.06 0 010 .31c0 .09-.46 2.31-.46 2.31h.81s.47-2.41.47-2.45a.47.47 0 000-.24.51.51 0 00-.13-.18 1.56 1.56 0 00-.24-.12h-.06c.23-.09.67-.24.72-.48l.45-2.26a.5.5 0 00-.5-.64zm4.3 0l-1.26 6.37h.93l.77-3.69.27 3.7h.8l1.26-6.37h-.92l-.66 3.33-.39-3.34zm3.19 0l-1.26 6.37h.81l1.25-6.37zm1.22 0l-1.25 6.37h.93l.77-3.7.27 3.7h.8l1.26-6.37h-.93l-.64 3.33-.4-3.34zm3.12 0l-.16.79h.5l-1 5.59h.92l1-5.58h.48l.13-.79zm2.21 0l-1.3 6.37h1.81l.13-.79h-.89l.38-2.15h.89l.13-.67h-.89l.4-2h.9l.13-.79zm2 0l-1.26 6.37h.93l.77-3.69.27 3.7h.81l1.25-6.37H769l-.65 3.33-.39-3.33zm3.2 0l-1.26 6.37h1.83a.76.76 0 00.72-.59l1-5.15a.5.5 0 00-.5-.63zm3.44 0a.8.8 0 00-.74.63l-.93 5.15a.48.48 0 00.48.59h1.33a.77.77 0 00.72-.59l1-5.14a.51.51 0 00-.5-.64zm-2.77.71h.37a.35.35 0 01.36.43l-.82 4.17a.55.55 0 01-.51.43H770zm3.24 0a.35.35 0 01.35.43l-.78 4.17a.53.53 0 01-.5.43c-.24 0-.34-.2-.29-.44l.77-4.17v-.23h.23zm-27.45-.17h.39c.08 0 .26.2.25.28l-.35 1.58c0 .08-.13.27-.21.27h-.59l.39-1.92a.17.17 0 01.16.03zm5 0h.39c.09 0 .27.2.25.29l-.34 1.57a.58.58 0 01-.31.27h-.34a.13.13 0 01-.13-.12l.39-1.93h.09zM739 935.89v2.09l35.84.26v-2.09zm26.34.41h.31a.11.11 0 01.11.14l-.07.35h-.17v-.23a.08.08 0 00-.07-.1.13.13 0 00-.12.1v.23a2.75 2.75 0 01.24.41l-.08.35a.16.16 0 01-.15.13h-.27a.1.1 0 01-.1-.13l.06-.36h.18v.26a.08.08 0 00.07.1.14.14 0 00.12-.1v-.21a4.66 4.66 0 01-.27-.47.22.22 0 010-.09v-.27h.13zm1.45 0h.21v.54l.29-.54h.23l-.47.81-.12.59h-.2l.11-.64zm2 0h.31a.11.11 0 01.11.14l-.07.35H769v-.24a.07.07 0 00-.08-.09.12.12 0 00-.11.09v.24a3.26 3.26 0 01.24.4l-.06.36a.18.18 0 01-.16.13h-.27a.11.11 0 01-.11-.14l.07-.35h.18v.25c0 .06 0 .11.07.11a.13.13 0 00.11-.1v-.21c0-.09-.25-.4-.26-.48a.12.12 0 010-.09v-.27h.13zm1.46 0h.42v.17h-.11l-.22 1.24h-.21l.23-1.24h-.11zm1.65 0h.37v.17h-.19l-.08.53h.2v.15h-.2l-.08.47h.19v.17h-.4zm1.55 0h.23v.82l.37-.81h.22l-.25 1.42h-.17l.15-.73-.32.74h-.13v-.76l-.14.76h-.21zm-33.72-.19h.37v.18h-.2l-.09.43h.2v.15h-.2l-.08.48h.2v.18h-.41zm1.73 0h.17l.09.74.15-.74h.2l-.28 1.41h-.17l-.06-.82-.17.82h-.21zm1.88 0h.42v.17h-.11l-.23 1.24h-.2l.23-1.24h-.12zm1.83 0h.38v.18h-.19l-.09.44h.19v.15h-.2l-.08.48h.19v.18h-.41zm1.77 0h.4c.08 0 .12.07.11.15l-.1.5s-.11.1-.16.12h.1v.07l-.11.56H747s.1-.49.11-.51 0 0 0-.07a.07.07 0 000-.06H747l-.13.64h-.18zm1.8 0h.42v.17H749l-.23 1.24h-.2l.23-1.24h-.12zm2.09 0h.24l-.09 1.42h-.24v-.33h-.14l-.12.32h-.21zm1.67 0h.18l-.28 1.42h-.18zm1.62 0h.17l.09.74.14-.74h.21l-.28 1.41h-.18l-.06-.82-.17.82h-.2zm2.07 0h.24v.82l.36-.81h.23l-.25 1.41h-.18l.12-.75-.32.75h-.12v-.77l-.15.76h-.2zm2.28 0h.37v.18h-.2l-.09.44h.2v.15h-.2l-.09.47h.21v.17h-.39zm1.82 0h.18l.09.74.14-.74h.2l-.27 1.42h-.18l-.06-.83-.17.82H760zm1.87 0h.42v.18h-.11l-.23 1.24H762l.23-1.25h-.11zm-15 .06l-.08.43h.08a.13.13 0 00.07-.05l.07-.36v-.06zm3.71.45l-.13.36h.1z" transform="translate(-19.66 -155.07)"/><g id="g3512"><path id="path3324" class="cls-79" d="M728.53 933.27v-.3h1.66c1.07 0 1.93.46 1.92 1s-.87 1-1.94 1-1.64-1.16-1.64-1.7z" transform="translate(-19.66 -155.07)"/><path id="path3326" class="cls-79" d="M732.09 935.11v-.26h1.79c1.12 0 2 .48 2 1s-.92 1-2 1-1.8-1.18-1.79-1.74z" transform="translate(-19.66 -155.07)"/><path id="path3328" class="cls-79" d="M732.94 932.86h.91l.08-.05h.07l.06-.06h.07l.06-.06.06-.06v-.07l.06-.07V931a1.84 1.84 0 00-3.67 0h.08a1.84 1.84 0 011.82 1.85" transform="translate(-19.66 -155.07)"/><path id="path3330" class="cls-79" d="M736.49 934.7h.82l.08-.05h.13l.07-.06h.06l.06-.06.06-.06.05-.06v-.14l.05-.07v-.91a1.79 1.79 0 00-3.57 0h.07a1.77 1.77 0 011.77 1.8" transform="translate(-19.66 -155.07)"/></g></g><g id="MEGA_DRIVE" data-name="MEGA DRIVE"><path class="cls-86" d="M257.49 802.28h.33l7.29-1.06 27.6-4L300 796h.34m1.23 1.14l9.48 64.86c.4 2.76-.09 3.42-.82 3.53l-42.31 6.19c-.73.1-1.4-.39-1.8-3.16l-9.48-64.85z" transform="translate(-19.66 -155.07)"/><path class="cls-4" d="M301.57 797.14l9.48 64.86c.4 2.76-.09 3.42-.82 3.53l-19.61 2.87-10-68.2z" transform="translate(-19.66 -155.07)"/><path class="cls-86" d="M301.55 797.07a.19.19 0 000 .07v.07l.57 3.92-8.66 1.27-27.61 4-8.66 1.26-.57-3.92v-.07a.17.17 0 010-.07 1.33 1.33 0 01.86-1.36h.33l7.29-1.06 27.6-4L300 796h.34" transform="translate(-19.66 -155.07)"/><path class="cls-86" d="M293.05 796.44h6.07a2.69 2.69 0 012.69 2.69v2.66h-8.76v-5.35z" transform="rotate(-8.32 -778.47 856.638)"/><path class="cls-86" d="M256.79 801.75h8.76v2.66a2.69 2.69 0 01-2.69 2.69h-6.07v-5.35z" transform="rotate(171.68 256.968 726.173)"/><path class="cls-17" d="M269.29 807.76h26.19V826a6.64 6.64 0 01-6.64 6.64h-19.55v-24.88z" transform="rotate(-8.32 -793.48 877.73)"/><path class="cls-21" transform="rotate(-8.32 -793.622 877.788)" d="M272.69 810.62h19.17v19.25h-19.17z"/><path class="cls-4" d="M270.71 654.27l2.78 19.05-.14.02-21.6-16.18-.01-.12 18.97-2.77z"/><path fill="#69cc51" d="M270.64 653.8l.07.47-18.97 2.77 2.78 19.05-.54.08-2.85-19.52 19.51-2.85z"/><path fill="#448535" d="M253.98 676.17l.49-.4 18.47-2.64-2.69-18.79.39-.54 2.91 19.72-19.57 2.65z"/><path class="cls-17" d="M280.73 846.93l.16 1.11a.44.44 0 01-.17.43.46.46 0 01-.24.12l-2.32.34.4 2.77a.48.48 0 01-.4.54l-1 .15a.5.5 0 01-.54-.41l-.41-2.77-2.32.34a.47.47 0 01-.54-.4l-.17-1.12a.49.49 0 01.41-.55l2.32-.33-.32-2.18a.49.49 0 01.41-.55l1-.15a.48.48 0 01.54.41l.32 2.18 2.32-.34a.67.67 0 01.2 0 .48.48 0 01.35.41z" transform="translate(-19.66 -155.07)"/><path class="cls-4" d="M277.54 844.68l.32 2.18-.41-.8a3.8 3.8 0 00-1.6-1.6l1.15-.19a.48.48 0 01.54.41zm3.19 2.25l.16 1.11a.44.44 0 01-.17.43l-.08-.16a3.78 3.78 0 00-1.62-1.62l1.17-.17a.41.41 0 01.19 0 .48.48 0 01.35.41z" transform="translate(-19.66 -155.07)"/><path class="cls-10" d="M298.36 845.36a2.33 2.33 0 01-.54 1.88 2.38 2.38 0 11.54-1.88zm5.79-3.26a2.38 2.38 0 11-4.71.69 2.35 2.35 0 01.14-1.21 2.38 2.38 0 014.57.52z" transform="translate(-19.66 -155.07)"/><path class="cls-24" d="M298 846a2.31 2.31 0 01-.14 1.2 2.38 2.38 0 01-4-2.39A2.38 2.38 0 01298 846zm5.44-3a1.46 1.46 0 01-1.49 1.86 2.19 2.19 0 01-2.49-1.86 2.29 2.29 0 01.13-1.11 2.23 2.23 0 011.36-.75 2.19 2.19 0 012.49 1.86z" transform="translate(-19.66 -155.07)"/><path class="cls-17" d="M291.13 852.4a.73.73 0 01-.1.47l-.82 1.31-1 1.72a.71.71 0 01-1 .2.7.7 0 01-.23-1l1-1.69.8-1.3a.7.7 0 011-.23.69.69 0 01.35.52z" transform="translate(-19.66 -155.07)"/><path class="cls-24" d="M290.31 853.71a.62.62 0 01-.1.47l-1 1.72a.71.71 0 01-1 .2.7.7 0 01-.23-1l1-1.69a.71.71 0 01.95-.22.69.69 0 01.38.52z" transform="translate(-19.66 -155.07)"/><path class="cls-17" d="M287 853a.72.72 0 01-.1.47l-.82 1.32-1.08 1.72a.71.71 0 01-.95.19.69.69 0 01-.23-1l1-1.69.8-1.3a.7.7 0 011.38.29z" transform="translate(-19.66 -155.07)"/><path class="cls-24" d="M286.17 854.32a.63.63 0 01-.1.47l-1.07 1.72a.71.71 0 01-.95.19.69.69 0 01-.23-1l1-1.69a.69.69 0 011.27.29z" transform="translate(-19.66 -155.07)"/><path d="M279.98 696.5l7.23 5.38m-8.23-4.04l7.23 5.38m-8.58-4.04l7.24 5.39m-8.23-4.05l7.23 5.39m-8.68-3.7l7.23 5.39m-8.23-4.04l7.23 5.38" stroke="#6e6e6e" stroke-width=".5" fill="none" stroke-miterlimit="10"/><path class="cls-90" d="M1071.07 852.55a40.64 40.64 0 01-3 4.63c-6.7 9.05-16.21 14-23.66 15-15 1.94-18.63-20.85-18.63-20.85-11.59-6.35-22.1-8.55-30.9-8.7h-.06c-8.78.06-19.27 2.14-30.9 8.32 0 .14-.17.93-.47 2.13-.06.21-.12.44-.18.68-.27 1-.63 2.17-1.09 3.46a35.91 35.91 0 01-2.53 5.61 24.14 24.14 0 01-2.13 3.21c-2.88 3.64-6.92 6.29-12.49 5.5-14.9-2.12-37.8-20.42-29.62-54.87l.15-.6a11.92 11.92 0 01.82-1.64c2.81-4.9 13.88-19.46 48.54-25.9a185.71 185.71 0 0122.66-2.68l1.26-.07h.63q2.67-.13 5.25-.18h.74q2.79.08 5.7.27c63.8 4.11 73.51 31.24 73.51 31.24 3.48 14.79 1.26 26.61-3.6 35.44z" transform="translate(-19.66 -155.07)"/><path class="cls-6" d="M1069.1 855.48c-.32.58-.65 1.15-1 1.7-6.7 9.05-16.21 14-23.66 15-15 1.94-18.63-20.85-18.63-20.85-11.59-6.35-22.1-8.55-30.9-8.7h-.06c-8.78.06-19.27 2.14-30.9 8.32a60.36 60.36 0 01-1.74 6.27c-2.26 6.69-4.57 8.74-4.66 8.82-2.88 3.64-6.92 6.29-12.49 5.5-14.9-2.12-37.8-20.42-29.62-54.87l.15-.6a11.92 11.92 0 01.82-1.64c5-6.45 17.87-18 48.54-23.32a191.22 191.22 0 0122.58-2.44c1.94-.1 3.84-.16 5.7-.2h1.69c1.41.06 2.84.13 4.3.22a189.72 189.72 0 0124 3c42.32 8.26 49.46 28.24 49.46 28.24 3.49 14.9 1.32 26.71-3.58 35.55z" transform="translate(-19.66 -155.07)"/><path class="cls-91" d="M1023.27 788.48L1012.8 787q-2.77-.37-5.57-.59l-8.65-.64c-1.45-.16-3-.24-4.5-.26a42.2 42.2 0 00-4.35.19l-8.66.49q-2.8.16-5.58.49L965 788v3.07a2.9 2.9 0 002.9 2.9h26.23l26.23.44a2.9 2.9 0 003-2.85z" transform="translate(-19.66 -155.07)"/><path class="cls-90" d="M1064.63 844.82c-5.08 7.18-17 7.75-28.49 2a43.65 43.65 0 01-5.56-3.35c-12.9-9.11-18.55-23.28-12.64-31.65 4.26-6 13.35-7.39 22.92-4.29a41.82 41.82 0 0111.12 5.64c12.9 9.11 18.56 23.28 12.65 31.65z" transform="translate(-19.66 -155.07)"/><path class="cls-4" d="M1062.67 843.63c-4.26 6-13.35 7.4-22.93 4.29a42.52 42.52 0 01-5.56-3.35c-12.9-9.11-18.55-23.27-12.64-31.64 4.26-6 13.35-7.4 22.92-4.3A44.83 44.83 0 011050 812c12.92 9.09 18.58 23.26 12.67 31.63z" transform="translate(-19.66 -155.07)"/><ellipse class="cls-92" cx="1039.74" cy="827.23" rx="16.93" ry="25.06" transform="rotate(-54.75 880.245 768.692)"/><ellipse class="cls-90" cx="948.26" cy="824.04" rx="28.58" ry="18.55" transform="rotate(-21.16 523.43 799.205)"/><ellipse class="cls-92" cx="950.02" cy="823.36" rx="25.06" ry="16.93" transform="rotate(-21.16 525.195 798.51)"/><path class="cls-93" d="M966.69 822a14.88 14.88 0 11-15.08-14.68A14.83 14.83 0 01966.69 822z" transform="translate(-19.66 -155.07)"/><path class="cls-4" d="M965.3 823.79A12.39 12.39 0 01952 837.1a14 14 0 1113.29-13.31z" transform="translate(-19.66 -155.07)"/><path class="cls-93" d="M1029.84 824.12a3.74 3.74 0 01-6.3-1.44 3.66 3.66 0 01.1-2.49 3.74 3.74 0 116.2 3.93zm-32.57 14.65a2.65 2.65 0 01-4.75-.65 2.6 2.6 0 01.05-1.7 2.64 2.64 0 015 .14 2.63 2.63 0 01-.3 2.21z" transform="translate(-19.66 -155.07)"/><path class="cls-6" d="M997.27 838.77a2.65 2.65 0 01-4.75-.65 2 2 0 011.49-2.79 2.64 2.64 0 013.26 3.44z" transform="translate(-19.66 -155.07)"/><path class="cls-93" d="M1038.3 820a3.75 3.75 0 01-6.31-1.44 3.81 3.81 0 01.1-2.5 3.74 3.74 0 116.21 3.94zm9.61-2a3.74 3.74 0 01-6.21-3.94 3.74 3.74 0 116.21 3.94z" transform="translate(-19.66 -155.07)"/><path class="cls-91" d="M1031.6 834.64a4.71 4.71 0 01-8-1.68 4.64 4.64 0 01.2-3.29 4.69 4.69 0 117.84 5zm12.4-3.84a4.64 4.64 0 01-2.17 1.42 4.69 4.69 0 01-5.87-3.09 4.64 4.64 0 01.2-3.29 4.69 4.69 0 117.84 5zm12.54-3.9a4.64 4.64 0 01-2.17 1.42 4.68 4.68 0 112.17-1.42z" transform="translate(-19.66 -155.07)"/><path class="cls-4" d="M1029.84 824.12a3.74 3.74 0 01-6.3-1.44 2.37 2.37 0 011.72-3.51 3.73 3.73 0 014.58 5zm8.46-4.12a3.75 3.75 0 01-6.31-1.44 3.81 3.81 0 01.1-2.5 3.74 3.74 0 016.21 3.94zm9.61-2a3.74 3.74 0 01-6.21-3.94 3.74 3.74 0 016.21 3.94z" transform="translate(-19.66 -155.07)"/><path d="M1031.6 834.64a4.71 4.71 0 01-8-1.68 3.29 3.29 0 012.36-4.71 4.7 4.7 0 015.68 6.39zm12.4-3.84a4.64 4.64 0 01-2.17 1.42 4.69 4.69 0 01-5.87-3.09 3.29 3.29 0 012.36-4.71 4.69 4.69 0 015.68 6.38zm12.54-3.9a4.64 4.64 0 01-2.17 1.42 3.28 3.28 0 112.17-1.42z" transform="translate(-19.66 -155.07)" opacity=".1"/><path d="M1000.79 830.54a1.76 1.76 0 01-.51 1.23 1.75 1.75 0 01-1.2.48h-7.38a1.72 1.72 0 01-1.73-1.73 1.7 1.7 0 01.2-.81 1.53 1.53 0 01.31-.41 1.68 1.68 0 011.22-.51h7.36a1.74 1.74 0 011.73 1.75z" transform="translate(-19.66 -155.07)" fill="red"/><path class="cls-34" d="M965.26 820.19v4.21a1.13 1.13 0 01-.7 1.07 1.07 1.07 0 01-.43.09l-9.07.13.11 8.46a1.15 1.15 0 01-.7 1.08 1.57 1.57 0 01-.43.09h-4.2a1.15 1.15 0 01-1.17-1.13l-.12-8.46-9.06.12a1.15 1.15 0 01-1.17-1.14l-.06-4.2a.62.62 0 010-.19 1.15 1.15 0 011.12-1l9.07-.12-.13-9a1.23 1.23 0 010-.19 1.13 1.13 0 011.12-1l4.2-.06a1.15 1.15 0 011.17 1.13l.12 9 9.07-.12a1.15 1.15 0 011.26 1.23z" transform="translate(-19.66 -155.07)"/><path class="cls-25" d="M965.26 820.19v4.21a1.13 1.13 0 01-.7 1.07 1.07 1.07 0 01-.43.09l-9.07.13.11 8.46a1.15 1.15 0 01-.7 1.08 1.57 1.57 0 01-.43.09h-3.54a1.14 1.14 0 01-1.17-1.13l-.12-8.46-9.06.12a1.15 1.15 0 01-1.17-1.14l-.06-4.2a1.21 1.21 0 010-.19 1.15 1.15 0 011.13-1l9.06-.13-.12-9a1.23 1.23 0 010-.19 1.14 1.14 0 011.12-1h3.54a1.15 1.15 0 011.17 1.13l.12 9 9.07-.12a1.15 1.15 0 011.25 1.18z" transform="translate(-19.66 -155.07)"/><path class="cls-6" d="M1000.43 831a1.17 1.17 0 01-1.4 1.29h-7.36a1.73 1.73 0 01-1.73-1.73 1.6 1.6 0 01.21-.81 1.7 1.7 0 011.19-.48h7.36a1.72 1.72 0 011.73 1.73z" transform="translate(-19.66 -155.07)"/><path class="cls-90" d="M954.37 822.62A2.53 2.53 0 01954 824a2.59 2.59 0 01-2.17 1.26 2.57 2.57 0 01-2.59-2.53v-.3a2.56 2.56 0 015.1.23z" transform="translate(-19.66 -155.07)"/><path class="cls-6" d="M954 823.65v.31a2.59 2.59 0 01-2.17 1.26 2.57 2.57 0 01-2.59-2.53v-.3a2.56 2.56 0 014.76 1.26z" transform="translate(-19.66 -155.07)"/><text class="cls-96" transform="matrix(.98 -.18 .18 .98 1006.51 679.17)">A</text><text class="cls-96" transform="matrix(.98 -.18 .18 .98 1018.94 675.3)">B</text><text class="cls-96" transform="matrix(.98 -.18 .18 .98 1031.24 671.36)">C</text><text class="cls-97" transform="matrix(.98 -.18 .18 .98 1024.28 662.32)">Z</text><text class="cls-97" transform="matrix(.98 -.18 .18 .98 1014.28 664.52)">Y</text><text class="cls-97" transform="matrix(.98 -.18 .18 .98 1005.96 668.75)">X</text><path id="rect7344" class="cls-93" d="M1008.45 805.16l.41.62h1.14l-.41-.62zm3.4 0l-.41.62h1.12l.42-.62zm-35.67.06v.56h5.47a.53.53 0 00-.49-.56zm6 0v.56h3.6v-.56zm4.62 0a.53.53 0 00-.5.56h4.25v-.56zm4.76 0a.52.52 0 00-.49.56h4a.54.54 0 00-.51-.56zm5.9 0v.56h4.2a.53.53 0 00-.49-.56zm5.34 0a.53.53 0 00-.47.56h4.11a.53.53 0 00-.49-.56zm4.24 0v.56h1v-.56zm6.28 0v.56h3.6v-.56zm-39.48.48a.65.65 0 10.64.65.64.64 0 00-.6-.65zm45.11 0a.65.65 0 100 1.3.65.65 0 000-1.3zm-42.81.26v1.67h1V806zm2.23 0v1.67h1V806zm2.22 0v1.67h1V806zm1.59 0V807a.66.66 0 00.69.6h2.91v-.56h-2.36a.24.24 0 01-.23-.23v-.14h2.42v-.51h-2.19a.24.24 0 01-.23-.23zm4.12 0v1.09a.65.65 0 00.62.58h3a.73.73 0 00.67-.72.71.71 0 00-.72-.72h-1.74v.51h1.25a.18.18 0 01.17.19.18.18 0 01-.17.18h-1.85a.18.18 0 01-.18-.18V806zm4.76 0v1.67h1V806zm3 0v.5h-1.83v.65h1.83v.52h1V806zm3.38 0v1.67h1V806zm3.19 0v.93a.18.18 0 01-.17.18h-1.87v.56h2.42a.65.65 0 00.63-.62v-1zm1.68 0v1.67h1V806zm3.1 0v.33a.18.18 0 01-.17.18h-1.7v.65h1.46l.51.52h1.2l-.69-.7a.73.73 0 00.44-.67V806h-1zm1.61 0v1.67h1V806zm1.9 0l1.11 1.67h1.24l1.1-1.67h-1.12l-.61.92-.61-.92zm4.38 0V807a.66.66 0 00.69.6h3.01v-.56h-2.37a.23.23 0 01-.22-.23v-.14h2.41v-.51h-2.19a.23.23 0 01-.22-.23z" transform="translate(-19.66 -155.07)"/><path id="path16-1" class="cls-93" d="M1001.24 798.56l-1.57 4.76h.78l1.57-4.59a.5.5 0 01.44-.38.45.45 0 01.43.38l1.34 3.9h-2.12v.69h3.11l-1.57-4.76a1.26 1.26 0 00-1.22-.91 1.24 1.24 0 00-1.19.91zm.9 3l.26-.81.29.81zm-.12-2.35l-1.39 4.13h.9l.58-1.72v.81h1.83l-1.08-3.22c-.05-.18-.23-.7-.4-.7s-.38.49-.46.66zm-4.94-.61h2.7v-.79H997a1.37 1.37 0 00-1.37 1.37V802a1.36 1.36 0 001.37 1.36h2.79v-3.63h-2.21v.7H999v2.12h-2a.64.64 0 01-.64-.64v-2.7a.69.69 0 01.67-.64zm.52 2.06v.79h.47v.2h-.47a.19.19 0 01-.2-.2v-1.69a.19.19 0 01.2-.2h2.21v-.79h-2.53a.64.64 0 00-.64.64v2.33a.64.64 0 00.64.64h1.54v-1.75h-1.22zm-5-2.06h2.7v-.79h-2.79a1.37 1.37 0 00-1.37 1.37v2.79a1.38 1.38 0 001.37 1.37h2.79v-.79h-2.7a.64.64 0 01-.64-.64v-2.71a.64.64 0 01.64-.64zm2.15 1.86v-.7H993a.19.19 0 01.2-.2h2.21v-.79h-2.61a.64.64 0 00-.64.64v1h2.59zm0 .26v.7H993a.2.2 0 00.2.2h2.21v.79h-2.61a.65.65 0 01-.64-.64v-1zm-6.66 1h-1.63v.7H989a.9.9 0 00.85-.88.86.86 0 00-.88-.87h-1a1.09 1.09 0 01-.72-1 1.14 1.14 0 011.13-1.07h2.42v-.79h-2.53a1.82 1.82 0 00-1.81 1.8 1.87 1.87 0 001.86 1.81h.59a.12.12 0 010 .23zm1.08-2.18h1.63v-.7h-2.53a.89.89 0 00-.85.87.85.85 0 00.87.87h1a1.11 1.11 0 01.73 1 1.15 1.15 0 01-1.13 1.08h-2.42v.78H989a1.81 1.81 0 001.81-1.8 1.87 1.87 0 00-1.89-1.8h-.59a.13.13 0 01-.11-.12.12.12 0 01.11-.11z" transform="translate(-19.66 -155.07)"/><path class="cls-4" d="M1071.07 852.55a40.64 40.64 0 01-3 4.63c-6.7 9.05-16.21 14-23.66 15-15 1.94-18.63-20.85-18.63-20.85-11.59-6.35-22.1-8.55-30.9-8.7a252.85 252.85 0 00.27-54.45l-.27-2.61h.57q2.79.08 5.7.27c63.8 4.11 73.51 31.24 73.51 31.24 3.49 14.82 1.27 26.64-3.59 35.47z" transform="translate(-19.66 -155.07)"/></g><g id="PLAYSTATION"><path class="cls-5" d="M1124.48 911.05h-26.06l.89-8.7a3.38 3.38 0 013.37-3h17.55a3.37 3.37 0 013.36 3z" transform="translate(-19.66 -155.07)"/><path class="cls-98" d="M1124.48 911.05h-13v-11.74h8.78a3.37 3.37 0 013.36 3z" transform="translate(-19.66 -155.07)"/><path class="cls-99" d="M1095.24 986.06a12.29 12.29 0 0014.81-8.72l20.55-32.84-43.36-10.18-1.07 37.14a12.31 12.31 0 009.07 14.6z" transform="translate(-19.66 -155.07)"/><path class="cls-5" d="M1206.3 911.05h-26.06l.89-8.7a3.38 3.38 0 013.37-3h17.5a3.38 3.38 0 013.37 3z" transform="translate(-19.66 -155.07)"/><path class="cls-98" d="M1206.3 911.05h-13v-11.74h8.7a3.38 3.38 0 013.37 3z" transform="translate(-19.66 -155.07)"/><path class="cls-17" d="M1081.17 751.16h103.06v41.93h-103.06z"/><path class="cls-4" d="M1134.46 751.16h49.77v41.93h-49.77z"/><path class="cls-99" d="M1209.48 986.06a12.3 12.3 0 01-14.81-8.72l-20.55-32.84 43.36-10.18 1.07 37.14a12.3 12.3 0 01-9.07 14.6z" transform="translate(-19.66 -155.07)"/><path class="cls-100" d="M1218.14 928.62a24.88 24.88 0 11-24.87-24.87 24.79 24.79 0 0124.87 24.87z" transform="translate(-19.66 -155.07)"/><path class="cls-4" d="M1215.78 932.06a24.88 24.88 0 11-24.88-24.87 24.77 24.77 0 0124.88 24.87z" transform="translate(-19.66 -155.07)"/><path class="cls-101" d="M1123.71 770.73h6.09v3.61h-6.09zm8 12.92h5.5v3.26h-5.5z"/><circle class="cls-100" cx="1091.79" cy="773.55" r="24.87"/><path class="cls-20" d="M1132.91 788.97h3.11v1.84h-3.11z"/><path class="cls-101" d="M1138.88 775.07v-5.06l6.68 2.53-6.68 2.53z"/><path class="cls-17" transform="rotate(-90 1022.905 861.705)" d="M1105.36 916.05h9.81v26.73h-9.81z"/><path class="cls-17" transform="rotate(-90 1106.24 861.68)" d="M1188.7 916.02h9.81v26.73h-9.81z"/><path class="cls-17" d="M1169.04 760.95h9.81v26.73h-9.81z"/><path d="M1197.33 920.44a3.71 3.71 0 11-3.71-3.71 3.71 3.71 0 013.71 3.71z" transform="translate(-19.66 -155.07)" fill="#0fab9f"/><circle cx="1183.06" cy="774.3" r="3.71" fill="#dd082c"/><circle class="cls-10" cx="1165.56" cy="774.32" r="3.71"/><circle cx="1173.96" cy="783.27" r="3.71" fill="#266eb4"/><path class="cls-4" d="M1196.86 921.14a3.72 3.72 0 11-3.72-3.71 3.69 3.69 0 013.72 3.71zm0 17.86a3.69 3.69 0 01-.43 1.73 3.72 3.72 0 01-6.53-2.43 3.5 3.5 0 017 .7zm-8.4-8.91a3.72 3.72 0 11-3.71-3.71 3.69 3.69 0 013.71 3.71z" transform="translate(-19.66 -155.07)"/><circle class="cls-101" cx="1154.46" cy="793.1" r="12.56"/><circle class="cls-105" cx="1154.46" cy="793.1" r="8.82"/><path class="cls-17" d="M1085.7 760.98h9.81v26.73h-9.81z"/><path class="cls-99" d="M1093.7 763.01v6.97l-3.19 3.19-3.18-3.19v-6.97h6.37zm8.25 8.32h-6.97l-3.19 3.18 3.19 3.19h6.97v-6.37z"/><path class="cls-98" d="M1181.4 950a6.37 6.37 0 01-7.28 7 8.82 8.82 0 01-8.82-8.82 6.37 6.37 0 017.28-7 8.82 8.82 0 018.82 8.82z" transform="translate(-19.66 -155.07)"/><path class="cls-4" d="M1134 932.06a24.88 24.88 0 11-24.88-24.87 24.77 24.77 0 0124.88 24.87zm72-2.14a3.75 3.75 0 01-.43 1.73 3.71 3.71 0 01-6.52-2.44 3.64 3.64 0 01.42-1.71 3.71 3.71 0 016.53 2.42z" transform="translate(-19.66 -155.07)"/><circle class="cls-101" cx="1114.46" cy="793.1" r="12.56"/><path class="cls-105" d="M1142.94 948.16a8.82 8.82 0 11-8.83-8.82 8.78 8.78 0 018.83 8.82z" transform="translate(-19.66 -155.07)"/><path class="cls-99" d="M1093.8 785.42l-6.37.01-.02-6.37.03-.02 3.15-3.17 3.19 3.18.02 6.14v.23zm-4.62-10.91l-3.16 3.16-.03.03h-6.97l.01-6.37h6.96l3.19 3.18z"/><path class="cls-4" d="M1089.18 774.51l-3.16 3.16-6.55-6.34h6.52l3.19 3.18zm4.62 10.68l-6.36-6.15 3.15-3.17 3.19 3.18.02 6.14z"/><path class="cls-98" d="M1141.4 949.94a8.82 8.82 0 11-8.82-8.82 8.84 8.84 0 018.82 8.82z" transform="translate(-19.66 -155.07)"/><path class="cls-4" d="M1093.7 763.01v6.97l-6.37-6.96.01-.01h6.36zm8.25 14.69v-6.37h-6.97l6.97 6.37z"/></g></svg>